<?xml version="1.0" standalone="no"?>
<!DOCTYPE svg PUBLIC "-//W3C//DTD SVG 1.1//EN" "http://www.w3.org/Graphics/SVG/1.1/DTD/svg11.dtd" >
<svg xmlns="http://www.w3.org/2000/svg" xmlns:xlink="http://www.w3.org/1999/xlink" version="1.1">
<metadata></metadata>
<defs>
<font id="finitaregular" horiz-adv-x="477" >
<font-face units-per-em="2048" ascent="1536" descent="-512" />
<missing-glyph horiz-adv-x="501" />
<glyph horiz-adv-x="0" />
<glyph unicode="&#xd;" horiz-adv-x="1024" />
<glyph horiz-adv-x="0" />
<glyph horiz-adv-x="0" />
<glyph unicode=" "  horiz-adv-x="501" />
<glyph unicode="&#x09;" horiz-adv-x="501" />
<glyph unicode="&#xa0;" horiz-adv-x="501" />
<glyph unicode="!" horiz-adv-x="198" d="M2 1473q0 23 2 25.5t12 2.5q23 10 26 3t3 -19q12 -10 14 -21.5t2 -21.5v-88q10 -55 14.5 -111.5t16.5 -109.5q0 -78 6 -148t6 -147q0 -90 2.5 -170t14.5 -170v-222v-30q0 -10 -16.5 -12.5t-28.5 -2.5q-10 10 -12.5 22.5t-2.5 22.5v119v162q0 66 -8 131.5t-8 118.5v149 q0 43 -6 78t-6 68q0 55 -8.5 119.5t-8.5 132.5q0 33 -7 64.5t-7 54.5zM45 84q0 23 12 41t35 18t33 -18.5t10 -40.5q0 -43 -43 -43q-47 0 -47 43z" />
<glyph unicode="&#x22;" horiz-adv-x="282" d="M6 1212v213v72q0 4 2 8q4 8 19 8h16q6 -6 9 -13t5 -11q2 -8 2 -12q0 -78 2 -146.5t17 -134.5q0 -6 -3 -13t-7 -12q-4 -6 -9 -10h-32q0 14 -10.5 26.5t-10.5 24.5zM184 1196v211v70l17 20h16q16 -16 18.5 -20t2.5 -17q0 -66 8 -140.5t8 -139.5q0 -14 -2 -18.5t-14 -16.5 h-37q0 12 -8.5 25.5t-8.5 25.5z" />
<glyph unicode="#" horiz-adv-x="690" d="M2 690q10 27 25.5 31t33.5 4h117q8 53 22.5 104.5t22.5 94.5q-23 8 -44 10t-42.5 1t-44 -2t-43.5 3v12q10 0 17.5 6.5t17.5 6.5q35 8 64.5 9t64.5 1q16 -8 19.5 -3t3.5 15q18 53 35.5 110.5t33.5 110.5q10 35 18.5 77t18.5 77v10q27 0 35 -9t0 -36q-27 -90 -53.5 -177 t-53.5 -175v-10q45 0 82 -6.5t72 -6.5q8 0 15 7.5t7 15.5q16 61 35 128.5t35 129.5q10 35 18.5 69.5t16.5 69.5v12q27 0 31 -10t4 -37q-8 -16 -10.5 -40.5t-12.5 -51.5q-10 -53 -25.5 -99t-33.5 -100q-8 -29 -10 -48t-13 -46h82q10 0 17.5 -1t17.5 -11q10 0 12 -1t13 -11 q-10 0 -12.5 -11.5t-12.5 -11.5h-35q-27 0 -47 6t-47 6l-10 -12q-10 -45 -23.5 -87t-23.5 -77v-22h151q10 0 16.5 -1t6.5 -12q0 -4 -2 -8l-4 -8t-5 -6q-18 -10 -35.5 -11t-35.5 -1q-27 0 -54.5 6t-62.5 6q-8 -45 -16.5 -90t-18.5 -98q-8 -27 -16 -54.5t-19 -62.5 q-10 -16 -12 -36t-10 -46q0 -10 -1 -11t-11 -1q-16 0 -19.5 7t-3.5 17q8 27 10 52.5t13 52.5q10 35 17 64.5t17 64.5t18.5 70.5t16.5 70.5q-16 8 -34.5 9t-34.5 1h-47q-16 0 -19.5 -3t-3.5 -19q-18 -61 -33.5 -116.5t-25.5 -117.5q-8 -35 -16.5 -77t-18.5 -76q0 -8 -3 -15.5 t-20 -7.5q-18 10 -21 17.5t-3 17.5q10 53 23.5 99t23.5 100q10 45 23.5 95t23.5 103h-141h-23zM223 737q35 -10 64.5 -11t64.5 -1l13 12q10 45 23 88t24 88q-35 0 -72 1t-80 10q-10 -53 -18.5 -97.5t-18.5 -89.5z" />
<glyph unicode="$" horiz-adv-x="561" d="M-8 203l16 16q14 0 24.5 -2t10.5 -14q14 -39 57 -69t82 -71q27 -12 52.5 -14t52.5 -2q39 0 64.5 29.5t37.5 56.5q27 39 40 80t13 94q0 78 2 146.5t15 146.5v88q0 12 -8.5 24.5t-8.5 26.5q-6 0 -10 2q-8 4 -8 15q-12 27 -35.5 42t-50.5 27q-39 27 -86 46.5t-86 58.5 q-41 39 -55.5 88t-14.5 102q0 131 51 260q14 27 37 61t49 60q27 27 31 52.5t4 52.5q0 12 -8 33.5t-8 33.5q0 14 10 24.5t25 10.5q12 0 16 -10t19 -25v-121q39 -12 66.5 -18t53.5 -33q12 -14 23.5 -35.5t11.5 -33.5t-11 -23.5t-24 -11.5q-14 0 -18 2t-16 16q0 39 -24 53.5 t-62 14.5q-14 0 -24.5 -2t-10.5 -15q-78 -78 -106.5 -179t-14.5 -218q12 -53 39.5 -92t81.5 -66q27 -12 53.5 -31.5t67.5 -19.5q53 -12 71.5 -37.5t32.5 -66.5v-35q0 -66 6 -127.5t-6 -114.5q0 -78 -4 -153.5t-31 -141.5t-65.5 -115t-89.5 -73q0 -41 -2.5 -70.5t-16.5 -68.5 v-35h-35q0 27 -8 52.5t-8 51.5v70q-41 0 -67.5 10t-53.5 23q-27 27 -52.5 44t-51.5 44q-14 12 -18.5 35.5t-16.5 50.5z" />
<glyph unicode="%" horiz-adv-x="538" d="M6 12.5q-10 12.5 2 36.5q37 59 54.5 131t41.5 144q12 59 33 127.5t33 130.5q25 74 46.5 154.5t33.5 152.5q25 86 49.5 170t48.5 170q23 72 47 152.5t49 154.5q35 12 39 2t-6 -35q-12 -49 -24.5 -105.5t-22.5 -103.5q-14 -49 -34.5 -100t-30.5 -111q-27 -98 -52.5 -193 t-62.5 -194q-23 -86 -48.5 -180t-47.5 -192q-12 -72 -33 -137.5t-33 -137.5q-12 -14 -18.5 -31.5t-28.5 -17.5q-25 0 -35 12.5zM23 1229q-10 49 1 87t48 75q25 12 49 19t49 -3q25 -12 44 -28.5t19 -53.5v-49q6 -18 -1 -37.5t-21 -38t-29.5 -32t-27.5 -19.5q-49 -14 -90 8.5 t-41 71.5zM72 1245q0 -12 10 -23.5t22 -25.5q12 -12 24.5 -2t25.5 35q12 6 17 20.5t7 30.5t0 32.5t-8 28.5q-12 25 -32.5 25t-33.5 -25q-12 -23 -22 -48t-10 -48zM315 258q0 49 22.5 84t57.5 45q12 0 25.5 4t23.5 29q0 14 18.5 5t29.5 -22q0 -12 9 -31.5t9 -33.5 q23 -23 13.5 -64t-46.5 -63q-12 0 -24.5 -11.5t-22.5 -21.5q-49 -25 -82 -2t-33 82zM365 276q0 -14 2 -26t12 -23v-16q39 12 68.5 43t29.5 53q0 23 -20.5 34t-44.5 -3q-25 0 -36 -19.5t-11 -42.5z" />
<glyph unicode="&#x26;" horiz-adv-x="604" d="M14 205q-25 152 45 313q23 45 45.5 90t57.5 90q12 0 14 9.5t2 21.5q-12 10 -15 29.5t-13 29.5q-25 45 -30 97.5t-16 97.5q0 35 -8 67.5t-8 67.5q0 23 9 52.5t20 52.5q0 23 8 36t8 25q47 45 92 84t105 51h45q10 0 28.5 -2t28.5 -14q25 0 37 -9.5t25 -19.5q23 -23 42 -56.5 t19 -78.5q10 -57 4 -120.5t-49 -121.5q-35 -35 -67.5 -69.5t-67.5 -79.5q-35 -35 -61.5 -67.5t-61.5 -67.5v-29q35 -68 61.5 -133.5t61.5 -122.5q10 -45 30.5 -82t43.5 -84q12 23 15 45.5t13 44.5q12 35 16.5 68t16.5 67q0 4 2 9q4 8 10 8q12 8 23 12q6 2 10 2 q10 -10 11 -22.5t1 -22.5q-23 -57 -37 -122.5t-36 -133.5q-12 -10 -4 -21.5t20 -23.5q10 -23 21.5 -37t23.5 -37q0 -12 -2 -22t-14 -23q-12 0 -20.5 2t-8.5 15q-12 23 -25 36.5t-36 36.5q-23 -47 -56 -71.5t-80 -46.5q-55 -12 -104 -11.5t-105 23.5q-47 35 -68.5 71.5 t-21.5 96.5zM72 217q0 -35 5 -65.5t40 -53.5q33 -23 71.5 -29t75.5 1.5t69 26t54 46.5q16 23 24.5 32t8.5 15.5t-8.5 17.5t-24.5 40q-35 68 -65.5 135.5t-53.5 134.5q-23 35 -36 60.5t-25 60.5h-12q-25 -47 -46.5 -91t-44.5 -89q-25 -57 -28.5 -115.5t-3.5 -126.5zM150 1118 q10 -92 24 -179t49 -165q35 33 78 76t86 88q47 45 85 96t38 129q0 35 -10.5 68t-22.5 67q-10 35 -38.5 49.5t-63.5 26.5q-35 0 -59.5 -10t-47.5 -21q-12 -10 -20 -14t-8 -16q-47 -45 -68.5 -91t-21.5 -104z" />
<glyph unicode="'" horiz-adv-x="149" d="M41 1196v211v70l16 20h17q16 -16 18 -20t2 -17q0 -66 8.5 -140.5t8.5 -139.5q0 -14 -2.5 -18.5t-14.5 -16.5h-37q0 12 -8 25.5t-8 25.5z" />
<glyph unicode="(" horiz-adv-x="282" d="M10 506q0 92 7.5 181t7.5 167v215v150v16q12 45 14 90t2 90q18 113 149 92q12 0 21.5 -2t9.5 -14q12 0 14.5 -9t2.5 -22h-31q-12 0 -23.5 8.5t-23.5 8.5q-23 0 -40.5 -21.5t-17.5 -56.5q-14 -66 -17 -126.5t-13 -129.5v-316v-290v-150q0 -47 8 -99t22 -98 q0 -37 8.5 -60.5t20.5 -45.5q0 -12 9.5 -21.5t19.5 -9.5q12 -12 23.5 -4t23.5 19q20 23 61 0q-12 -10 -16 -14.5t-14 -16.5q-23 -23 -46.5 -32t-46.5 1q-33 12 -48 27.5t-25 50.5q-35 104 -48.5 206.5t-13.5 215.5z" />
<glyph unicode=")" horiz-adv-x="286" d="M-4 1475q10 35 49 55t76 20q23 -10 49.5 -33.5t26.5 -60.5q10 -80 22 -170t23 -182q12 -59 14 -117.5t2 -130.5v-321v-263q-12 -59 -25.5 -114.5t-35.5 -102.5q-16 -29 -37 -41t-41.5 -14t-40 5t-37.5 20q-10 0 -12 10t-2 20h30h15q23 -23 40 -14.5t40 31.5 q45 115 45 231v31v170v137v354q-10 82 -14.5 154t-16.5 156q0 35 -7 68.5t-7 68.5q0 25 -10.5 36t-20.5 11q-25 12 -39 4t-25 -18q-12 -14 -18 -23.5t-29 -9.5q-10 10 -12 14t-2 19z" />
<glyph unicode="*" horiz-adv-x="628" d="M10 772q10 27 15.5 31t33.5 4q45 0 97.5 -5t107.5 -5h12q-18 27 -30.5 47t-30.5 49q-29 27 -48.5 53.5t-47.5 54.5v23q10 0 18 5t19 -5q27 -35 59.5 -78t60.5 -78q8 -10 10.5 -12t12.5 -12v338q18 -10 27.5 -20.5t9.5 -28.5v-181q0 -18 1 -30.5t11 -28.5q18 35 36.5 63.5 t35.5 57.5q37 -18 40 -25.5t-16 -36.5q-29 -35 -48 -65.5t-48 -67.5q0 -10 -1 -12t-11 -10q47 -10 90 -11.5t80 -1.5h59q10 0 16.5 -7t-3.5 -17q0 -10 -3.5 -17.5t-21.5 -7.5q-45 0 -84 6.5t-84 6.5h-25q29 -37 54.5 -73t54.5 -73q10 -10 11 -12t1 -12q10 -8 14.5 -10.5 t-14.5 -12.5q-10 -10 -18 -4t-19 16q-29 27 -53 59.5t-43 59.5q0 -53 -7 -113.5t-17 -113.5q0 -10 5 -12.5t-5 -12.5v-24h-37v24q0 63 6 126t6 126v37q-27 -35 -52.5 -65.5t-43.5 -67.5q-10 -10 -12.5 -16.5t-12.5 -6.5q-8 0 -15 1t-7 10v24q27 37 47 74t49 84 q-63 0 -120.5 6t-121.5 6z" />
<glyph unicode="+" horiz-adv-x="493" d="M8 807q0 8 2 12t17 4h96h96q45 0 86 5.5t78 5.5h31q20 0 23 -2.5t3 -14.5q-6 -8 -8 -9t-10 -1q-23 -8 -44.5 -9t-43.5 -1q-66 0 -125 -5.5t-125 -5.5h-57q-6 0 -12.5 2.5t-6.5 18.5zM199 711v221v96q23 8 26.5 0t3.5 -31q8 -49 9.5 -104t1.5 -107v-200q0 -10 -21 -11 q-10 0 -10 11q0 35 -1 65.5t-9 59.5z" />
<glyph unicode="," horiz-adv-x="188" d="M2 -115q16 0 21 11q2 6 2 12l31.5 14t22.5 15.5t13 23.5t4 41h-47q-18 16 -29.5 34.5t5.5 35.5q18 18 35.5 29.5t35.5 -5.5h23q16 0 31.5 -15t15.5 -32v-72q0 -16 -8 -36.5t-21.5 -41t-30 -37t-34.5 -24.5q-16 0 -22.5 3t-24.5 20z" />
<glyph unicode="-" horiz-adv-x="460" d="M6 639q0 4 4 12q2 4 4 6h80q61 6 121.5 7.5t122.5 1.5h45q6 0 16.5 -2t10.5 -17q0 -6 -5.5 -12t-13.5 -6h-90h-98q-35 0 -73 -4t-79 -4h-28q-12 0 -14.5 2t-2.5 16z" />
<glyph unicode="." horiz-adv-x="182" d="M14 86q0 41 19.5 74t58.5 33q41 0 60.5 -33t19.5 -74q0 -78 -80 -78q-78 0 -78 78z" />
<glyph unicode="/" horiz-adv-x="321" d="M0 8v33q0 35 2 61.5t14 49.5q0 35 2 71.5t15 73.5q0 72 10 133.5t20 120.5q12 72 24.5 153.5t25.5 167.5q10 47 22 95.5t25 95.5q12 47 16 88t14 88q14 72 25.5 136.5t24.5 135.5q0 10 10 19.5t22 -4.5q12 0 14.5 -9.5t2.5 -21.5q0 -25 -8.5 -48.5t-8.5 -47.5 q-12 -72 -24 -143.5t-25 -143.5q-10 -37 -21.5 -72.5t-11.5 -70.5q-10 -61 -22 -129t-25 -129q-12 -96 -31.5 -190.5t-31.5 -190.5q0 -37 -2 -74t-15 -72q0 -37 -9 -72.5t-21 -70.5q0 -12 -10.5 -16.5t-22.5 -16.5z" />
<glyph unicode="0" horiz-adv-x="552" d="M-2 457v100v272q12 78 25.5 153t23.5 153q14 90 44 177t93 163q25 27 62 39t73 12q14 0 26.5 -19.5t27.5 -31.5q51 -76 78.5 -154t37.5 -170q14 -37 16.5 -84t2.5 -84q12 -102 14 -203.5t2 -204.5q0 -66 -8 -120t-8 -119q-14 -37 -18.5 -76t-14.5 -76q-27 -51 -64.5 -88 t-91.5 -47q-37 -14 -75.5 -22.5t-75.5 4.5q-27 0 -41 13t-27 38q-41 39 -54 79t-13 91q-14 53 -24.5 103.5t-10.5 101.5zM58.5 626q-7.5 -130 7.5 -272q12 -66 29.5 -126t54.5 -111q14 -14 26 -24.5t27 -10.5q25 -14 58.5 -5t57.5 21q102 51 103 154q27 90 40 186.5 t13 186.5v120q0 10 -2 14.5t-16 18.5q12 0 16 8q2 4 2 9q-14 51 -16 102t-2 102q0 37 -2 76t-15 76q-14 51 -34.5 101.5t-32.5 103.5q-14 39 -38 66.5t-48 52.5q-12 0 -16.5 6t-18.5 -6q-27 -12 -38 -36t-11 -50q-14 0 -16.5 -2.5t-2.5 -12.5q-12 -27 -31.5 -63.5 t-19.5 -73.5q-25 -78 -40 -164t-27 -176q0 -141 -7.5 -271z" />
<glyph unicode="1" horiz-adv-x="215" d="M8 1251v19q14 68 38 123t52 108q0 14 18.5 25.5t33.5 11.5v-37q14 -78 16 -149.5t2 -151.5v-143v-88q0 -82 -9 -161t-9 -161v-373q0 -55 9 -111.5t9 -121.5q0 -12 -11.5 -23.5t-25.5 -11.5q-25 0 -29 11.5t-4 23.5v393v391v213v322h-18q0 -27 -2 -44.5t-17 -45.5 q-4 -6 -10 -10q-12 -8 -24 -9q0 -12 -11 -6q-4 2 -8 6z" />
<glyph unicode="2" horiz-adv-x="567" d="M16 35q0 90 32 159.5t73 147.5q39 53 74.5 95t60.5 93q41 66 75 142t46 168t31.5 172t19.5 170q14 53 14 93t-14 79q-12 51 -53 83.5t-119 18.5q-51 -12 -81 -46t-54 -73q-27 -27 -40 -62.5t-13 -74.5q0 -14 2 -26.5t16 -24.5q0 -14 -2 -24.5t-16 -10.5 q-12 -14 -24.5 -12t-27.5 28q-12 78 2.5 141.5t67.5 117.5q27 39 53.5 64.5t65.5 37.5q33 12 69.5 18.5t72.5 1t66.5 -21.5t49.5 -49q12 -14 23.5 -35t11.5 -35q0 -90 -2 -177t-17 -165q-12 -27 -14 -51.5t-2 -50.5q-12 -53 -18.5 -103.5t-32.5 -103.5q0 -39 -21.5 -75 t-48.5 -62q-25 -51 -50.5 -93.5t-51.5 -95.5q-39 -51 -75 -106.5t-63 -132.5q0 -12 -8 -35.5t-8 -50.5h377h16q14 0 24.5 -2.5t10.5 -14.5t-10 -23.5t-25 -11.5h-153q-66 0 -129.5 -8t-128.5 -8q-25 0 -38.5 4t-13.5 31z" />
<glyph unicode="3" horiz-adv-x="575" d="M-4 166q0 29 13.5 35t39.5 18q16 0 18.5 -10t2.5 -25q0 -41 24.5 -74.5t65.5 -33.5q53 -29 104 -17.5t80 54.5q41 41 58.5 83t29.5 97q29 70 40 139.5t-3 151.5q0 43 -11.5 94t-25.5 106q-12 55 -68.5 93t-111.5 53h-39q-10 0 -14 10q-2 4 -2 10q0 12 2 16.5t14 18.5h39 q41 0 70.5 15.5t56.5 56.5q41 57 47 114.5t6 122.5q0 41 -6 80t-47 68q-55 41 -110.5 42t-108.5 -28q-29 -10 -43.5 -44t-28.5 -62q-14 -14 -18 -25.5t-21 -11.5h-35v37q14 41 39 70.5t53 56.5q0 14 19.5 26.5t34.5 12.5q53 10 110.5 17t126.5 -17q53 -29 81 -80.5 t28 -104.5v-125q0 -55 -13.5 -90t-41.5 -76q-14 -16 -36 -37.5t-36 -35.5q29 -29 52.5 -57.5t37.5 -71.5q29 -12 35 -37t20 -53q14 -80 23.5 -153t-4.5 -157q-14 -80 -35 -169t-76 -156q-41 -55 -93 -77t-108 -34q-41 0 -80.5 4t-80.5 33q-29 29 -44.5 57.5t-29.5 69.5z" />
<glyph unicode="4" horiz-adv-x="460" d="M4 754q14 55 18.5 100t16.5 98q14 55 18 118t19 116q14 84 24.5 152.5t10.5 138.5q16 27 31.5 38t41.5 -4v-16q-14 -84 -26.5 -164t-26.5 -162q-16 -94 -28.5 -180t-26.5 -180q68 -12 133 -14t119 -2v196v307q0 41 -11.5 83t-23.5 98q0 8 2 16q2 6 5 12t9 6h39 q12 0 14.5 -2t2.5 -14q29 -123 32.5 -256t3.5 -268v-162q14 -96 9.5 -178t9.5 -164v-252q12 -41 14 -91t2 -91q0 -27 -10 -31t-25 -4q-14 0 -25 2t-11 16q0 27 -2.5 53.5t-14.5 55.5v305v236v53q-96 12 -180 23.5t-164 11.5z" />
<glyph unicode="5" horiz-adv-x="534" d="M-6 1507q6 6 15 9.5t18 5.5q8 2 20 2q66 -12 121 -6t108 6h54q14 0 18 -2t17 -15q-12 0 -16.5 -9t-18.5 -9q-66 -14 -124.5 -16.5t-123.5 -2.5h-16q27 -121 30.5 -238.5t3.5 -238.5q12 14 25.5 16.5t28.5 2.5h159q39 0 66 -15.5t39 -56.5q41 -94 47 -186t6 -187 q14 -39 16 -69.5t2 -71.5t-2 -80t-16 -78q0 -29 7 -43t-7 -28q-12 -59 -38.5 -104.5t-66.5 -67t-93.5 -16.5t-118.5 46q-14 0 -36 10.5t-36 24.5q-41 41 -62.5 94.5t-7.5 118.5q27 0 40.5 -6t13.5 -47q12 -41 31.5 -76t72.5 -49q14 -12 37.5 -25.5t52.5 -27.5q80 -25 105 53 q14 20 21 37.5t12 36t9.5 39t10.5 47.5v231q-12 66 -16.5 134.5t-18.5 148.5q0 27 -11.5 61.5t-23.5 61.5q0 14 -19.5 25t-33.5 11q-53 12 -103.5 8.5t-91.5 -44.5q-27 -12 -49 0t-22 53v194q6 39 5 76t-6 73t-10.5 68.5t-5.5 67.5v16q0 6 -3 13.5t-7 11.5z" />
<glyph unicode="6" horiz-adv-x="645" d="M2 762v250q0 80 8 148.5t8 135.5q16 68 56.5 116t105.5 63q160 80 320 0q14 0 18 -9.5t19 -9.5v-35h-54q-29 0 -43 17.5t-26 17.5h-162q-80 -27 -120 -88t-40 -141q0 -55 -10 -105.5t-10 -91.5v-90q29 27 65.5 51.5t77.5 38.5q82 12 150.5 -5t134.5 -85 q14 -14 27.5 -37.5t27.5 -50.5q0 -41 8 -90t8 -90q0 -66 9.5 -130.5t9.5 -117.5v-143v-107q0 -66 -38 -105.5t-106 -56.5q-80 -25 -159 0q-66 14 -124.5 57.5t-70.5 123.5q-29 53 -35 106t-18 109q0 41 -2 88t-19 88q0 41 -8 89t-8 89zM80 768q-2 -37 12 -78v-53v-35 q0 -68 10.5 -126t24.5 -124q0 -53 4 -104t31 -92q41 -53 94 -74t121 -33q68 0 104.5 38t36.5 106q0 94 -2 198.5t-16 210.5q0 53 -2 108.5t-15 120.5q-12 55 -62 99.5t-116 44.5q-27 14 -62.5 12t-62.5 -29t-49 -56.5t-35.5 -63t-15.5 -70.5z" />
<glyph unicode="7" horiz-adv-x="561" d="M-4 1503q41 0 72.5 8.5t72.5 8.5q53 0 118 2t118 18h74h34q12 0 26.5 -2t29.5 -18v-17q-14 -55 -18.5 -109.5t-20.5 -109.5q-27 -68 -41.5 -135.5t-28.5 -134.5q-41 -123 -70.5 -245t-56.5 -245q-14 -68 -28.5 -145.5t-26.5 -145.5q-14 -53 -27.5 -108t-25.5 -109 q0 -14 -12.5 -16t-24.5 -2q-14 0 -25.5 4t-11.5 31q14 16 16 39.5t2 52.5q14 55 37 110.5t35 124.5q14 82 27.5 163t25.5 165q16 53 30 98.5t26 98.5q-20 0 -41 -2t-41.5 -2t-40 5t-39.5 19q12 27 18 29t35 -10q14 0 29.5 8t44.5 8h53q29 135 64.5 264t62.5 281 q-41 -14 -81 -16.5t-81 -2.5h-219q-14 -12 -26.5 -14t-28.5 -2q-12 0 -23.5 12.5t-11.5 40.5z" />
<glyph unicode="8" horiz-adv-x="575" d="M0 299v154q0 102 4 211.5t31 212.5q0 27 18.5 42t32.5 25q12 0 16 9.5t17 9.5q-25 27 -40.5 51t-27.5 51q-25 63 -24.5 134t24.5 136q12 51 46 88t73 47q14 14 25.5 18.5t25.5 16.5q51 14 97.5 1t72.5 -50q25 -27 40 -62.5t28 -74.5q14 -25 23.5 -51.5t9.5 -50.5 q14 -63 -8.5 -123t-73.5 -97q37 -41 59.5 -98t22.5 -108q27 -102 38 -203t-4 -203q0 -41 -8 -89t-8 -99q0 -25 -13.5 -48.5t-37.5 -37.5q-37 -37 -86 -62.5t-103 -38.5q-88 -14 -142 24t-93 130q-27 25 -31 60.5t-4 74.5zM68 264q0 -39 13 -75.5t38 -77.5q12 -10 27.5 -21.5 t41.5 -11.5q31 -12 65 -10t65.5 15t59.5 34.5t46 46.5q14 0 24.5 10t10.5 23v118q14 90 14 186.5t-14 188.5q-12 51 -27.5 110.5t-40.5 110.5q-12 25 -37.5 36t-64.5 -3h-51q-12 0 -14.5 -2t-2.5 -12h-18q-10 -14 -34 -18.5t-50 -18.5q-12 0 -22.5 -10.5t-10.5 -24.5 q0 -37 -9 -75t-9 -74v-291v-154zM81 1182.5q9 -50.5 21 -101.5q0 -12 2 -25.5t15 -25.5q27 -14 61.5 -30.5t75.5 -2.5q0 8 6 13q4 2 8 2q45 0 78 14t53.5 36.5t30.5 50.5t10 52q-14 39 -25 77t-26 77q0 27 -10 43t-25 41q-12 14 -34.5 33.5t-51.5 19.5q-31 -6 -61.5 -24.5 t-55 -42t-43 -51t-24.5 -52.5q-14 -53 -5 -103.5z" />
<glyph unicode="9" horiz-adv-x="483" d="M2 279q0 12 10.5 14t26.5 2q12 0 22.5 -2t10.5 -14q0 -53 18.5 -102.5t71.5 -74.5q25 -29 61.5 -39t77.5 3q29 29 49.5 55t20.5 67q16 80 8 152t-8 152v262v106q-37 0 -76 -10t-80 -27q-20 0 -48 9.5t-52.5 24.5t-42 33.5t-17.5 39.5q0 16 -2 20t-14 17 q-14 20 -19.5 42.5t-5.5 47t2 50.5t2 52q-12 53 -12 94t12 82q29 94 83.5 137.5t146.5 59.5h37q33 6 56.5 -2t39.5 -26.5t26.5 -43t16.5 -51.5q27 -96 23.5 -186t-3.5 -170v-635v-209q-16 -68 -34.5 -110t-71.5 -66q-106 -57 -213 0q-66 53 -88.5 115.5t-34.5 130.5z M72 1212q0 -66 6 -131t47 -131q0 -16 10 -26.5t27 -10.5q41 -41 88 -34.5t88 34.5q12 12 16 26.5t17 27.5q0 12 2 36.5t18 49.5v127q0 53 -10 104t-10 105q-6 14 -13.5 29.5t-16.5 28.5t-22.5 22.5t-33.5 9.5q-29 0 -55.5 -11.5t-67.5 -25.5q-16 0 -34.5 -20.5t-18.5 -49.5 q-29 -41 -33 -80t-4 -80z" />
<glyph unicode=":" horiz-adv-x="204" d="M14 557q0 41 19.5 74t58.5 33q41 0 60.5 -33t19.5 -74q0 -78 -80 -78q-78 0 -78 78zM14 1008q0 41 19.5 73.5t58.5 32.5q41 0 60.5 -32.5t19.5 -73.5q0 -78 -80 -78q-78 0 -78 78z" />
<glyph unicode=";" horiz-adv-x="206" d="M14 496q16 0 21 10q2 6 2 12q33 16 49 27.5t16 60.5h-43q-16 16 -27.5 32.5t5.5 33.5q16 16 32.5 27.5t32.5 -5.5h23q16 0 29.5 -14t13.5 -31v-65q0 -33 -26.5 -74t-61.5 -57q-16 0 -21.5 3t-21.5 19zM37 979q0 33 5 49t38 16q35 0 61.5 -14t26.5 -31q0 -66 -66 -65 q-33 0 -49 14.5t-16 30.5z" />
<glyph unicode="&#x3c;" horiz-adv-x="280" d="M17.5 777q2.5 7 2.5 18q45 53 88.5 109.5t79.5 119.5q10 8 20.5 6t27.5 -18q-16 -29 -36 -60.5t-48 -60.5q-16 -27 -41 -59.5t-43 -59.5l84 -84q29 -18 54 -36.5t54 -37.5q10 -8 11 -16t1 -18t-12 -10.5t-12 10.5q-35 27 -70 53t-61 55q-29 16 -48.5 34.5t-35.5 37.5 q-18 10 -15.5 17z" />
<glyph unicode="=" horiz-adv-x="768" d="M35 725q-10 33 0 45t43 12q78 0 161 2t158 13h305q10 0 12.5 -9.5t2.5 -19.5t-3 -19.5t-26 -9.5h-174q-88 0 -172 -7t-162 -7h-145zM49 899q0 10 6 21q4 6 8 8h132q98 10 195 12t196 2h73q10 0 26.5 -3t16.5 -26q0 -10 -9 -19t-19 -9h-146h-159q-53 0 -117 -7.5 t-129 -7.5h-45q-23 0 -26 3.5t-3 25.5z" />
<glyph unicode="&#x3e;" horiz-adv-x="253" d="M0 1006q8 0 10.5 1t12.5 9q8 -8 14 -15.5t14 -7.5q41 -39 83 -72.5t67 -72.5q6 -10 14 -17.5t16 -15.5q6 -10 5 -14q-2 -4 -5 -6q-16 -8 -24 -17.5t-17 -25.5q-25 -23 -53 -53.5t-53 -61.5l-33 -33q-8 -8 -18 -3t-10 15q-8 6 -5 15q2 4 5 6q39 31 71.5 67.5t63.5 69.5 q8 8 10 15.5t12 15.5v20q-25 25 -48 48.5t-48 46.5q-16 16 -36.5 32.5t-37.5 30.5q0 8 -5 10t-5 13z" />
<glyph unicode="?" horiz-adv-x="419" d="M4 1309q2 4 6 8q0 35 2 67.5t15 65.5q10 12 19 25.5t20.5 25.5t27 19.5t37.5 7.5q90 23 135 -45q35 -47 50.5 -99.5t25.5 -97.5q23 -92 34 -188.5t11 -186.5q0 -70 -7 -137t-7 -135q-12 -35 -24.5 -58.5t-35.5 -45.5q-25 -23 -47 -27t-45 -4h-31q12 -47 14.5 -98.5 t2.5 -96.5v-137q0 -10 -10.5 -19.5t-20.5 -9.5t-19.5 3.5t-9.5 25.5v182q0 45 -8 80t-8 70q0 23 18.5 39t40.5 6q29 0 44.5 1t25.5 6t17.5 17.5t19.5 34.5q23 45 27 92.5t4 104.5v166q-10 55 -14.5 111.5t-16.5 113.5q0 23 -8 53.5t-8 53.5q-10 45 -24.5 84.5t-49.5 62.5 q-35 47 -66.5 40t-54.5 -54q-12 -23 -16 -52.5t-15 -52.5v-28q-20 -25 -45 0q-10 0 -6 6zM131 37q0 10 18 22.5t41 22.5q12 -10 26.5 -16.5t4.5 -28.5q0 -10 -11 -27.5t-34 -17.5q-10 0 -27.5 17.5t-17.5 27.5z" />
<glyph unicode="@" horiz-adv-x="813" d="M27 625q-14 111 7 213t50 217q14 70 57 125t129 98q41 29 95.5 42t111.5 13q70 -12 135.5 -36.5t106.5 -94.5q43 -41 50 -94.5t7 -110.5q14 -98 7 -193t-7 -179q-16 -45 -18 -84t-2 -68q-14 -41 -39 -78t-53 -53q-20 -6 -44 -9t-45.5 0t-38 14t-22.5 32q0 16 -10 20 t-10 19q-29 -29 -60 -32t-72 13h-16q-14 0 -18 9q-2 4 -2 10h-19v20l-18 17q0 41 -11.5 83t-25.5 87q0 41 7 93t48 93q29 29 69 33t81 4h20v168q0 14 -12 37.5t-27 36.5q-29 0 -44 -19.5t-32 -36.5q-12 -29 -16 -56.5t-20 -53.5q-6 0 -11 -2q-8 -4 -8 -19q-14 16 -16 20.5 t-2 18.5q0 27 10 60.5t27.5 63.5t41 52.5t50.5 28.5q14 6 28.5 4t26.5 -9t22.5 -16.5t18.5 -15.5q0 -29 9 -59.5t9 -71.5q12 -72 14.5 -142.5t2.5 -156.5v-170q0 -29 12 -52.5t27 -39.5q16 -29 36.5 -29t20.5 29q14 16 24.5 37.5t10.5 38.5q29 127 41 240.5t-2 223.5 q0 57 -13.5 111.5t-41.5 95.5q-29 57 -81.5 76t-105.5 19q-72 14 -139.5 -9.5t-122.5 -64.5q-29 -29 -52.5 -76t-23.5 -76q-14 -70 -25.5 -137.5t-11.5 -124.5q-14 -70 -2.5 -137.5t39.5 -124.5q27 -84 113 -168q29 -41 79 -68.5t107 -42.5q14 0 30.5 9.5t45.5 9.5 q14 0 26.5 -2t28.5 -17q-29 -41 -80 -54t-106 16q-86 14 -146.5 65t-115.5 121q-43 57 -61.5 122.5t-32.5 123.5zM319 596.5q7 -66.5 64 -123.5q0 -14 13.5 -24.5t41.5 -10.5q14 12 35 36t21 36v246q-12 0 -24.5 2t-12.5 14q-41 29 -78 17.5t-53 -54.5q-14 -72 -7 -138.5z " />
<glyph unicode="A" d="M-4 276q10 63 12 129t2 132v98q0 66 -7 131t-7 131q0 53 2 114.5t12 114.5q0 55 3 107.5t26 97.5q23 41 39 82t49 76q20 43 84 43h59q43 -10 66.5 -39t34.5 -63q35 -53 47 -108.5t12 -121.5q0 -121 7 -246t7 -245q0 -86 -7 -164t-7 -154v-260v-102q0 -23 -2 -28t-12 -15 q-23 0 -28 9t-17 19v103v260q0 76 8 151.5t8 149.5v18q-78 10 -163 11.5t-171 1.5v-86v-189q-7 -29 -7 -61q0 -16 2 -33q5 -51 5 -92q0 -35 -7 -74t-7 -72v-88q0 -10 -3 -17t-26 3v131q0 33 -7 66.5t-7 78.5zM53 752q86 0 166 -2.5t168 -12.5v15v303v86q-12 55 -23.5 116.5 t-21.5 114.5q0 33 -12.5 56.5t-44.5 46.5q-10 10 -25.5 15t-31 5t-28 -5t-18.5 -15q-41 -35 -64.5 -82t-33.5 -90q-12 -45 -21.5 -95.5t-9.5 -95.5v-215v-145z" />
<glyph unicode="B" horiz-adv-x="514" d="M21.5 120.5q1.5 20.5 4.5 41t5 43.5q-6 21 -6 40q0 13 3 25q7 30 9 62q-10 47 -10 92t4 100q4 52 5 114v12q0 55 -9 106q2 55 10 100q4 22 4 48t-4 54q4 54 5 108v12q0 49 -7 98q1 8 1 17q0 27 -5 57q-4 24 -4 50q0 17 2 35q2 23 2 43.5v40.5q-8 23 -8 53.5t2 63.5 q44 6 85 7q10 0 21 -1q51 -2 94 -16q66 -14 124.5 -50t86.5 -92q18 -34 26 -72q7 -31 7 -60v-13q10 -36 10 -75q0 -10 -1 -20q-3 -50 -17 -91q-12 -33 -18.5 -56.5t-28.5 -44.5q-23 -31 -48.5 -63.5t-60.5 -63.5q-10 -8 -23.5 -17.5t-33.5 -19.5q41 -14 75.5 -23t65.5 -44 q10 -23 24.5 -45.5t24.5 -57.5q23 -47 32 -98t19 -106q3 -33 3 -65q0 -41 -5 -79q-8 -66 -55 -143q-27 -31 -56.5 -45t-64.5 -37q-35 -10 -75 -16q-30 -5 -63 -5q-11 0 -21 1q-14 10 -33 5t-41 -16q-10 0 -20.5 4.5t-20.5 24.5q-10 18 -13.5 37.5t-2 40zM86 737 q-2 -24 -2 -47q0 -30 3 -60.5t3 -60.5q0 -24 -2 -47q10 -55 10 -109.5t6 -111.5q-2 -61 -5 -117.5t-5 -111.5q23 -2 51.5 -4t51.5 -2q33 -2 56 6t46 18q23 20 50.5 32.5t37.5 35.5q49 86 55 200q-8 78 -19 138.5t-40 126.5q-10 33 -38 67.5t-73 38.5q-43 0 -88 2t-98 6z M96 1489q2 -174 3 -353.5t3 -353.5h23.5t18 2t18.5 7.5t26 15.5q10 -2 20.5 6t12.5 18q43 29 79 64t75 88q35 43 42 94t11 107q0 43 -8 87t-27 87q-31 47 -75 78.5t-111 48.5q-24 13 -55 13q-25 0 -56 -9z" />
<glyph unicode="C" horiz-adv-x="442" d="M0 696q0 76 7 150t7 149q10 76 14.5 143.5t14.5 143.5q0 33 9 64.5t20 64.5q6 27 23.5 48.5t41 34.5t52 18.5t55.5 -1.5q33 0 53 -19t31 -52q0 -33 8 -62.5t8 -52.5q0 -10 -2 -19.5t-14 -9.5l-15 15q-10 33 -18 55.5t-8 44.5q-10 33 -39 51q-18 11 -37 10q-12 0 -25 -4 q-33 -10 -54 -33.5t-32 -66.5q0 -66 -9 -122t-19 -122q0 -53 -2 -98t-13 -86q0 -98 -5 -186q-2 -29 -2 -60q0 -61 7 -127q10 -45 14.5 -96t14.5 -104q10 -66 29.5 -122.5t42.5 -121.5q23 -33 45 -52.5t55 -19.5q23 0 33 3t10 26q20 23 31.5 45t11.5 55q0 10 6 21q4 6 8 8 q10 10 19.5 10t9.5 -10q10 -23 12 -35t2 -22q-23 -33 -37 -57.5t-36 -57.5q-20 -31 -50 -35t-63 6q-43 23 -67.5 47.5t-47.5 67.5q-23 66 -36 121t-35 108q-10 43 -12.5 77t-2.5 67q0 53 -7 104t-7 96z" />
<glyph unicode="D" horiz-adv-x="514" d="M6 1503q0 10 16.5 19.5t26.5 9.5q23 0 44.5 -7t41.5 -7q43 0 92 -10.5t95 -32.5q41 -23 58 -52.5t28 -60.5q20 -66 32.5 -136.5t22.5 -135.5q12 -23 14 -45.5t2 -53.5v-157q10 -86 11.5 -187.5t1.5 -197.5q0 -23 -6.5 -43.5t-6.5 -43.5q0 -41 -18.5 -82.5t-40.5 -72.5 q-10 -23 -29.5 -43.5t-40.5 -42.5q0 -10 -11 -20.5t-34 -10.5q-37 -33 -86 -53q-31 -23 -65 -26q-8 -1 -15 -1q-27 0 -61 8q-10 0 -19.5 12.5t-9.5 35.5v213v112q0 43 -1 85t-11 87v213q0 96 -7 183.5t-7 173.5v210q-12 45 -14.5 81t-2.5 79zM63 1290q10 -63 12.5 -120.5 t2.5 -122.5v-271q0 -33 8 -63.5t8 -65.5v-186q10 -74 12.5 -148.5t2.5 -150.5v-113q20 0 39.5 2t29.5 15q86 33 134 85t81 128q10 31 13.5 62.5t13.5 66.5q7 57 7 117q0 30 -2 61q-5 92 -5 190q0 76 -8.5 158t-18.5 156q0 53 -10 105t-21 95q-4 27 -13 52.5t-24.5 47t-41 37 t-64.5 19.5q-10 10 -20.5 12t-20.5 2q-33 10 -56.5 12.5t-58.5 2.5v-185z" />
<glyph unicode="E" horiz-adv-x="413" d="M-2 799q0 88 2 172t12 162v319q12 10 6 20.5t-6 20.5q0 12 9.5 21.5t19.5 9.5q23 0 44 -2t42 -13q35 0 74 -2t71 -14l15 -14q0 -10 -3 -18.5t-24 -8.5q-45 10 -96 13.5t-94 13.5q0 -174 -8 -344t-7 -336h103q10 0 18 -3t8 -26q0 -10 -8 -12t-18 -2q-23 0 -45.5 -7.5 t-57.5 -7.5q10 -176 22.5 -342t22.5 -340q29 7 61 6q17 0 33 -1q50 -5 93 -5q23 -10 42 -12t31 -2q10 0 19.5 -8t9.5 -21q-10 -10 -21.5 -12t-23.5 -2q-20 0 -41.5 2t-42.5 12q-27 7 -53 7q-18 0 -35 -3q-43 -8 -86 -18q-35 0 -40 10.5t-5 32.5q-10 78 -11 153.5t-1 149.5 q-12 90 -14.5 183.5t-2.5 181.5q0 23 -7 43t-7 43z" />
<glyph unicode="F" horiz-adv-x="495" d="M10 272q0 96 2 203t15 215v174v187q0 53 1 115.5t11 117.5q0 31 -6 62.5t-6 66.5q10 10 11 28.5t1 28.5q10 35 25.5 46.5t46.5 11.5h30h115q43 0 77 -1t66 -11q23 0 34 -9.5t11 -19.5q-10 -23 -21 -20t-24 3q-66 12 -121 20q-24 3 -47 3q-31 0 -61 -6h-45 q-10 -10 -19 -23q-4 -6 -8 -8q0 -43 -2 -86t-14 -86v-217v-203h115l16 -16q0 -10 -8 -13.5t-8 -13.5h-86q-23 0 -26 -3t-3 -25q-10 -78 -11 -155t-1 -163v-334v-102q0 -10 -4.5 -19.5t-26.5 -9.5q-10 0 -11 9.5t-1 19.5q-12 53 -14.5 110.5t-2.5 122.5z" />
<glyph unicode="G" horiz-adv-x="483" d="M20 488q7 112 19 223v131q10 78 21.5 147.5t21.5 147.5q0 45 7 89t7 87q0 66 32 111.5t87 80.5q33 10 57.5 10.5t59.5 -10.5q35 0 63.5 -12t38.5 -47q12 -10 14.5 -29.5t2.5 -30.5l-17 -14q-23 0 -25.5 2t-2.5 12q0 23 -9.5 43.5t-19.5 30.5q-35 10 -60.5 10t-58.5 -10 q-53 -23 -79.5 -66.5t-37.5 -109.5q0 -66 -7 -132.5t-7 -131.5q-10 -90 -20.5 -170t-10.5 -168q-10 -66 -12 -131.5t-2 -120.5q-6 -39 -6 -75q0 -25 3 -48q7 -57 17 -110q12 -78 61.5 -122t114.5 -57q45 0 66.5 20.5t21.5 53.5q12 35 21.5 68t9.5 65q10 43 12.5 87t2.5 89 q-23 10 -47.5 12.5t-47 4.5t-44 7t-38.5 21q0 10 9.5 17.5t19.5 -2.5h133h29q6 4 14 6q16 4 17 -6q10 0 17 -9.5t-3 -21.5q0 -66 -9.5 -130t-21.5 -118q0 -23 -2 -52.5t-12 -51.5q0 -10 -7 -25.5t-19.5 -30t-29 -23.5t-32.5 -9h-88q-33 0 -66 19.5t-65 53.5 q-45 35 -61.5 86.5t-28.5 104.5q-6 72 -6 141q0 48 3 93z" />
<glyph unicode="H" horiz-adv-x="438" d="M0 61v426v195v397v269v161q0 10 9 17.5t20 -4.5h30v-162v-252v-369q0 -10 -7 -21t-7 -24h29h252h28q10 -10 14.5 -13t16.5 -15q-10 0 -23 -9q-6 -4 -8 -6h-221h-74v-370v-220v-30q0 -10 -2 -19.5t-12 -9.5q-12 0 -20.5 2t-8.5 12t-8 21.5t-8 23.5zM309 946 q0 68 8.5 141.5t8.5 139.5v133v149q0 23 2 26t12 3t19.5 -3t9.5 -26q8 -23 8 -46q0 -11 -2 -23q-6 -34 -6 -80q0 -23 8 -51.5t8 -51.5v-104v-219v-207q0 -113 1 -230.5t11 -228.5v-178v-29q12 -23 5 -28.5t-17 -16.5q-12 0 -21.5 3.5t-9.5 25.5q-10 12 -12 31.5t-2 42.5 q0 135 -2 267t-12 265q0 66 -2 141.5t-15 153.5z" />
<glyph unicode="I" horiz-adv-x="315" d="M2 1507q12 10 15 14.5t14 14.5h100h72q12 0 15 -7t13 -7q-10 -10 -13 -19.5t-15 -9.5h-72q12 -66 14 -122t2 -122q7 -39 7 -79q0 -14 -0.5 -28.5t-0.5 -28.5q0 -40 7 -79q0 -86 2 -172t14 -172v-258q0 -76 8.5 -150.5t18.5 -150.5v-43q0 -23 2 -26t14 -3q23 0 41.5 4.5 t28.5 -18.5q-10 -23 -28.5 -26t-41.5 -3q-33 0 -65.5 -7t-65.5 -7h-57q-10 23 -2 28t30 15q23 0 44.5 2t43.5 12q0 33 -2 65t-14 64q0 76 -6 151t-6 150q0 86 -8.5 172.5t-8.5 172.5v215q-10 76 -12 157.5t-2 157.5q0 33 -6 64.5t-6 64.5h-45q-10 0 -13.5 7t-15.5 7z" />
<glyph unicode="J" horiz-adv-x="436" d="M-2 219q0 23 2 45.5t12 44.5q0 10 10.5 20.5l20.5 20.5q10 -10 19.5 -20.5t9.5 -20.5q-10 -23 -5 -43t5 -30q-10 -23 -10.5 -45.5t10.5 -57.5q20 -53 50 -75q21 -16 58 -16q17 0 37 3q31 0 53.5 29.5t32.5 75.5q33 76 38 152.5t5 162.5v319q0 76 -2 144.5t-12 146.5v144 q-10 66 -14.5 122t-14.5 109q0 10 -2 12t-12 2h-232q-10 -10 -21 -9t-24 24q0 12 17.5 14t27.5 2q66 10 128.5 14t117.5 15h29q20 -10 23 -16.5t3 -28.5q0 -23 2 -44.5t15 -56.5q0 -55 2 -117.5t12 -127.5q0 -43 7 -88.5t7 -100.5v-188q0 -43 -2 -96.5t-12 -106.5v-203 q0 -53 -9 -108.5t-22 -108.5q-10 -10 -14 -28.5t-27 -28.5q-10 -23 -37.5 -35t-50.5 -23q-32 -23 -70 -23q-1 0 -1 1q-39 0 -74 22q-20 10 -32.5 30t-22.5 42q-12 33 -16.5 65.5t-14.5 63.5z" />
<glyph unicode="K" horiz-adv-x="507" d="M-6 1458q0 10 2 20.5t12 10.5q23 10 33 3t9 -19v-218q0 -35 9 -66.5t9 -64.5v-176q0 -33 1 -71.5t11 -71.5q0 10 2 21.5t12 21.5q12 23 30.5 44t29.5 44q23 33 42 64.5t29 66.5q45 76 79 159t69 160q23 33 35 65t22 67q0 10 9.5 12t19.5 2q23 0 24.5 -16.5t-8.5 -26.5 q-12 -33 -24.5 -65.5t-34.5 -67.5q-23 -53 -51.5 -108.5t-51.5 -108.5t-44 -99.5t-44 -91.5q-10 -10 -11 -13t-1 -13q-35 -23 -31 -46.5t15 -56.5q12 -33 22 -72.5t21 -72.5q23 -66 44 -131.5t44 -130.5q23 -55 44 -111.5t44 -122.5q10 -33 28.5 -72.5t30.5 -72.5 q10 -10 8 -21.5t-24 -21.5q-10 0 -21.5 9t-21.5 19v29q-23 45 -43.5 86t-30.5 76q-10 43 -28.5 85t-28.5 75q-10 43 -29.5 86t-30.5 88q-10 53 -28.5 107.5t-28.5 109.5q-10 12 -14.5 24t-14.5 35q-23 -45 -42 -81t-29 -79v-131v-319q10 -45 11 -91t1 -100v-14q0 -10 -1 -12 t-11 -2q-23 0 -27 2t-4 12q-10 23 -7 36t-7 36v395v465v203q-10 45 -12.5 95t-2.5 95q0 33 -2 64.5t-12 64.5z" />
<glyph unicode="L" horiz-adv-x="374" d="M-2 1538h41q10 0 12 -9t2 -20q20 -76 20 -146v-17q-3 -78 -3 -164v-400v-327q0 -33 7 -67t7 -77q0 -53 7 -115.5t7 -125.5h70h129q10 0 22.5 -7.5t34.5 -7.5v-30q-33 -20 -57.5 -17.5t-56.5 2.5q-41 0 -83 7.5t-73 7.5q-23 0 -34 10t-11 20v170v101q-10 53 -13 100 t-14 100v299q0 117 7.5 242t7.5 242q0 55 -7.5 99t-7.5 87q0 10 -2 21.5t-12 21.5z" />
<glyph unicode="M" horiz-adv-x="571" d="M12 1044q0 88 7.5 184.5t7.5 196.5q0 23 -7.5 44.5t-7.5 43.5q2 2 6 9q8 8 9 20q10 -12 21 -10t24 -19q10 -23 20 -53l21 -63q23 -57 38 -111.5t37 -109.5q23 -76 50.5 -153t50.5 -155q0 8 2 17q2 6 5 14t9 14q10 43 28.5 94.5t28.5 96.5q23 76 44.5 152.5t44.5 152.5 q10 35 14 58.5t14 45.5q0 10 9.5 17.5t21.5 -4.5h29v-13q-12 -55 -14.5 -110t-2.5 -111q0 -33 -6 -73.5t-6 -85.5v-279q0 -66 -8 -131.5t-8 -130.5q0 -78 8 -162t8 -162q0 -66 6 -122t6 -113q0 -10 -1 -19.5t-11 -9.5t-23 8q-6 4 -8 8q-10 23 -12 50.5t-2 50.5v147v74 q-10 76 -12 145.5t-2 147.5v248v147q0 55 7 109.5t7 109.5q-23 -66 -44.5 -131t-43.5 -133q-10 -53 -28.5 -101t-31.5 -104q-10 0 -11 -9t-1 -19t3 -20.5t-19 -10.5q-10 0 -19.5 4t-9.5 27q-10 10 -19.5 30.5t-9.5 42.5q0 33 -2 66t-12 65q-23 66 -46.5 132.5t-57.5 132.5 q-10 33 -20.5 65.5t-20.5 65.5v-88q-8 -81 -8 -157q0 -37 2 -75q6 -112 6 -223q10 -53 11 -110.5t1 -123.5q0 -78 8 -163.5t8 -173.5v-146v-43q0 -12 -3 -20.5t-25 -8.5q-12 0 -21.5 3.5t-9.5 25.5v248q0 100 -7 198.5t-7 196.5q0 88 -7.5 175t-7.5 177z" />
<glyph unicode="N" horiz-adv-x="456" d="M8 1004v397v88v43q23 0 35 -10.5t23 -32.5q47 -111 90 -214.5t88 -213.5q23 -66 51.5 -132.5t52.5 -131.5q0 -4 2 -9q2 -6 12 -6v45q-10 66 -12 139.5t-2 139.5v235q0 35 -8 67t-8 67q0 10 2 19t14 9q23 0 33 -3t10 -25q0 -113 7.5 -222.5t7.5 -220.5v-250 q10 -66 12 -132t2 -134q10 -53 12 -108.5t2 -110.5v-250q4 -4 6 -8q4 -8 -6 -8v-29q-10 -10 -26.5 -9t-16.5 23q0 35 -7 59.5t-7 59.5v88q0 10 6 21q4 6 8 8q0 10 -7 14t-7 15v221q0 35 -2 60.5t-13 58.5q0 10 -9 22t-21 35t-23.5 54.5t-21.5 64.5q-10 45 -29.5 90 t-42.5 102q-35 88 -75 176t-74 176v-176v-397v-190q0 -57 2 -120t14 -116v-281v-30q10 -10 3 -19.5t-19 -9.5q-10 0 -19.5 9t-9.5 20v45q-10 111 -12 212t-2 199q-10 133 -12.5 258t-2.5 259z" />
<glyph unicode="O" d="M-10 549q0 33 7 65.5t7 63.5v258q0 55 -7 117.5t-7 126.5q10 53 14 108t14 109q20 104 129 129q43 0 77 -4t67 -27q63 -18 86 -84q10 -43 26.5 -87t16.5 -87q10 -63 14 -135t15 -137q0 -43 -7.5 -84t-7.5 -74v-186q0 -53 7.5 -115t7.5 -115q0 -33 -7.5 -62.5t-7.5 -52.5 q-10 -33 -20.5 -64.5t-22.5 -64.5q-9 -66 -65 -95q-41 -22 -88 -22q-16 0 -33 3q-76 23 -120 76t-67 139q0 33 -7 74t-7 84t-2 76.5t-12 66.5zM47 520q0 -33 7 -57.5t7 -56.5v-99q10 -55 27.5 -105t58.5 -83q53 -41 96 -42q3 0 5 1q46 2 86 55q33 53 45 115.5t12 128.5 q0 45 -7 87t-7 85q0 98 7 201.5t7 201.5q0 63 -9 135t-20 138q0 53 -17 104t-40 94q-20 35 -51 47.5t-64 12.5q-33 -10 -54 -20.5t-36.5 -26t-23.5 -38t-15 -59.5v-57q0 -35 -7 -65.5t-7 -63.5q0 -53 7 -115.5t7 -115.5v-201v-201h-14z" />
<glyph unicode="P" horiz-adv-x="413" d="M-4 1501v15q35 12 66.5 14t66.5 2q14 2 27 2q25 0 50 -7q38 -11 68.5 -34t51 -55.5t24.5 -71.5q45 -129 45 -236q0 -23 -7 -43t-7 -32q-12 -43 -17.5 -79t-25.5 -83q-23 -66 -67 -130.5t-99 -119.5q-20 -12 -34.5 -16.5t-37.5 -14.5q0 -66 2 -125t13 -129q0 -78 2 -155.5 t12 -167.5q0 -10 -3 -14.5t-26 -16.5q-12 0 -21 10.5t-9 20.5q0 55 -2 110.5t-15 110.5q0 68 -1 125t-11 113v237q0 45 -7 89t-7 89q-12 90 -14.5 176t-2.5 164q-10 68 -12 127.5t-2 124.5zM41 1485q10 -211 28.5 -412t30.5 -403q10 0 14.5 2t14.5 14l45.5 45.5t44.5 42.5 q55 78 75.5 164t43.5 164q4 29 4 59q0 49 -10 95q-16 76 -39 141q-12 35 -40 56.5t-50 31.5q-43 12 -80 12t-82 -12z" />
<glyph unicode="Q" horiz-adv-x="538" d="M6 254v90v158q0 78 2 156.5t12 164.5v310q0 23 7.5 51t7.5 51q0 43 9 86t19 90q10 43 41 60.5t64 39.5q23 0 36 7.5t36 7.5q180 0 202 -162q14 -43 25.5 -77t21.5 -68q0 -23 7.5 -50.5t7.5 -50.5q0 -57 -7.5 -109.5t-7.5 -95.5v-235q-10 -66 -14 -133.5t-14 -143.5 q0 -33 -9.5 -75.5t-9.5 -85.5q0 -33 -17 -57.5t-40 -59.5q0 -10 -2 -14.5t-12 -14.5q33 -45 64.5 -78.5t53.5 -68.5q10 -10 19.5 -21.5t9.5 -21.5v-29h-43q-4 2 -8 8q-6 8 -6 21q-35 33 -65.5 72.5t-53.5 72.5q-53 -41 -105 -41h-5q-54 2 -107 12q-47 10 -70.5 47t-34.5 70 q-10 35 -12 64.5t-2 52.5zM49 430q0 -33 7 -74t7 -88v-86q10 -35 25.5 -70.5t50.5 -45.5q36 -10 70 -10h14q41 3 76 38q-10 23 -23.5 44.5t-35.5 43.5q0 10 2 14.5t12 14.5q23 0 34 -3t11 -26q10 -10 19.5 -21.5t9.5 -23.5q43 45 57 88t14 86q0 78 7.5 154t7.5 141 q10 78 12 154t2 153q0 10 -7 29t-7 29v264q0 84 -43 176q-10 23 -26.5 47.5t-59.5 24.5q-23 -10 -44.5 -14.5t-43.5 -14.5q-33 -10 -59.5 -32.5t-26.5 -57.5q0 -23 -9.5 -43.5t-9.5 -42.5q-10 -55 -12 -102.5t-2 -102.5q-10 -88 -12.5 -183t-2.5 -181q0 -66 -7 -139.5 t-7 -139.5z" />
<glyph unicode="R" horiz-adv-x="442" d="M10 1472.5q6 4.5 17 16.5q43 31 95 40q15 3 30 3q37 0 75 -16q35 -20 55.5 -51t30.5 -64q23 -99 30 -187q2 -21 1 -43q0 -69 -16 -143q0 -12 -2 -22.5t-13 -20.5q0 -76 -33.5 -142.5t-66.5 -129.5v-43q10 -23 14 -44.5t15 -41.5q33 -88 57.5 -180.5t56.5 -178.5l43 -172 q12 -10 6 -21.5t-6 -21.5q-10 0 -26.5 3t-16.5 26q-10 33 -22 73t-35 85q-10 43 -20.5 86t-22.5 86q-10 43 -28.5 88t-30.5 98q-10 23 -18.5 43t-8.5 43q-23 -10 -43.5 -21.5t-42.5 -21.5v-14q-10 -23 -12 -43.5t-2 -42.5v-273v-172q0 -23 -9.5 -25.5t-19.5 -2.5t-19.5 2 t-9.5 12v143q0 98 2 184.5t13 172.5v288q7 44 7 90q0 23 -2 47q-5 70 -5 136q10 66 12 121t2 108q0 33 -7 57.5t-7 57.5v14q-23 10 -17 14.5zM70 1458q0 -10 7 -21.5t7 -23.5q0 -31 7 -62.5t7 -64.5q0 -66 -7 -129t-7 -129v-287v-86q23 23 43 36.5t43 33.5q33 66 54.5 125 t31.5 135q12 53 26 109q8 32 7 66q0 26 -4 54q-10 53 -15.5 105.5t-27.5 93.5q-10 23 -22.5 36t-35.5 24q-33 12 -57 3.5t-57 -18.5z" />
<glyph unicode="S" horiz-adv-x="487" d="M-4 231v74q0 23 16.5 26t28.5 3q10 0 12 -16.5t2 -26.5q0 -23 2 -54.5t15 -66.5q4 -23 19 -44.5t37 -37.5t45.5 -26.5t45.5 -10.5q8 0 21 8l8 9q45 45 69.5 93t36.5 113q0 45 8.5 91.5t20.5 103.5q0 84 -45 180q-10 33 -39 40t-51 20h-74q-84 18 -102 102 q0 55 -10.5 111.5t-20.5 111.5q0 35 -8 70t-8 80q0 33 8 73.5t8 73.5q10 35 20.5 59.5t10.5 47.5q10 45 39.5 66.5t62.5 21.5q35 0 66.5 -2t54.5 -13q45 0 58.5 -27.5t13.5 -62.5v-133q12 -23 -2.5 -25.5t-26.5 -2.5q-10 0 -12 9t-2 19v43q0 23 -8.5 53.5t-8.5 53.5 q-13 51 -56 51q-14 0 -32 -6q-45 0 -68.5 -23.5t-35.5 -68.5q-10 -66 -20.5 -130.5t-10.5 -121.5q12 -66 21.5 -133.5t9.5 -133.5q0 -23 8 -36t8 -25q16 -59 88 -59q35 -10 65.5 -14.5t53.5 -16.5q35 -23 49 -44.5t27 -43.5q10 -57 17 -111q3 -22 3 -46q0 -33 -6 -66 q-10 -66 -25.5 -141.5t-48.5 -141.5q-12 -35 -24.5 -56.5t-34.5 -31.5q-31 -31 -68 -31h-8q-41 4 -76 15q-33 12 -56.5 32.5t-45.5 42.5q-45 68 -45 133z" />
<glyph unicode="T" horiz-adv-x="522" d="M-6 1509q0 10 10 12.5t21 2.5q45 12 96 14t96 2q68 0 134.5 -2t133.5 -14v-15v-12h-43h-166q0 -68 8.5 -135.5t8.5 -134.5q10 -158 14 -305.5t15 -305.5q0 -45 -7.5 -99t-7.5 -109q0 -23 7.5 -45.5t7.5 -45.5v-118q10 -45 14 -80t16 -70q0 -10 -4 -19.5t-26 -9.5 q-35 -10 -47.5 0.5t-12.5 45.5q-12 68 -14 135t-2 147v133v344q0 66 -1 133.5t-12 133.5q0 80 -2 149.5t-14 134.5v105q-55 12 -101 14t-91 2h-15q-12 0 -14 6q-2 2 -2 6z" />
<glyph unicode="U" horiz-adv-x="456" d="M0 997v185v213q0 23 2 54.5t14 66.5q-4 6 -4 14q0 6 3 11t16 5q12 0 21 -9t9 -21v-76q0 -68 -2 -139.5t-12 -151.5q0 -68 7 -136.5t7 -138.5v-167v-121q0 -80 2.5 -150.5t12.5 -140.5q0 -35 9 -77t21 -77q12 -23 34 -43t44 -32q16 -12 40 -12t45.5 10t37 29.5t15.5 47.5 q10 82 19 162t9 160q0 127 -8 249t-8 238v428q0 35 -6 69t-6 69q2 6 8 14q8 16 20 16t21.5 -4t9.5 -26q12 -23 14 -53.5t2 -53.5v-350q0 -59 2 -113.5t13 -101.5v-275q0 -92 6 -183q2 -30 2 -61q0 -61 -8 -122q0 -47 -21.5 -90t-56.5 -78q-45 -23 -83 -25h-11q-33 0 -72 10 q-29 6 -50.5 19.5t-36.5 33t-26.5 45t-23.5 54.5q-10 72 -12.5 147.5t-2.5 143.5v168q-12 92 -14 183t-2 183z" />
<glyph unicode="V" horiz-adv-x="638" d="M-4 1415v31v33q12 0 23.5 -2t23.5 -17q14 -23 18.5 -48.5t14.5 -59.5q12 -84 25.5 -175.5t37.5 -175.5q10 -84 22.5 -157.5t26.5 -145.5q0 -35 7.5 -69.5t7.5 -57.5q12 -23 14 -55.5t2 -54.5q10 -49 14.5 -96.5t16.5 -96.5q12 -47 21.5 -93t9.5 -81q12 -10 12 -20 q0 -15 -27 -29q-25 0 -29 11.5t-4 23.5q-10 59 -22 118.5t-23 118.5q-14 59 -18 108.5t-16 96.5q0 37 -9.5 73t-21.5 73v77q-12 59 -23.5 130t-23.5 143q-10 35 -14.5 70.5t-18.5 70.5h18q-27 61 -40 122.5t-25 133.5zM233 45q0 37 8.5 62.5t8.5 50.5q12 37 16 71.5t15 71.5 q0 59 17 120.5t17 133.5q23 72 37.5 150.5t24.5 150.5q12 61 24.5 105.5t24.5 103.5q12 35 23.5 81t23.5 95q12 59 23.5 127t23.5 127q12 23 18.5 27t30.5 4q10 -12 12.5 -23.5t2.5 -23.5q-10 -25 -14.5 -48.5t-16.5 -48.5q-12 -72 -24.5 -143.5t-24.5 -142.5 q-10 -35 -22.5 -69t-24.5 -58q-10 -72 -22.5 -133.5t-24.5 -120.5q-25 -96 -40.5 -190.5t-39.5 -190.5q-10 -37 -12.5 -73t-2.5 -71q-12 -37 -23 -72.5t-11 -72.5l-31 -31q-12 10 -14 21q-2 6 -3 10z" />
<glyph unicode="W" horiz-adv-x="1028" d="M-12 1491q0 2 2 8q4 12 12 21q12 0 21.5 -2t9.5 -13q10 -23 19 -37t9 -36q23 -92 36.5 -182.5t27.5 -182.5q10 -55 29.5 -118.5t29.5 -121.5q23 -57 29 -112.5t16 -112.5q23 -80 36.5 -151.5t23.5 -151.5v-31q10 12 12 25.5t2 36.5q12 80 23.5 158.5t21.5 158.5 q12 78 24.5 165t22.5 167q0 33 2 66.5t13 68.5v60q12 23 14 38t2 37q0 68 9 136.5t20 134.5q0 23 17 19.5t28 -3.5q4 -4 8 -10q8 -12 8 -21v-104q23 -125 52.5 -251t54.5 -261q10 -104 23 -204.5t36 -203.5q10 -68 21.5 -143.5t23.5 -142.5q0 -10 2 -12.5t12 -2.5 q10 55 14.5 103.5t16.5 107.5q23 90 28 180.5t17 180.5q0 35 9.5 75.5t19.5 75.5q0 57 7 103.5t7 91.5q14 35 18.5 59.5t14.5 46.5q0 68 9 134.5t22 121.5q0 12 7 23.5t7 21.5h14q23 -10 27 -16t4 -29q-10 -68 -22.5 -135.5t-22.5 -134.5q-10 -70 -22.5 -137.5t-22.5 -134.5 q0 -57 -9.5 -113.5t-23.5 -112.5q0 -45 -2 -91t-12 -91q0 -55 -14.5 -111.5t-14.5 -113.5q-12 -68 -21.5 -128.5t-9.5 -127.5q0 -12 -7 -30.5t-7 -31.5h-31q-10 0 -14 8.5t-16 8.5q-10 102 -35 193t-25 183q0 23 -7 46.5t-7 58.5q-10 45 -23.5 98t-23.5 99 q-10 78 -22.5 150.5t-22.5 150.5q-10 57 -21.5 121.5t-23.5 119.5q0 23 -7.5 45.5t-7.5 44.5q0 10 -2 14.5t-12 14.5v-43q6 -28 6 -54q0 -18 -3 -35q-7 -42 -19 -77v-76q-10 -45 -14.5 -90t-14.5 -90q0 -47 -8 -91t-8 -89q-23 -92 -36.5 -182t-25.5 -183q0 -55 -7 -111.5 t-7 -113.5q-10 -12 -5 -30.5t5 -28.5v-31q-35 -10 -55.5 2t-20.5 57q-10 80 -21.5 159t-21.5 159q-12 35 -21.5 67.5t-9.5 67.5q-23 80 -38 167t-40 165q-10 35 -14 78t-14 88q-12 45 -16.5 100t-14.5 111q-10 35 -19.5 75.5t-9.5 75.5q-12 35 -21 60.5t-9 60.5z" />
<glyph unicode="X" horiz-adv-x="591" d="M2 -20v51q14 25 18.5 50t14.5 50q14 39 26.5 77t24.5 77q14 61 34.5 124.5t33.5 127.5q25 78 53.5 161.5t64.5 159.5q12 49 34 100.5t34 102.5q27 39 40 86t28 98q25 63 50 129t50 142q0 12 11 14t22 2q14 -12 16 -24.5t2 -26.5q-14 -25 -23.5 -41.5t-9.5 -42.5 q-27 -76 -51 -151t-51 -152q-12 -39 -32.5 -74t-35.5 -59q-25 -66 -42 -130.5t-42 -142.5q-37 -90 -67.5 -187.5t-67.5 -199.5q-12 -39 -16 -73.5t-17 -61.5q-14 -39 -26 -77t-25 -77q-14 -10 -25.5 -14t-25.5 -18zM70 1397v51v33q12 0 25.5 -2t25.5 -13q12 -27 22.5 -54.5 t10.5 -63.5q25 -90 51 -186.5t51 -186.5q12 -76 32.5 -154t35.5 -166q12 -27 22 -60.5t10 -57.5q14 -39 16.5 -66t2.5 -53q10 -49 23.5 -99.5t25.5 -103.5q12 -49 25.5 -91t25.5 -93q12 -14 10 -25.5t-26 -25.5q-14 0 -24.5 11t-10.5 21q-27 66 -40 128.5t-28 125.5 q-12 51 -24.5 109.5t-26.5 109.5q0 39 -10 77t-23 77q0 12 -8 32.5t-8 35.5q-14 76 -34.5 142t-35.5 144q-10 37 -21 75t-11 77q-25 63 -41.5 126.5t-42.5 125.5z" />
<glyph unicode="Y" horiz-adv-x="464" d="M6 1499q0 12 7 16.5t7 14.5q8 0 21 -8q6 -4 10 -6q10 -35 14.5 -58.5t14.5 -46.5q23 -78 52.5 -156.5t51.5 -169.5q10 -45 21.5 -89t21.5 -87q0 -10 2.5 -12t12.5 -2q10 53 22 109.5t23 111.5q23 78 37 164t36 176q0 10 4.5 26.5t26.5 16.5q23 0 26 -9t3 -20 q-23 -78 -37 -156.5t-37 -168.5q-10 -66 -29.5 -139.5t-29.5 -139.5q0 -23 -7.5 -54.5t-7.5 -63.5q-12 0 -14 -11.5t-2 -34.5q12 -68 21.5 -126t9.5 -123q0 -78 7 -147.5t7 -135.5q0 -43 7 -78t7 -69q0 -10 -2 -19.5t-12 -9.5t-21.5 3t-23.5 26q0 23 -2 54.5t-12 61.5 q0 90 -2 178.5t-13 178.5q-10 78 -13 153.5t-15 141.5q-10 57 -21.5 109t-21.5 97q-35 100 -66 199.5t-53 200.5q-12 23 -16.5 51.5t-14.5 50.5z" />
<glyph unicode="Z" horiz-adv-x="651" d="M4 27v30q23 43 43.5 89.5t30.5 101.5q10 23 26.5 52.5t16.5 51.5q23 55 43 110.5t31 110.5q12 41 30.5 77t30.5 69q23 55 43 117.5t43 117.5q35 92 67.5 179.5t65.5 175.5q23 45 45.5 85.5t42.5 75.5h-205q-55 12 -101 14.5t-91 2.5q-10 0 -21.5 8t-23.5 21 q12 10 30.5 12t30.5 2h355h73q6 0 19 -8q4 -4 8 -6v-29q-33 -55 -63.5 -110.5t-53.5 -110.5q-23 -35 -35 -75t-22 -73q-12 -33 -31.5 -73.5t-30.5 -73.5q-10 -45 -28.5 -90t-30.5 -88q-23 -55 -42 -103.5t-32 -103.5q-23 -66 -43 -132.5t-43 -131.5q-23 -55 -45 -101.5 t-45 -89.5q0 -12 -2 -31.5t-12 -29.5h59q55 0 100.5 -6.5t90.5 -6.5q47 0 90 6.5t88 6.5q23 0 35 -1t22 -12q12 0 21.5 -10t9.5 -20q0 -12 -9.5 -14.5t-21.5 -2.5h-368h-148q-23 -10 -28 -3t-15 20z" />
<glyph unicode="[" horiz-adv-x="221" d="M4 1538q8 12 23 16q6 2 10 2q23 10 48.5 12.5t59.5 2.5q14 0 18.5 -7.5t14.5 -7.5q0 -14 -2 -25t-12 -24q-14 0 -25.5 8.5t-23.5 8.5q-10 0 -21.5 -2t-11.5 -15q0 -59 9 -117.5t9 -105.5q-14 -96 -16 -190.5t-2 -186.5v-145v-158v-207v-381q0 -23 11 -26.5t22 -3.5h63 q8 0 21 -9q6 -4 10 -6q0 -25 -9.5 -28.5t-21.5 -3.5q-25 0 -55.5 2t-54.5 12q-23 0 -27 11t-4 22q0 133 -9.5 264t-9.5 274q0 49 9.5 106.5t9.5 117.5q0 35 -9.5 60.5t-9.5 49.5q14 96 16.5 190.5t2.5 190.5v221v33q-14 10 -16.5 22.5t-2.5 22.5h-14z" />
<glyph unicode="\" horiz-adv-x="247" d="M2 1516q0 8 8 20q4 6 8 10q12 0 22.5 -2t10.5 -14q10 -23 20.5 -55.5t10.5 -69.5q12 -94 22.5 -188.5t10.5 -188.5q10 -82 19 -163t9 -165q12 -37 14.5 -71.5t2.5 -69.5q12 -25 8 -55.5t8 -52.5q0 -59 2 -110.5t12 -111.5q0 -47 10.5 -94t22.5 -94q0 -12 -4 -21.5 t-29 -9.5q-23 -12 -26.5 3.5t-3.5 27.5q-12 59 -21.5 125.5t-9.5 126.5q0 59 -2 117.5t-12 115.5q0 37 -8.5 72t-8.5 70v80q-12 82 -22 154.5t-10 141.5q0 47 -7.5 84t-7.5 74q-12 72 -16 139.5t-17 124.5q0 12 -8 24.5t-8 25.5z" />
<glyph unicode="]" horiz-adv-x="296" d="M36 1555.5q7 11.5 21 11.5q23 0 53.5 -2t55.5 -17l16 -14q10 -35 12.5 -69.5t2.5 -69.5v-142q10 -70 21 -140.5t11 -141.5v-201v-281v-315q0 -47 2 -93t13 -93q0 -10 -9.5 -21.5t-23.5 -11.5q-47 -10 -73.5 -3t-51.5 21q6 12 17.5 15.5t24.5 5.5t27.5 3t26.5 7 q0 10 -8 24.5t-8 37.5q12 82 14 171t2 173q0 106 -8 210.5t-8 210.5v140q0 72 -8 149.5t-8 147.5q-12 35 -8.5 78t-8.5 79q0 23 -2 39.5t-12 40.5q0 10 -9.5 12.5t-23.5 2.5q-23 -10 -35 -3t-12 17q-10 10 -3 21.5z" />
<glyph unicode="^" horiz-adv-x="538" d="M29 1292q10 10 17 18.5t9 18.5q49 45 90 90t88 70q10 10 20.5 18.5t18.5 18.5q8 8 19 4q4 -2 8 -6q8 -20 17.5 -31.5t27.5 -22.5q25 -29 58.5 -63.5t68.5 -63.5q10 -10 17.5 -19t17.5 -17q8 -10 1 -24.5t-18 -12.5q-8 -10 -14 -6q-4 2 -8 6q-35 47 -74 87t-74 79 q-10 10 -19 14t-17 14q-10 -2 -12.5 -2t-12.5 2q-29 -27 -57.5 -52.5t-57.5 -49.5q-20 -16 -39.5 -40t-37.5 -40q-10 -2 -14.5 -8t-10.5 -4q0 10 -1 12t-11 10z" />
<glyph unicode="_" horiz-adv-x="913" d="M6 18q0 6 8 19q4 4 11 8h178q137 8 272 9t270 1h103q14 0 36.5 -3t22.5 -21q0 -10 -12 -18.5t-29 -8.5h-202h-220q-76 0 -161.5 -6t-176.5 -6h-63q-29 0 -33 3t-4 23z" />
<glyph unicode="`" horiz-adv-x="212" d="M10 1423q0 10 1 12.5t12 12.5h12q10 0 13 -1t13 -11q29 -39 56.5 -82t56.5 -80v-27q-4 -4 -8 -6q-11 -6 -19 -6q-10 10 -17 12t-7 13q-18 29 -43 62.5t-45 61.5q0 10 -7.5 19.5t-17.5 19.5z" />
<glyph unicode="a" horiz-adv-x="452" d="M2 889q-6 6 4 6q8 27 18.5 56.5t28.5 45.5q16 27 40 37t50 10q35 0 68 -9t59 -25q18 -16 27.5 -27.5t19.5 -30.5q16 -35 18.5 -68.5t2.5 -68.5q0 -29 1 -54.5t11 -49.5q4 -24 4 -46q0 -27 -6 -53q-10 -46 -10 -98q-8 -18 -9 -34.5t-1 -33.5v-198q0 -33 6 -68t16 -69 q0 -18 13.5 -29t21.5 -29q0 -8 5 -16t-5 -19q-8 0 -21.5 1t-13.5 12q-16 27 -27.5 51t-27.5 51q-39 -76 -107 -90q-26 -20 -49 -19.5t-43 19.5q-16 27 -30.5 47.5t-24.5 54.5q0 27 -7 53.5t-18 61.5q-8 37 -8 77.5t8 84.5q0 27 7.5 46t17.5 46q10 35 31.5 48t48.5 22 q25 6 49 6q20 0 39 -4q43 -8 96 -25v127q0 35 -1 66.5t-9 60.5q0 35 -1 61.5t-11 53.5q-10 35 -28.5 52t-53.5 28q-25 0 -45.5 5t-46.5 -5q-10 -10 -17.5 -19.5t-17.5 -25.5t-18.5 -41t-26.5 -41q-4 -2 -6 -4q-6 -4 -7 4q-8 0 -14 6zM50 410q-3 -22 -3 -45q0 -29 6 -58 q0 -35 11.5 -71.5t21.5 -77.5q0 -18 8 -41t27 -39q10 -10 19.5 -16.5t27.5 4.5q16 10 36.5 19t31.5 38q10 8 17 16t7 19q8 16 16.5 26.5t18.5 20.5q0 6 -6 20.5t-6 22.5q0 63 6 121.5t6 109.5q0 16 1 37t-26 21q-27 10 -52 17t-50 7q-27 0 -52.5 -16.5t-41.5 -42.5 q-16 -40 -24 -92z" />
<glyph unicode="b" horiz-adv-x="548" d="M8 1370v43q0 10 8.5 16.5t18.5 -4.5q10 0 19 -1t9 -11q0 -106 7.5 -209.5t7.5 -210.5q0 -92 1 -186t11 -189v-14q23 10 35 27.5t22 27.5q33 33 71 39.5t69 16.5h26q41 0 72 -13.5t41 -54.5q33 -33 51.5 -74t18.5 -81v-209q0 -41 -16.5 -81t-39.5 -71q-10 -20 -20 -33.5 t-21 -23.5q-33 -40 -83 -50q-11 -2 -23 -3q-41 0 -90 26q-20 10 -43 27.5t-56 29.5v-57q10 -10 3 -19.5t-17 -9.5t-18.5 3.5t-8.5 25.5q0 43 -2 78t-12 76v334q-10 74 -12 147.5t-2 159.5v180q-10 86 -13.5 170t-13.5 178zM90 520q0 -41 7 -90t7 -92v-193q10 0 21.5 -2 t21.5 -12q23 -10 49.5 -28.5t49.5 -28.5q20 -10 38.5 -16t28.5 16q23 10 34 21l22 22q23 33 42 63.5t29 61.5q0 41 2 75.5t13 77.5q0 63 -14.5 124t-55.5 114q0 10 -16.5 20.5t-26.5 20.5q-16 2 -31 2q-53 0 -93 -27q-52 -35 -83 -88q-12 -10 -23.5 -20.5t-21.5 -20.5z" />
<glyph unicode="c" horiz-adv-x="335" d="M0 197q0 51 1 101t9 99q0 51 1 108.5t12 117.5q0 59 9 116.5t36 108.5q8 16 16 38.5t16 39.5q29 60 87 59q12 0 26 -2q35 0 52.5 -22.5t27.5 -57.5q0 -16 -3.5 -19t-19.5 -3q-10 35 -27.5 51t-52.5 16q-11 5 -20 5q-24 0 -35 -38q-16 -51 -37.5 -103t-29.5 -112 q-10 -25 -11.5 -50t-1.5 -60q-8 -35 -9 -76t-1 -82q0 -60 -5 -118q-2 -20 -2 -39q0 -39 7 -78q0 -43 9 -77t36 -59q12 -12 31.5 -16t40 -1t38 13.5t25.5 26.5q8 35 9.5 55.5t1.5 44.5q0 16 1 25.5t11 9.5q8 8 15 3t7 -15q0 -35 -3 -73t-19 -73q-10 -8 -17.5 -16t-17.5 -16 q-25 -16 -51.5 -19.5t-61.5 -3.5q-16 8 -25 18.5t-20 26.5q-25 33 -40 68t-15 78z" />
<glyph unicode="d" horiz-adv-x="481" d="M-5 282q-1 13 -1 25q0 52 10 105q20 84 66.5 153.5t130.5 98.5q26 6 49 6q14 0 26 -2q34 -6 70 -15q0 -10 6 -12q4 -2 8 -2q8 41 9.5 84t1.5 84q0 86 7 164t7 164q0 53 2 97t12 85v90q0 8 2 16.5t13 8.5q12 0 21 -2.5t9 -12.5v-184q-10 -74 -12 -156t-2 -155 q-12 -98 -14 -186.5t-2 -180.5q-10 -57 -12.5 -116.5t-2.5 -112.5v-256v-70q0 -10 -9 -20.5t-19 -10.5q-8 0 -16.5 10.5t-8.5 20.5v53q-35 -29 -77 -38q-14 -3 -28 -3q-31 0 -69 13q-10 0 -26.5 9t-28.5 19q-33 12 -54.5 36t-29.5 65q-35 64 -38 128zM41 339q0 -6 -1 -13 q0 -57 17 -113q12 -35 26.5 -63.5t49.5 -51.5q18 -10 48 -21t65 -24q18 -10 38.5 -1t30.5 32h15v14l16 15l14 16v25v241v17v14v115q8 18 -5 30.5t-25 22.5q-23 23 -73 25h-13q-42 0 -72 -11q-41 -33 -64.5 -65.5t-33.5 -77.5q-31 -63 -33 -126z" />
<glyph unicode="e" horiz-adv-x="448" d="M18 291q-9 66 -9 128.5t9 119.5q0 47 6.5 86t6.5 75q10 37 12 81t12 81q0 18 1 43t12 43q10 39 31.5 71t68.5 42q28 8 61 8q10 0 20 -1q44 -3 81 -32q18 -18 28.5 -45.5t20.5 -66.5q10 -29 16 -51.5t-4 -59.5q0 -10 -7 -19.5t-17 -19.5h-74q-39 10 -82 13.5t-80 13.5 q-10 0 -20.5 -7.5t-30.5 -7.5q0 -47 -6 -93t-6 -93q-10 -37 -11.5 -71.5t-1.5 -63.5q0 -57 1 -104.5t12 -94.5q0 -90 38 -162q10 -29 34 -47t53 -28q29 0 53 15t35 36q18 10 28 26.5t21 34.5v49q0 18 15.5 26.5t33.5 -1.5q0 -37 -15.5 -74t-33.5 -75q-18 -23 -47 -38.5 t-61 -21.5t-62.5 -1t-53.5 24q-29 18 -41 44.5t-22 55.5q-10 37 -12 80t-13 82zM92 825h113q29 0 58.5 -1t66.5 -11q10 0 17 3t7 22q-10 18 -12 42.5t-12 43.5q-18 112 -148 112h-2q-10 0 -17 -1t-7 -11q-10 -18 -18.5 -30.5t-18.5 -32.5q-20 -37 -23.5 -68t-3.5 -68z" />
<glyph unicode="f" horiz-adv-x="419" d="M10 609.5q0 54.5 10 113.5q0 41 8.5 79t18.5 66q10 41 45 69t76 38q16 2 29 2q21 0 37 -5q26 -9 44.5 -26.5t33 -41t28.5 -48.5q10 -41 20.5 -80t20.5 -80v-41h-41q-4 2 -6 9q-6 6 -6 18q-10 59 -24.5 117.5t-55.5 109.5q-20 29 -55 29t-66 -29q-20 -20 -36.5 -41.5 t-16.5 -52.5q0 -49 -6.5 -107.5t-6.5 -119.5q0 -49 6.5 -99.5t6.5 -99.5q0 -31 2 -58.5t12 -47.5q41 0 80 -7.5t80 -7.5q0 -20 -8.5 -30.5t-18.5 -10.5h-41q-29 10 -50 12.5t-42 2.5q0 -80 1 -152t11 -141q0 -41 2 -89t13 -100q10 -49 19 -105t20 -108q0 -41 -39 -41 q0 10 -2 27.5t-13 28.5q-10 59 -13 112.5t-13 112.5q-20 92 -24.5 181t-14.5 179q0 92 -2 180.5t-13 168.5q-10 59 -10 113.5z" />
<glyph unicode="g" horiz-adv-x="532" d="M2 -287q0 37 6 61.5t43 37.5q12 -12 14.5 -24.5t2.5 -25.5q-6 -25 -6 -47q0 -65 55 -102q12 -25 34.5 -45.5t47.5 -20.5q37 -12 74.5 -14t74.5 -2q25 0 45.5 20.5t20.5 45.5q12 76 22 141t10 139q12 61 14.5 122.5t2.5 123.5q0 37 -8.5 77t-8.5 89v147v33l-49 -49 q-49 -37 -107.5 -37t-107.5 37q-37 12 -61.5 26.5t-36.5 38.5q-25 49 -37 90t-12 91q-7 27 -7 51q0 20 5 38q10 40 35 76q37 74 100 103q23 11 51 11q49 0 113 -32q25 0 49.5 -16t48.5 -16q12 12 6 26.5t-6 38.5q-10 0 -14 17q-2 8 -2 16q12 12 24.5 14t24.5 2q4 -4 8 -10 q8 -12 8 -22q0 -61 2 -114.5t15 -117.5v-246q0 -49 8 -98t8 -98v-150q0 -98 -2 -196.5t-14 -196.5q0 -37 -2 -75t-15 -74q-25 -61 -57.5 -88t-106.5 -27q-37 0 -72.5 2t-60.5 14q-25 0 -49 18.5t-49 30.5q-37 37 -59.5 76t-22.5 90zM84 666q6 -31 11 -61t15.5 -56.5t31 -47 t57.5 -32.5q12 -12 24.5 -16t24.5 -17q19 -6 39 -6q21 0 43 6q43 13 67 49q25 12 29 37t4 62v49q0 25 8 57.5t8 59.5q0 12 -2 16t-14 16h16h-16q0 25 -22.5 47.5t-59.5 34.5h-16q-25 12 -49.5 16.5t-51.5 16.5q-12 0 -32.5 -2t-32.5 -14q-49 -49 -72 -101q-14 -33 -14 -72 q0 -20 4 -42z" />
<glyph unicode="h" horiz-adv-x="475" d="M0 1405q0 10 2 19.5t12 9.5q10 10 19.5 9t9.5 -24q10 -33 19.5 -73.5t9.5 -83.5q0 -74 2 -141.5t12 -143.5q0 -53 2 -105.5t12 -93.5q10 0 30 9.5t42 19.5q41 10 84 17q18 3 35 3l51 -6q33 -10 52.5 -38.5t19.5 -61.5q10 -66 12 -129.5t2 -128.5q0 -41 -7 -86t-7 -98 v-173v-57q0 -23 -16.5 -26t-26.5 -3q-4 2 -9 9q-6 8 -6 20v144q0 43 7.5 93t7.5 93v242q0 33 -2 62.5t-13 51.5q-10 33 -31.5 45.5t-54.5 12.5q-23 -10 -42 -14.5t-42 -14.5q-23 0 -43 -9.5t-43 -19.5v-186v-356q10 -33 12.5 -67t2.5 -77q10 -10 3 -19.5t-18 -9.5 q-10 -10 -19 -2.5t-9 17.5q-10 76 -12.5 148.5t-2.5 138.5q0 74 -7 155.5t-7 157.5v186q-10 74 -14 158t-15 170v227q0 8 -8 21q-4 6 -6 8z" />
<glyph unicode="i" horiz-adv-x="167" d="M0 1094v24q0 20 16.5 35.5t36.5 5.5q10 0 12.5 -2t12.5 -12q20 -20 20 -32.5t-20 -33.5q-18 -10 -43 -8t-35 23zM39 963q0 39 6 43.5t47 -5.5v-104q10 -59 11 -118.5t1 -119.5q0 -88 7.5 -169.5t7.5 -170.5v-223q0 -20 1 -32.5t11 -32.5q0 -20 -14.5 -28.5t-24.5 1.5 q-10 0 -12 6q-2 4 -2 8v156q-10 49 -11 98.5t-1 98.5v118q0 78 -6.5 158t-6.5 158q0 39 -2 78t-12 80z" />
<glyph unicode="j" horiz-adv-x="364" d="M-8 -311q10 -20 18 -38t8 -28q20 -41 45 -70.5t76 -52.5q14 -4 32.5 -4t36 6t32 19.5t18.5 34.5q10 20 19.5 48.5t9.5 57.5q10 31 13 61.5t13 71.5q0 10 -5 26.5t5 28.5q7 26 7 49q0 12 -2 23q-5 33 -5 74q10 10 11.5 20.5t1.5 20.5v80v186q0 41 -6.5 80t-6.5 80 q-10 41 -18 82t-8 92t-2 107.5t-13 107.5v51q0 23 -2 41.5t-12 38.5q0 23 -9 26t-30 3q-10 -10 -5 -20.5t5 -20.5v-27v-80q0 -41 6 -89t6 -97v-80v-16q0 -18 2.5 -29.5t12.5 -22.5v-28q0 -49 13 -100.5t13 -112.5q10 0 5 -1t-5 -12v-239v-94q0 -59 -8 -120t-18 -120 q0 -31 -8.5 -67.5t-18.5 -67.5q-10 -29 -28.5 -33t-38.5 6q-18 10 -37 28.5t-29 39.5q-10 20 -20.5 47t-20.5 47q-10 18 -20.5 15t-20.5 -3t-11 -8t-1 -18zM178 1104q10 10 20.5 18t20.5 8q20 0 36.5 -14t16.5 -24t-15 -25.5t-26 -15.5q-18 0 -35.5 16t-17.5 37z" />
<glyph unicode="k" horiz-adv-x="366" d="M8 973q0 23 10 22q35 18 35 -10q16 -59 19.5 -120.5t3.5 -121.5v-264q16 35 28.5 77t28.5 85q10 35 23.5 71t23.5 79q8 25 16.5 57.5t16.5 66.5q18 35 35 70q0 16 9 19.5t26 3.5q0 -10 6 -12.5t6 -10.5q-18 -53 -41 -103.5t-41 -103.5q-16 -59 -33.5 -112.5t-34.5 -104.5 q0 -18 -6 -27.5t-6 -19.5q10 -8 12 -15t11 -7q10 -35 23.5 -62t23.5 -53q16 -43 33.5 -92t33.5 -92q10 -35 23.5 -69t23.5 -69q8 -8 9.5 -16t1.5 -19q10 -16 -1.5 -19t-21.5 -3q-8 -8 -9 -3t-1 15q-18 51 -35.5 95.5t-34.5 87.5q-27 61 -46 119.5t-46 109.5q0 10 -5 20.5 t-5 26.5q-10 -10 -11 -12t-1 -11q-10 -18 -12.5 -35.5t-10.5 -33.5q-16 -27 -19 -59.5t-3 -67.5q0 -51 1 -101.5t9 -93.5v-22q0 -23 -23 -23q-16 0 -19 3t-3 20q-10 70 -11.5 132t-1.5 132q0 59 6.5 114.5t6.5 114.5v252q0 53 -3 98.5t-20 96.5z" />
<glyph unicode="l" horiz-adv-x="126" d="M-6 1400.5q6 8.5 16 8.5q20 20 43 0v-82q10 -31 11.5 -68.5t1.5 -68.5q0 -53 7 -106.5t7 -116.5v-219v-209q0 -31 -2 -62t-12 -61q0 -94 -4 -186v-25q0 -78 18 -150q0 -23 -8.5 -26.5t-18.5 -14.5q-43 0 -43 41v82v195q0 53 7.5 97t7.5 95v111v180q0 23 -2.5 49.5 t-12.5 46.5h15q-10 94 -12.5 193.5t-2.5 195.5q0 20 -1 46t-11 36t-4 18.5z" />
<glyph unicode="m" horiz-adv-x="722" d="M0 1059q0 10 13.5 11t23.5 1q8 10 9 4t1 -16q10 -35 11 -71t1 -73v-22q18 45 40 80t57 63q32 19 67 19q15 1 31 -3q53 -12 80 -65q0 -16 7 -32.5t17 -26.5q0 10 7.5 18t17.5 19q18 27 45 38t61 21q29 0 49.5 -1t47.5 -11q18 0 33.5 -15.5t25.5 -31.5q10 -29 17.5 -61 t7.5 -60v-119q9 -37 9 -73t-9 -70v-215q0 -47 -6.5 -97.5t-6.5 -95.5v-156q0 -10 -3 -16t-21 -6q-10 0 -10 22q0 29 -6.5 54.5t-6.5 54.5q10 35 11.5 77t1.5 79q0 27 1 47t9 47v108v252q0 45 -6 88t-17 78q0 18 -7 34.5t-17 27.5q-10 8 -20.5 15t-26.5 7q-18 0 -38 -6 t-46 -6q-4 0 -8.5 -2t-8.5 -4l-8 -4q-16 -29 -28.5 -48.5t-30.5 -35.5q-18 -29 -15.5 -54.5t2.5 -54.5q-10 -72 -17 -144.5t-7 -154.5v-274v-131q0 -18 -6 -22.5t-17 -14.5q-18 0 -21 7t-3 17v72v84v190q10 72 11 151t1 161q0 18 6 35.5t6 35.5q0 52 2 98v7q0 42 -26 76 q-10 27 -26.5 42t-45.5 5q-10 0 -18.5 -1t-16.5 -12q-37 -27 -52 -61.5t-32 -69.5q-10 -10 -11 -12t-1 -12q-10 -10 -12 -23.5t-13 -23.5q0 -45 6.5 -95.5t6.5 -97.5q-10 -45 -11.5 -91t-1.5 -99v-252v-94q0 -10 -1 -17.5t-11 -7.5q-8 -10 -21.5 -4t-13.5 16v346 q0 29 6.5 61t6.5 60v107v84v118q-10 29 -11.5 63t-1.5 71v34q0 18 -6 34t-6 26z" />
<glyph unicode="n" horiz-adv-x="423" d="M8 1008v10q-23 18 0 37q18 0 27.5 -3t9.5 -22q8 -29 11.5 -56t13.5 -56q10 10 18 19t18 19q29 29 60 52.5t80 33.5q35 0 63.5 -16t46.5 -45q10 -29 17.5 -58.5t7.5 -66.5q0 -47 6 -93t6 -93q0 -66 -6 -125.5t-6 -124.5q0 -47 -5 -95.5t-5 -103.5v-174v-39h-39l-13 12 q0 37 6.5 67t6.5 58v189q0 55 1 110.5t11 112.5v113v135q0 29 -6 63.5t-6 61.5q-4 2 -6 8q-6 6 -7 18q-20 38 -53 46q-7 2 -14 2q-27 0 -57 -23q-37 -29 -67 -63.5t-58 -73.5v-13v-286v-262q-7 -38 -7 -75q0 -20 2 -38q5 -56 5 -113v-49q-10 -10 -18.5 -11t-18.5 -1t-11.5 7 t-1.5 17v263v198q7 44 7 87q0 22 -2 44q-5 64 -5 119v88q0 47 -6 94.5t-6 94.5z" />
<glyph unicode="o" horiz-adv-x="405" d="M10 744q4 80 39 159q18 41 47 67.5t82 37.5q16 8 40 9.5t42 0.5q8 0 16.5 -5t18.5 -5q25 -45 36 -97.5t19 -111.5q0 -53 6 -104.5t6 -104.5v-70h13v-266q-10 -43 -12.5 -79t-12.5 -71q-16 -43 -42.5 -64.5t-71.5 -39.5q-19 -3 -37 -3q-63 0 -115 38q-16 18 -26.5 35.5 t-18.5 44.5q-17 71 -19 139q0 8 -1 17q0 59 10 110q0 53 -7.5 103.5t-7.5 93.5q-5 57 -5 112q0 27 1 54zM49 682q0 -43 7 -92t7 -92v-219q0 -35 1.5 -69t9.5 -60q8 -53 33.5 -79t70.5 -36q18 -4 40 0t42.5 15t35.5 27.5t19 37.5q0 45 6.5 81.5t6.5 82.5v231v68 q-10 72 -16.5 139t-6.5 139q-8 27 -17 52.5t-18 49.5q-8 10 -17 12.5t-17 2.5q-18 15 -35 15l-35 -15h-10q-29 -18 -45.5 -36.5t-26.5 -45.5q-16 -53 -25.5 -104.5t-9.5 -104.5z" />
<glyph unicode="p" horiz-adv-x="501" d="M2 1032q0 10 2 12.5t14 2.5q23 25 48 0q0 -23 2 -48.5t12 -48.5v-47v-112q39 23 66.5 48t62.5 48q31 18 65 21q8 1 16 1q26 0 49 -8q30 -10 52.5 -33.5t28.5 -60.5q10 -37 14 -73t17 -72v-64v-192q0 -35 -8.5 -71t-8.5 -75q-12 -29 -36.5 -51.5t-56.5 -34.5 q-30 -11 -61 -11h-6q-34 1 -65 19q-23 12 -39 31.5t-39 32.5q10 -72 12 -154t2 -168v-239q0 -35 2.5 -71t14.5 -75q12 -10 4 -22.5t-21 -24.5q-23 0 -35 4t-12 29q0 59 -2 119.5t-16 119.5v259v176q-10 72 -14.5 135t-16.5 137q0 86 -8 170t-8 180q0 49 -9.5 99.5 t-21.5 111.5zM98 678q12 -98 16.5 -184t16.5 -183q10 0 12 2.5t2 12.5q25 -23 39.5 -46.5t24.5 -33.5q27 -12 53 -26q9 -5 20 -5q18 0 40 14q25 0 36 17.5t11 32.5q14 59 18 109t16 97q0 35 -8 82t-8 95q0 25 -2 59.5t-16 69.5q-30 64 -83 64q-28 0 -61 -17 q-35 -23 -59.5 -49.5t-34.5 -61.5q-10 0 -14 -8q-2 -4 -2 -8q-12 0 -14.5 -10.5t-2.5 -22.5z" />
<glyph unicode="q" d="M20 294q5 54 5 107v166q10 51 20 102.5t21 104.5q0 31 8 61.5t18 63.5q10 41 40 63.5t71 32.5t90 15q10 2 20 2q38 0 70 -17q10 0 20.5 -9t20.5 -19q2 -4 6 -9q8 -12 8 -18q0 -84 -2 -173t-12 -173q0 -41 -6 -90t-6 -90v-152q0 -84 -7.5 -166t-7.5 -166v-192v-96v-113 q0 -10 -3 -19.5t-25 -19.5q-10 0 -18.5 8t-8.5 19q0 61 7 123.5t7 123.5q0 33 -7 72t-7 82q-53 -23 -110 -35q-16 -3 -31 -3q-41 0 -80 24q-31 20 -52.5 50t-31.5 60q0 41 -6 82t-6 84q-7 41 -7 78q0 19 2 36zM66 207q0 -41 7 -81t7 -71q10 -31 16 -53t37 -45q32 -28 68 -28 h3q38 1 68 1q20 10 40 20.5t30 22.5q10 61 12 130t2 133q0 31 6.5 61.5t6.5 60.5v84q0 53 2 95.5t12 83.5v153v152q0 20 -8 25t-19 16q-31 10 -69.5 10t-69.5 -10q-20 -10 -46 -23.5t-38 -44.5q0 -33 -8 -63.5t-19 -61.5q-10 -63 -20 -126.5t-20 -135.5v-111v-194z" />
<glyph unicode="r" horiz-adv-x="393" d="M8 983q0 10 2 18.5t13 8.5q8 0 17 -3t17 -24q0 -18 7.5 -43.5t7.5 -54.5q18 18 28.5 36.5t20.5 36.5q27 40 69 56q26 10 54 10q17 0 35 -4q18 0 39.5 -16.5t21.5 -45.5t7 -49t7 -49q0 -18 -6 -26.5t-45 -8.5v84v37q-10 29 -29.5 38t-56.5 -1q-29 -10 -52.5 -29.5 t-33.5 -56.5q-8 -29 -23.5 -49.5t-25.5 -46.5v-39q10 -55 13 -112.5t11 -123.5q0 -45 8.5 -96t16.5 -98v-172v-123q0 -10 -1 -19.5t-9 -19.5q-18 0 -28.5 3t-10.5 22v38v99v147q0 47 -7 98.5t-18 98.5q0 35 -1 79t-9 81q-10 74 -17 140t-7 130q-10 10 -12.5 24.5t-2.5 24.5z " />
<glyph unicode="s" horiz-adv-x="417" d="M4 182v33q0 16 7 19.5t16 3.5q14 8 14 0q0 -4 -2 -11q0 -16 1 -33.5t9 -35.5q0 -10 1 -17.5t11 -17.5q16 -25 36 -47.5t44 -30.5q21 -9 40 -9q21 0 42 10q39 20 56 54q10 27 17 51.5t17 41.5q8 51 15.5 96t7.5 98q0 16 -6 40t-6 40q-8 43 -38 67.5t-65 24.5 q-78 8 -122 55.5t-60 114.5q-10 35 -10 75t10 75q8 53 34.5 86.5t80.5 50.5q35 10 68.5 11t68.5 1q25 0 36 -14.5t19 -30.5q10 -27 12 -58.5t11 -56.5q0 -23 -23 -22q-16 0 -14 6t-8 16q0 25 -6.5 52.5t-16.5 62.5l-22 10q-35 0 -63 3h-9q-24 0 -53 -13q-27 -16 -43.5 -42 t-26.5 -50q-10 -16 -11 -34t-1 -34q0 -94 37 -161q25 -27 53 -48.5t71 -21.5q51 0 89 -31t47 -82v-137q0 -29 -1 -59.5t-10 -55.5q-10 -43 -19 -80.5t-26 -78.5q-16 -16 -34.5 -26.5t-45.5 -21.5q-18 -10 -41.5 -11t-50.5 -1q-16 0 -37.5 9.5t-31.5 27.5q-16 8 -25.5 21.5 t-19.5 23.5q-16 16 -19.5 40t-3.5 52z" />
<glyph unicode="t" horiz-adv-x="403" d="M-8 1051q0 10 6 16l8 8q37 0 66.5 6t58.5 6h27v152q0 10 7 18.5t17 8.5t12.5 -8.5t12.5 -18.5v-139v-25q18 0 38.5 5t39.5 -5h75q10 0 16.5 -8t-3.5 -16q0 -10 -13.5 -16.5t-13.5 1.5q-29 10 -58.5 5t-66.5 -5q-4 0 -8 -2q-6 -4 -6 -8v-90v-164q0 -59 -6 -115.5 t-6 -113.5v-215v-191q-10 -29 -11.5 -57.5t-1.5 -56.5q0 -18 -3 -21.5t-21 -3.5q-10 0 -11.5 3t-1.5 22v102q0 76 1 158t12 157v203v205q0 47 1 88t11 90v25q-39 0 -68.5 -2t-58.5 -13h-25q-12 0 -18 6q-6 4 -8 9z" />
<glyph unicode="u" horiz-adv-x="393" d="M18 342v221q10 78 16.5 157t6.5 157q10 35 11 63.5t1 63.5q0 10 1 17t12 7q8 0 20 -7t12 -17q-10 -27 -11 -51.5t-1 -53.5q0 -86 -10 -166t-10 -158q0 -70 -6 -140q-2 -23 -1 -47q0 -47 7 -93q0 -35 6 -71t14 -81q10 -16 14 -33.5t23 -35.5q16 -16 51 -24.5t53 1.5 q51 33 80 80v59q0 35 1 76t11 76v45v281q-1 36 5 64q2 10 2 19q0 20 -7 44v174v47q27 10 31 7t4 -30q10 -72 11.5 -133t1.5 -123v-338v-57q-10 -45 -11.5 -87t-1.5 -87q-10 -35 -11 -72t-1 -80q10 -8 -1 -15t-22 -7q-4 4 -6 8q-6 6 -6 14q-8 8 -4 18.5t4 28.5 q-16 -10 -33.5 -18t-33.5 -18q-10 0 -18.5 -5.5t-18.5 -5.5q-25 0 -55.5 4.5t-49.5 30.5q-16 10 -25.5 25.5t-19.5 34.5q-17 59 -31 115q-9 33 -8 67q0 24 4 49z" />
<glyph unicode="v" horiz-adv-x="329" d="M0 997q0 8 6 10.5t6 12.5h11q10 -10 12 -23.5t10 -21.5q10 -53 17.5 -95t15.5 -85q16 -76 27.5 -143.5t29.5 -137.5q8 -41 16.5 -78t16.5 -78q10 -41 17.5 -89t17.5 -89v-22q6 33 7 64.5t1 58.5q10 59 12 116.5t10 106.5q0 35 -4 61.5t4 50.5q0 51 6.5 95.5t6.5 95.5v98 q0 27 1 52.5t11 50.5h10q16 10 19.5 4t3.5 -15q0 -35 -5 -67.5t-5 -55.5v-34q0 -51 -1 -94.5t-12 -86.5v-133q0 -59 -5 -117.5t-5 -117.5q-10 -68 -17 -134.5t-8 -133.5q0 -33 -22 -33q-6 0 -13.5 6t-7.5 16q-8 35 -15 61.5t-7 61.5q-8 43 -16.5 91t-16.5 100q-10 25 -12 49 t-12 51q-8 59 -22.5 124.5t-31.5 133.5q-10 57 -23.5 110.5t-21.5 110.5q-10 27 -11 46.5t-1 45.5z" />
<glyph unicode="w" horiz-adv-x="659" d="M12 985q-18 35 11 35h20q84 -207 139.5 -424t114.5 -432q0 16 4 24.5t4 18.5q0 66 6 126t6 128q8 55 10.5 118.5t12.5 120.5q0 57 7 112.5t15 109.5v73q0 6 3 13q4 12 10 12t13 -3t7 -22q8 -23 9.5 -42t1.5 -44q10 -33 12 -73.5t8 -81.5q0 -49 6 -97.5t6 -99.5 q10 -66 20.5 -136.5t37.5 -135.5q6 -41 14 -84t16 -84q0 -2 2 -4q4 -4 11 -4v75q6 43 7 81t1 71q0 43 1 85t11 83v219v86q0 27 6 46t6 44v53q0 16 18.5 29.5t35.5 13.5l6 -6l4 -8t2 -8q0 -6 -3 -20.5t-20 -30.5q0 -6 -2 -13q-4 -16 -10 -22v-86q-6 -27 -7 -50.5t-1 -39.5 v-187v-131q-10 -76 -12 -149.5t-11 -147.5v-53q0 -10 -17 -22.5t-28 -12.5q-4 4 -5 8t-3 9q-2 4 -2 6q-10 33 -16 59.5t-17 50.5l-16 66t-16 65q-10 47 -18.5 102.5t-14.5 106.5q-10 66 -17.5 124.5t-17.5 117.5v22q-6 -16 -7 -32.5t-1 -32.5q-10 -74 -12.5 -155t-10.5 -154 q0 -41 -1 -81t-11 -75q0 -39 -1 -74t-11 -67q0 -8 -3 -20.5t-20 -22.5q-16 0 -18 7t-2 13q-8 16 -9.5 31.5t-1.5 26.5q-10 33 -22 65.5t-21 67.5q-10 55 -24 107t-31 112q-16 66 -33.5 136.5t-44.5 135.5q-16 41 -27.5 87t-27.5 89q-6 16 -14.5 38t-16.5 38z" />
<glyph unicode="x" horiz-adv-x="493" d="M15.5 -3q-5.5 5 2.5 15q0 16 7.5 32.5t15.5 33.5q16 41 32.5 74.5t32.5 74.5q25 49 44.5 104.5t42.5 104.5q16 23 18 46.5t-6 49.5q-16 57 -33.5 108.5t-44.5 107.5q-16 43 -32.5 82.5t-33.5 80.5q0 10 -4 22.5t-4 20.5q-18 16 0 35q6 0 14.5 -1t16.5 -11q0 -16 6 -25.5 t6 -19.5q16 -31 32.5 -62.5t33.5 -64.5q8 -16 10 -39t12 -39q6 -41 19.5 -75t23.5 -66q8 -16 10.5 -26.5t8.5 -27.5q10 23 17 48.5t18 48.5q8 16 15 26.5t7 18.5q6 33 24.5 64.5t18.5 66.5q8 41 28.5 86t37.5 86q8 10 9 16t1 17q10 8 13.5 14t19.5 -4q10 0 10 -23 q-16 -33 -30.5 -64.5t-22.5 -62.5q-10 -10 -12.5 -25.5t-10.5 -31.5v-20q-33 -53 -33 -99q-25 -55 -48 -106t-40 -111q-8 -16 -4 -31.5t4 -31.5q16 -59 32.5 -110.5t33.5 -106.5q10 -41 18 -75t25 -67q0 -10 6 -18t6 -25q18 -23 0 -22q-10 0 -21.5 1t-11.5 9 q-16 59 -37.5 110.5t-37.5 106.5q-10 49 -18.5 92t-24.5 92q0 2 -2 7q-6 6 -9 6q-10 -27 -17 -45.5t-17 -40.5q-33 -59 -57.5 -117.5t-51.5 -124.5q-8 -16 -10 -32.5t-13 -33.5q0 -16 -7 -18t-23 -2q-10 -8 -15.5 -3z" />
<glyph unicode="y" horiz-adv-x="503" d="M0 -272q0 37 27 36q20 0 23 -14t3 -22q0 -41 7.5 -88.5t17.5 -88.5q20 -29 44 -37q6 -2 14 -2q20 0 50 15q39 10 69 43t50 63q41 47 54.5 105.5t13.5 118.5q8 41 16 80.5t8 80.5v211q10 41 11.5 81t1.5 79q-20 -8 -30.5 -9t-21.5 -1q-29 -7 -55 -7q-19 0 -37 4 q-41 9 -80 27q-23 20 -34 48t-21 57q0 51 -8 101t-19 100v198v82q0 18 3.5 21.5t23.5 3.5q10 0 18.5 -2t8.5 -13v-170q0 -82 3 -168t25 -163q4 -20 20.5 -40t38 -34t47 -20.5t50.5 -0.5q12 10 28.5 5t26.5 -5v291q0 51 -7 101.5t-7 99.5q0 20 -1 39.5t-9 38.5q0 12 1 24.5 t9 1.5q10 0 25.5 -1t15.5 -9q0 -72 6 -140.5t6 -139.5q10 -70 12.5 -138.5t2.5 -128.5v-213q0 -78 -7.5 -148.5t-7.5 -141.5q-10 -61 -19 -121t-20 -121q0 -8 -8 -25.5t-16 -38.5q-31 -41 -65 -76.5t-85 -56.5q-39 -20 -77 -25q-5 -1 -10 -1q-31 0 -58 26q-18 10 -23.5 20.5 t-17.5 20.5q-18 47 -27.5 91t-9.5 96z" />
<glyph unicode="z" horiz-adv-x="604" d="M14.5 27.5q-6.5 13.5 1.5 29.5q33 59 60.5 114.5t60.5 104.5q23 57 53.5 113.5t53.5 116.5q27 39 45 77t43 72q25 41 47 77t39 75q16 16 25.5 34.5t19.5 41.5q16 16 24.5 32.5t18.5 32.5h-154h-108q-16 0 -19.5 7.5t-3.5 15.5q0 6 6 12q2 4 6 8h66q57 0 114.5 1t123.5 9 q16 0 24 -18t-2 -35q-16 -16 -24.5 -32.5t-18.5 -32.5q-25 -33 -43 -66t-45 -61q-47 -84 -91 -165t-93 -165q-41 -90 -86 -178t-86 -176q-10 -10 -11.5 -13.5t-1.5 -9.5h43q59 0 115.5 1t114.5 7h55q14 0 16.5 -5t2.5 -15q10 -16 -0.5 -19.5t-18.5 -3.5q-59 0 -115.5 -1 t-111.5 -9h-88q-10 0 -17.5 1t-17.5 9q-16 0 -22.5 13.5z" />
<glyph unicode="{" horiz-adv-x="364" d="M9 831q3 5 38 5q35 12 56.5 34.5t21.5 59.5q20 68 8 137.5t-24 136.5q0 35 -8.5 70t-8.5 69v91q0 37 23.5 55t70.5 6q12 0 15.5 -1t13.5 -11q12 0 20 -4t-4 -29h-45q-25 12 -35 3t-10 -32q10 -47 13.5 -100t15.5 -100q12 -80 20.5 -160t-4.5 -148q-12 -25 -23 -48 t-22 -58q35 -12 48.5 -44t13.5 -79q-12 -104 -14.5 -200.5t-2.5 -200.5q0 -47 8.5 -92.5t8.5 -92.5q10 -23 15 -36t30 -25q12 0 20 2t8 14q12 12 34 10t44 -26q-12 -10 -22 -21.5t-23 -23.5q-25 0 -54.5 2t-51.5 14q-37 23 -49.5 63t-12.5 74q-25 135 0 293v152v94 q0 55 -27.5 87t-95.5 20q-12 35 -9 40z" />
<glyph unicode="|" horiz-adv-x="137" d="M10 1200v264q0 23 4 29t27 18q12 0 21.5 -10t9.5 -20v-95v-309q0 -94 2 -185t14 -173v-326v-250v-108q0 -23 -17.5 -27t-29.5 -4q-10 0 -12 10.5t-2 20.5q10 47 12 93t2 93q-10 94 -12 187.5t-2 185.5v233q0 94 -2 187.5t-15 185.5z" />
<glyph unicode="}" horiz-adv-x="368" d="M-2 1476.5q0 10.5 12 22.5q25 25 66 35t65 -2q35 -12 51.5 -37t28.5 -59q12 -86 6 -171t-6 -171q12 -61 28.5 -112.5t53.5 -100.5q12 -12 10 -24.5t-26 -25.5q-18 -12 -28.5 -22t-14.5 -23.5t-5 -33t-1 -50.5q12 -37 14 -65.5t2 -65.5q12 -74 14 -146.5t2 -145.5 q12 -49 16.5 -100.5t16.5 -110.5q0 -12 -20.5 -33t-44.5 -33q-37 -12 -73 -2t-73 35v16q12 0 16.5 8.5t16.5 8.5t23.5 -8.5t23.5 -8.5q37 -12 51.5 6.5t14.5 42.5q0 25 -8.5 59t-8.5 70v115q-12 49 -14 97t-2 98v65q-12 37 -14.5 65.5t-2.5 65.5q-26 78 50 129 q-12 25 -22.5 39.5t-10.5 26.5q-37 61 -35 122.5t2 121.5v163q0 25 -2 57.5t-14 55.5q-10 25 -35 33t-62 -17h-49q-12 0 -12 10.5z" />
<glyph unicode="~" horiz-adv-x="460" d="M12 1530q0 47 14.5 88t61.5 63q23 10 53.5 8.5t53.5 -24.5q10 -10 29.5 -21.5t29.5 -23.5q23 -23 44 -27t38.5 4.5t28 26.5t10.5 41q0 12 9 23.5t22 23.5q10 0 20 -4t10 -27t-11 -47t-29.5 -44.5t-43 -33t-53.5 -12.5q-23 -10 -38 -3t-38 20l-59 59q-23 23 -51.5 21.5 t-38.5 -35.5q0 -8 -8 -21q-4 -6 -9 -10q0 -45 -45 -45z" />
<glyph unicode="&#xa1;" horiz-adv-x="161" d="M6 1475q0 33 10.5 45t32.5 12q31 0 43 -10.5t12 -32.5q0 -20 -17 -37.5t-38 -17.5q-43 0 -43 41zM46 1416.5q7 2.5 17 2.5q20 0 23.5 -3t3.5 -25q0 -23 7 -51.5t7 -61.5v-297v-422q0 -86 7.5 -169t7.5 -169v-155q0 -4 -2 -9q-4 -6 -13 -6q-10 -10 -19 -9t-9 24 q-10 10 -11.5 28.5t-1.5 40.5v170v127v29v225q0 74 -2 140.5t-12 142.5q0 53 5 98t-5 98v226q-10 23 -3 25.5z" />
<glyph unicode="&#xa2;" horiz-adv-x="362" d="M10 582v342q10 53 21.5 116.5t21.5 126.5q10 45 28.5 87t29.5 85q10 23 21 35t22 23q23 23 25.5 37t2.5 34q-10 23 -12 37.5t-2 34.5q0 10 3 19.5t26 9.5q10 0 19 -3t9 -26v-98q53 0 79 -35t36 -68q0 -23 -2 -25.5t-12 -2.5q-23 -10 -26 -3t-3 17q-10 10 -14 28.5 t-15 28.5q-23 10 -42 16.5t-29 -16.5q-10 -33 -28.5 -57.5t-29.5 -54.5q-10 -45 -21.5 -81t-21.5 -79q-10 -74 -19 -157t-9 -156q0 -43 -7.5 -89t-7.5 -100q6 -31 7 -62.5t4.5 -64t9.5 -64.5t22 -65q10 -23 17.5 -49.5t40.5 -36.5q23 -12 43 -19t43 3q23 12 25.5 33.5 t2.5 54.5q0 2 2 8q4 12 13 21h26q4 -2 8 -9q8 -12 9 -20q0 -33 -5.5 -55.5t-37.5 -44.5q-23 -10 -38 -21.5t-48 -21.5v-101v-43q0 -23 -9.5 -25.5t-19.5 -2.5q-23 0 -24 9t10 19v127q0 12 -2 23.5t-13 21.5q-43 20 -66.5 53t-33.5 76q-23 53 -26 108.5t-3 121.5z" />
<glyph unicode="&#xa3;" horiz-adv-x="604" d="M-2 784q12 12 30.5 14.5t30.5 2.5q35 0 41 5t6 40q-12 82 -14 172t-2 182q0 59 4 126t29 136q10 25 32.5 43.5t57.5 18.5q23 0 45.5 -13.5t32.5 -48.5q0 -12 2 -21t12 -9q0 -12 -2 -14.5t-12 -2.5q0 -10 -7.5 -10t-7.5 10l-16 17q-10 8 -14 20q-2 6 -2 10 q-10 25 -29.5 25t-32.5 -25q-23 -35 -35 -70.5t-12 -82.5q0 -70 2 -149t15 -161v-198h139q23 0 34 -4t11 -29t-45 -45l-15 14q0 10 -8 15q-4 2 -8 2h-92v-215v-154q0 -59 -10.5 -106.5t-22.5 -94.5q-10 -12 -11 -30.5t-1 -30.5q57 35 114.5 19.5t114.5 -50.5 q23 -25 54.5 -24.5t54.5 24.5q10 10 22.5 14.5t22.5 16.5h16q10 -10 6 -23q-2 -6 -6 -8q-35 -35 -70.5 -54.5t-82.5 -6.5q-25 0 -38.5 9t-25.5 19q-23 12 -46 22.5t-46 10.5q-35 10 -59.5 1t-47.5 -34q0 -10 -17 -12t-30 -2q0 10 -6 22.5t6 24.5q12 45 23.5 91t23.5 93 q0 35 8.5 62t8.5 61q0 82 -2 153t-15 140v76q-23 0 -45 -7t-32 -7t-20.5 9t-10.5 21z" />
<glyph unicode="&#xa4;" horiz-adv-x="638" d="M35 1204q-2 2 12 8q6 14 8 15.5t8 -6.5q14 -12 27 -27q14 -12 21.5 -20.5t13.5 -14.5q20 -14 34.5 -22.5t28.5 -22.5q2 0 7 -4q0 -2 2 -4q6 -6 5 -9t-14 -18h-10q-6 6 -13 13.5t-22 13.5q-20 20 -40.5 35.5t-47.5 36.5q-6 6 -8 11t-10 5q0 8 -2 10zM51 233q0 4 4 7l19 18 q20 20 43.5 38.5t44.5 39.5q6 8 17 14t18 12l8 -8q14 -6 15 -12t-5 -6q0 -6 -5 -8t-5 -9q-12 -8 -30 -19.5t-32 -25.5q-6 -6 -17 -12t-17 -14q-6 -12 -13.5 -20.5t-13.5 -14.5q-6 0 -9 1t-18 7q-6 6 -4 12zM162 496v88v71v160v150q0 35 5 66.5t11 66.5q8 33 23.5 52t56.5 28 q20 0 40.5 -1t47.5 -10q14 -12 26.5 -26.5t18.5 -34.5q6 -27 16.5 -52.5t10.5 -54.5q6 -41 12 -84t6 -84q0 -27 -5 -48t-5 -48q0 -29 1 -55.5t9 -58.5v-142q0 -20 -1 -35.5t-9 -35.5q0 -20 -5 -40t-11 -40q-14 -41 -48 -58.5t-67 -3.5q-53 6 -81 38t-36 85q-6 29 -8 54.5 t-8 52.5zM188 557q6 -20 7.5 -34.5t1.5 -35.5v-61q6 -35 16 -65.5t37 -51.5q35 -27 64.5 -25.5t50.5 35.5q20 33 27 71t7 79v106v248q0 41 -4 84t-4 84q-6 35 -15 67t-30 66q-6 12 -27.5 22.5t-42.5 4.5q-35 -8 -49 -25.5t-22 -64.5q-8 -8 -8 -35q0 -20 -4.5 -39.5 t-4.5 -40.5q0 -33 4.5 -69.5t4.5 -71.5v-123v-125h-9zM376 1096.5q-1 3.5 7 9.5l8 8q14 14 32 22.5t30 22.5q8 6 18 14.5t18 20.5q6 8 12.5 14t12.5 13q16 16 27 -9q8 -6 4 -8t-4 -10l-17 -16q-20 -20 -43.5 -36t-44.5 -36q-8 -6 -15 -13.5t-22 -13.5h-8q-14 14 -15 17.5z M394 342q1 6 16 12l8 8q6 -6 17 -12t18 -14q20 -20 43.5 -38.5t44.5 -39.5l18 -18q0 -2 2 -7q0 -4 1 -6t-3 -6q-14 -6 -17 -7t-10 -1q-6 6 -13 14.5t-13 20.5q-23 14 -35 26q-14 14 -31.5 25.5t-29.5 19.5q-8 6 -9.5 8.5t-1.5 8.5q-6 0 -5 6z" />
<glyph unicode="&#xa5;" horiz-adv-x="712" d="M14.5 527.5q8.5 9.5 30.5 9.5h135h162q68 0 127 9t127 9h43q23 0 32 -4t-1 -29q0 -8 -8 -12q-4 -2 -7 -2q-35 -10 -67.5 -12t-67.5 -2q-98 0 -197.5 -7.5t-201.5 -7.5h-76q-10 0 -19.5 3t-9.5 26q-10 10 -1.5 19.5zM16 641q0 12 9.5 21.5t19.5 9.5h150h163q55 10 120 12 t132 2q10 10 21.5 12t23.5 2q23 0 26 -10t3 -33q0 -10 -8 -14q-4 -2 -6 -2q-35 -10 -68 -12t-67 -2q-98 0 -197.5 -7.5t-202.5 -7.5h-72q-14 0 -30.5 3t-16.5 26zM92 1518q2 2 6 8q8 12 8 20q10 0 19.5 -9t9.5 -19q10 -23 14.5 -45.5t16.5 -45.5q23 -78 51.5 -162.5 t52.5 -162.5q10 -47 21.5 -92t21.5 -101h15q10 55 22 111.5t23 109.5q23 78 37 164t36 164q0 23 4.5 36t26.5 24q23 0 26 -9.5t3 -21.5q-10 -88 -30.5 -167t-43.5 -157q-10 -68 -28.5 -142.5t-30.5 -139.5q0 -35 -2 -60.5t-13 -58.5q-12 0 -12 -17.5t12 -29.5 q0 -66 7.5 -131.5t7.5 -118.5q0 -78 8 -146.5t8 -136.5q0 -45 7 -79.5t7 -69.5q0 -10 4.5 -19.5t-18.5 -9.5q-12 0 -21.5 2t-9.5 12q-12 35 -14 68t-2 66q-10 92 -14 180t-15 176q0 78 -9 153.5t-19 143.5q0 57 -16.5 110.5t-30.5 96.5q-33 100 -64 200.5t-53 200.5 q-10 23 -14.5 52.5t-14.5 52.5z" />
<glyph unicode="&#xa6;" horiz-adv-x="114" d="M5 1275q5 7 5 17q0 16 2 18.5t19 2.5q2 0 8 -6q2 -2 2 -4q8 -25 9 -48.5t1 -48.5q0 -72 6 -144.5t6 -143.5v-54q0 -8 -3 -19t-19 -11q-20 0 -21 20v107v116q-8 41 -9 88t-1 95q-10 8 -5 15zM41 428v246v106q25 8 29 0t4 -32q8 -55 9 -117t1 -117v-225q0 -10 -21 -10 q-10 0 -11 1t-1 9q0 41 -1 73.5t-9 65.5z" />
<glyph unicode="&#xa7;" horiz-adv-x="436" d="M-2 145q8 -23 13 -44t28 -38q16 -16 44 -30.5t52 -20.5q39 -8 71 -12t62 12q16 14 31.5 30.5t32.5 33.5q33 45 43 92l20 94q8 39 2 73t-22 75q-8 14 -19.5 28.5t-44.5 22.5q-23 16 -53.5 19t-60.5 3q-23 0 -43.5 8.5t-30.5 32.5q-8 8 -9 16.5t-1 24.5q-8 39 -15.5 83 t-15.5 83q0 41 6 84t14 84q16 33 37 43t68 19q16 0 30.5 -1.5t22.5 -9.5v33q-25 8 -48.5 9t-45.5 1q-33 -8 -59.5 -19t-34.5 -42q-8 -16 -15.5 -31.5t-7.5 -32.5q-8 -25 -14 -53.5t-6 -50.5q0 -25 5 -48.5t5 -45.5q8 -41 16 -74t17 -72q8 -31 30.5 -43t63.5 -20 q16 0 30.5 -5t30.5 -5q25 0 50.5 -8.5t33.5 -22.5q16 -33 28.5 -58.5t2.5 -56.5q0 -41 -10 -73.5t-10 -63.5q-8 -31 -30 -65.5t-54 -59.5q-8 -10 -15.5 -11t-15.5 -1q-20 0 -44 6t-45.5 15t-36.5 22.5t-20 29.5q-10 23 -6 42.5t-6 43.5q0 6 3 12.5t-13 6.5q-14 0 -27.5 -2 t-13.5 -17v-45zM39 627v53q0 16 12 18t21 2q16 0 18 -11t2 -19v-84q4 -16 18.5 -31.5t33 -27t38 -18.5t35.5 -7q6 0 14 4q4 2 7 6q33 31 53 65.5t20 81.5q8 31 15.5 64t15.5 72q0 63 -31 125q-16 23 -33.5 27.5t-39.5 13.5h-62q-31 10 -48 26.5t-26 46.5q-8 41 -14 79t-6 79 q-8 25 -9 48.5t-1 57.5q0 23 1 50.5t9 52.5q0 23 6 40t14 34q14 61 84 61q23 0 47.5 -1t47.5 -7q31 0 41 -20.5t10 -43.5q0 -25 1 -48t9 -48q0 -14 -11.5 -16t-19.5 -2q-20 0 -20 18v33h10q-8 16 -10 36.5t-10 37.5q-10 23 -20.5 30.5t-43.5 -0.5q-39 0 -57.5 -15t-24.5 -48 q-16 -47 -23.5 -92t1.5 -84q8 -47 15 -94.5t7 -94.5q0 -16 4 -24.5t4 -18.5q8 -23 27.5 -32t36.5 -9q33 -8 57.5 -10t46.5 -10q23 -16 34 -31.5t20 -32.5q14 -39 21 -77.5t-3 -77.5q-6 -47 -17.5 -100.5t-43.5 -100.5q-16 -45 -54 -61q-23 -23 -52.5 -21t-61.5 12 q-23 6 -44.5 20.5t-37.5 31.5q-33 45 -33 92z" />
<glyph unicode="&#xa8;" d="M14 1683q0 41 19.5 74t58.5 33q41 0 60.5 -33t19.5 -74q0 -78 -80 -77q-78 0 -78 77zM281 1683q0 41 19 74t58 33q41 0 60.5 -33t19.5 -74q0 -78 -80 -77q-78 0 -77 77z" />
<glyph unicode="&#xa9;" horiz-adv-x="530" d="M20 1071q18 117 68.5 201t157.5 125q74 27 129 10.5t96 -104.5q41 -82 40 -164t-26 -164q-12 -37 -40.5 -72t-68.5 -55.5t-86 -21.5t-91 28q-35 23 -75 40t-58 58q-16 31 -26 61.5t-20 57.5zM123 1133q-18 -68 6.5 -118t89.5 -79q12 -4 24.5 -10t24.5 -13 q35 -16 59.5 -12t43.5 39q23 41 36 85t29 91q-16 47 -29.5 92t-33.5 86q-29 63 -99 33q-61 -29 -97 -79t-54 -115zM238 1094q2 18 2 35.5t2 33.5t3 33.5t5 34.5q0 10 4 31q4 12 16.5 20t26.5 4q14 0 18 -16q4 -20 4 -29q0 -2 -1 -3t-1 -5l-6 6q-4 16 -6 23q-4 18 -20 14 q-20 -4 -21 -23q-4 -16 -4 -29.5t-2 -29.5q-2 -10 -3 -21.5t-1 -21.5q-2 -23 -3 -43.5t1 -42.5q2 -12 2 -24.5t4 -22.5q4 -16 9 -29.5t9 -30.5q8 -16 23 -16q6 0 12 6q8 16 8 27q0 2 5 6q4 4 8 -2q0 -4 1 -6t-1 -6q-4 -6 -7 -13.5t-8 -13.5q-10 -12 -28 -6t-25 27 q-12 27 -18 55q-2 8 -2 15t-2 18q-2 12 -2 23.5t-2 21.5z" />
<glyph unicode="&#xaa;" horiz-adv-x="239" d="M-1 1452q-3 2 1 2q4 16 9 32.5t16 24.5q16 25 51 25q16 0 34.5 -4t30.5 -14q10 -10 16.5 -15.5t10.5 -15.5q10 -20 11 -37.5t1 -36.5q0 -16 1 -29.5t5 -27.5q4 -29 -1 -53.5t-5 -53.5q-4 -10 -5 -17t-1 -18v-106q0 -18 4 -36.5t8 -39.5q0 -10 7.5 -14t11.5 -14 q0 -4 2 -9.5t-2 -11.5q-4 0 -11.5 1t-7.5 7q-10 12 -15 25.5t-15 27.5q-23 -39 -58 -47q-29 -23 -49 0q-10 14 -18 24.5t-13 31.5q0 14 -4 27.5t-8 33.5q-10 39 0 86q0 16 4 26.5t8 22.5q4 20 16.5 27.5t28.5 11.5q23 4 46.5 1t52.5 -13v67q0 20 -1 37t-5 33q0 18 -1 31.5 t-5 30.5q-10 35 -46 43q-12 0 -22 2t-27 -2q-4 -4 -9 -9.5t-9 -15.5q-6 -10 -10 -22.5t-15 -20.5q-2 -4 -4 -4q-2 -2 -2 4q-4 0 -7 2zM23.5 1193.5q-3.5 -26.5 1.5 -54.5q0 -18 7 -38t11 -42q0 -10 5 -22.5t15 -20.5q10 -12 25 -8q8 6 19.5 11t17.5 21q4 4 8 9.5t4 9.5 q4 10 9.5 15t9.5 9q0 4 -3 12.5t-3 12.5q0 35 3 65.5t3 59.5q0 8 1 18.5t-16 10.5q-29 14 -53 14q-14 0 -27.5 -9.5t-23.5 -23.5q-10 -23 -13.5 -49.5z" />
<glyph unicode="&#xab;" horiz-adv-x="575" d="M4 860v17q25 25 57.5 41t55.5 38q37 12 66.5 26.5t66.5 39.5h16h31q12 -12 4 -24.5t-20 -24.5q-23 -12 -58 -26.5t-73 -37.5q-12 0 -35 -10t-45 -22q23 -25 45 -47.5t35 -36.5q25 -35 58.5 -61.5t57.5 -51.5q10 -12 10 -22.5t-10 -10.5q-4 -4 -10 -8q-12 -8 -23 -8 l-16 16q-39 37 -76 76t-71 88q-12 12 -33 24.5t-33 24.5zM260 866.5q2 14.5 37 26.5q49 12 90 33.5t88 46.5q25 12 33 8t33 -41q-49 -23 -99.5 -39t-111.5 -41q12 -12 24.5 -32.5t24.5 -34.5q25 -25 57.5 -48.5t55.5 -48.5q12 -12 12 -32.5t-12 -32.5t-23.5 -4t-24.5 20 q-37 37 -75.5 83t-87.5 97q-23 25 -21 39.5z" />
<glyph unicode="&#xac;" horiz-adv-x="819" d="M0 924q0 20 3 23t24 3h176h188q72 10 141.5 13.5t141.5 13.5h53q63 0 41 -41q-4 -4 -8 -6q-10 -6 -19 -6q-31 0 -68.5 -7.5t-78.5 -7.5q-113 0 -230.5 -2t-228.5 -12h-94q-10 0 -25.5 3t-15.5 26zM715 895v82q29 0 34 -3t5 -24q10 -41 12 -81t2 -81v-147q0 -10 -8 -12 t-19 -2q-10 0 -12 2t-2 12v94q-10 41 -11 80t-1 80z" />
<glyph unicode="&#xad;" horiz-adv-x="460" d="M6 639q0 4 4 12q2 4 4 6h80q61 6 121.5 7.5t122.5 1.5h45q6 0 16.5 -2t10.5 -17q0 -6 -5.5 -12t-13.5 -6h-90h-98q-35 0 -73 -4t-79 -4h-28q-12 0 -14.5 2t-2.5 16z" />
<glyph unicode="&#xae;" horiz-adv-x="546" d="M20 1092q18 117 68.5 200.5t157.5 124.5q74 27 129 10.5t96 -104.5q41 -82 40 -164t-26 -164q-12 -37 -40.5 -71.5t-68.5 -55t-86 -21.5t-91 27q-35 23 -75 40.5t-58 58.5q-16 31 -26 61.5t-20 57.5zM123 1153q-18 -68 6.5 -118t89.5 -79q12 -4 24.5 -10t24.5 -12 q35 -16 59.5 -12t43.5 39q23 41 36 85t29 91q-16 47 -29.5 92t-33.5 86q-29 63 -99 33q-61 -29 -97 -79t-54 -116zM242 965v34v43.5t2 42.5q0 16 1 34t1 34v66q0 14 1 27.5t1 27.5q0 8 -4 24v5q-6 4 0 8q12 8 23.5 10t25.5 -6q14 -6 18 -27q6 -23 8.5 -43t-4.5 -43 q0 -8 -2 -12q-2 -16 -8 -32.5t-14 -33.5q-2 -2 -2 -8q2 -6 3 -11t3 -11q8 -20 14 -41t15 -43q8 -23 10 -41v-4v-4q-6 -6 -12 4q-4 10 -5.5 19t-5.5 20q-4 10 -6 20t-6 20l-12 43q-4 6 -5.5 11.5t-5.5 11.5q-6 -2 -18 -10q-2 -2 -2 -4v-23q0 -16 -1 -31.5t-1 -31.5v-41 q2 -6 -6 -6q-6 -6 -6 2zM256 1305q0 -8 2 -11q0 -8 1 -15t1 -15q0 -16 -1 -31.5t-1 -32.5v-67v-19l2 -2q12 12 16 18q8 14 14.5 29t10.5 31q2 14 4 26.5t0 28.5q0 23 -10 49q-4 8 -12 13q-6 4 -13.5 3t-13.5 -5z" />
<glyph unicode="&#xb0;" horiz-adv-x="399" d="M8 1198q14 80 48 143.5t114 88.5q53 14 92 4.5t66 -74.5q27 -53 28.5 -115.5t-10.5 -116.5q-12 -27 -34.5 -51t-51.5 -39.5t-61.5 -16.5t-65.5 19q-29 12 -51.5 27.5t-36.5 42.5q-14 29 -25.5 46t-11.5 42zM78 1235q-10 -41 4 -78t70 -63q14 0 18 -2t16 -17q27 0 42.5 4 t29.5 31q12 29 25.5 56.5t27.5 68.5q-14 29 -27.5 56.5t-25.5 68.5q-14 29 -29.5 31t-42.5 -13q-41 -14 -67.5 -52t-40.5 -91z" />
<glyph unicode="&#xb1;" horiz-adv-x="423" d="M10 819q0 6 2 11.5t15 5.5h86h84q39 0 74.5 4t68.5 4h25q18 0 21 -2t3 -15q-6 -8 -16 -8q-18 -8 -38 -9t-38 -1q-57 0 -109.5 -3t-109.5 -3h-51q-6 0 -11.5 2t-5.5 14zM18 555q0 18 17 18h84h94q31 0 67.5 4.5t75.5 4.5h27q12 0 14 -2t2 -15q0 -8 -6 -12t-10 -4h-68 q-59 0 -115.5 -5t-113.5 -5h-41q-8 0 -17.5 2t-9.5 14zM180 735v193v86q18 6 21.5 0t3.5 -27q6 -45 7 -93t1 -91v-180q0 -6 -16 -7q-10 0 -11 7q0 35 -1 60.5t-5 51.5z" />
<glyph unicode="&#xb2;" horiz-adv-x="352" d="M10 645q0 53 18.5 94t43.5 88q23 31 43 55.5t37 55.5q23 39 43 84t28 98q6 53 17.5 101.5t11.5 101.5q18 59 0 100q-6 31 -29.5 50.5t-70.5 11.5q-31 -8 -48.5 -27.5t-31.5 -42.5q-33 -33 -33 -82q0 -8 1 -15t11 -15q0 -8 -1 -14.5t-11 -6.5q-14 -18 -29 10 q-16 94 41 152q16 23 31.5 38t38.5 23q39 16 84 12t67 -42q8 -8 15.5 -20.5t7.5 -20.5q0 -53 -1 -104.5t-11 -98.5q-8 -16 -9.5 -29.5t-1.5 -30.5q-6 -31 -9 -61.5t-19 -60.5q0 -23 -12.5 -43.5t-28.5 -36.5q-16 -31 -30.5 -56.5t-31.5 -56.5q-23 -29 -43 -61.5t-37 -79.5 q0 -6 -5 -20.5t-5 -30.5h221h11q20 0 20 -9q0 -20 -20 -20h-90q-39 0 -77 -5t-77 -5q-14 0 -21.5 2t-7.5 18z" />
<glyph unicode="&#xb3;" horiz-adv-x="360" d="M-4 721q0 16 8 19t25 12q10 0 11 -6.5t1 -14.5q0 -25 14.5 -45t38.5 -20q33 -16 62.5 -10t48.5 32q23 25 34 49.5t19 59.5q16 41 23.5 83t-2.5 91q0 27 -6.5 56.5t-14.5 62.5q-8 35 -42 57t-66 31h-23q-6 0 -8 6q-2 2 -2 6q0 8 1 10t9 10h23q47 0 75 43q25 35 29 69t4 75 q0 25 -4 47t-29 41q-63 43 -131 8q-16 -6 -25.5 -26.5t-17.5 -36.5q-8 -10 -10 -16.5t-12 -6.5h-23v23q10 23 24.5 41t30.5 34q0 8 12.5 15.5t20.5 7.5q33 8 67 12t75 -12q33 -16 49 -47t16 -64v-74q0 -35 -8 -55t-25 -45q-8 -10 -21.5 -22.5t-21.5 -20.5q16 -16 30.5 -33.5 t23.5 -44.5q16 -8 20 -22.5t14 -30.5q8 -47 13.5 -91t-2.5 -95q-8 -47 -20.5 -100.5t-45.5 -94.5q-25 -35 -56.5 -47t-64.5 -18q-25 0 -49.5 2t-46.5 18q-31 31 -45 78z" />
<glyph unicode="&#xb4;" horiz-adv-x="139" d="M2 1241q0 8 10 19q10 31 20.5 67.5t20.5 67.5q10 23 23.5 30.5t44.5 -2.5q-8 -8 -12 -20q-2 -6 -3 -8q-10 -41 -26.5 -80t-26.5 -70q-20 -37 -41 -12q-10 0 -10 8z" />
<glyph unicode="&#xb5;" horiz-adv-x="505" d="M23 1233v213v25.5t3 28.5t9 23.5t16 10.5q12 0 21.5 -14.5t9.5 -61.5v-377v-405q12 -160 14 -318.5t2 -332.5q27 -47 0 -117q0 -57 -4 -72.5t-26 -3.5q-12 0 -14.5 16.5t-2.5 26.5q-10 92 -11 175t-1 171q0 252 -8 507t-8 505zM39 977v180v213q0 23 1 54.5t11 64.5 q-2 6 -2 14q0 16 19 17q10 0 20 -9.5t10 -21.5v-76q0 -66 -2 -136.5t-14 -148.5q0 -70 8 -136t8 -136v-166v-121q0 -80 2 -149.5t15 -134.5q0 -35 8 -76t20 -76q10 -23 32 -44t44 -32q16 -12 40 -12t44.5 10.5t34.5 29.5t14 48q12 78 22.5 157t10.5 159q0 125 -8 246.5 t-8 236.5v422q0 35 -8.5 68.5t-8.5 66.5q4 6 10 14q12 16 23 17q10 0 20.5 -4.5t10.5 -26.5q10 -23 11 -53.5t1 -53.5v-346q0 -57 2 -110.5t14 -98.5v-272q0 -92 6.5 -181t-6.5 -181q0 -45 -20.5 -89.5t-54.5 -78.5q-45 -23 -82 -24t-84 11q-57 10 -85 52t-50 98 q-12 70 -14.5 144.5t-2.5 142.5v165q-10 92 -11 181.5t-1 181.5z" />
<glyph unicode="&#xb6;" horiz-adv-x="534" d="M6.5 1147q-6.5 -60 3.5 -111q0 -23 6.5 -37t6.5 -34q10 -33 23 -71t34 -71q31 -63 74 -122.5t96 -102.5q23 -10 35 -20.5t34 -20.5q10 -53 11.5 -108.5t1.5 -118.5v-310q0 -10 4 -19t26 -9q10 0 19.5 9t9.5 19q0 53 -2 105.5t-12 105.5q0 63 5 120t-5 120v211v184v310 q0 63 -7.5 119.5t-7.5 117.5v31h-129q-86 0 -137 -54.5t-73 -129.5q-10 -53 -16.5 -113zM59.5 1160.5q14.5 66.5 34.5 139.5q10 35 29.5 55.5t42.5 30.5q41 10 77 12.5t76 2.5v-789q-10 10 -14 13.5t-14 15.5q-20 23 -42 37t-42 45q-66 66 -92.5 138.5t-46.5 158.5 q-23 74 -8.5 140.5zM59.5 1160.5q14.5 66.5 34.5 139.5q10 35 29.5 55.5t42.5 30.5q41 10 77 12.5t76 2.5v-789q-10 10 -14 13.5t-14 15.5q-20 23 -42 37t-42 45q-66 66 -92.5 138.5t-46.5 158.5q-23 74 -8.5 140.5zM152 1401q0 10 2 19.5t12 9.5h67h86q33 0 64 7t66 7h26 q10 0 12 -4t2 -27l-14 -12h-72q-53 -10 -98 -12.5t-98 -2.5h-41q-10 0 -12 2.5t-2 12.5zM427 1261q-5 42 5 85q0 20 -3 43.5t20 23.5q20 0 30 -11t10 -42v-311q-10 -84 -5 -168t5 -170q0 -139 6.5 -267.5t6.5 -267.5v-98q0 -53 -5 -62.5t-36 -9.5q0 10 -6 20.5t-6 22.5v281 q-12 213 -14.5 423t-2.5 423q0 43 -5 85z" />
<glyph unicode="&#xb7;" horiz-adv-x="184" d="M14 823q0 41 19.5 74t58.5 33q41 0 60.5 -33t19.5 -74q0 -78 -80 -78q-78 0 -78 78z" />
<glyph unicode="&#xb8;" horiz-adv-x="354" d="M4 -326q14 12 26.5 14.5t26.5 2.5q41 -12 69 -12.5t56 12.5q27 14 38 35.5t-3 35.5q0 53 -15.5 93.5t-56.5 66.5q-12 14 -27.5 14.5t-41.5 -14.5h-37q-12 14 -12 24.5t12 10.5q53 29 95 27t83 -43t56.5 -94.5t15.5 -118.5q0 -14 -11.5 -27.5t-25.5 -26.5 q-53 -41 -106.5 -52t-106.5 16q-12 0 -23.5 11t-11.5 25z" />
<glyph unicode="&#xb9;" horiz-adv-x="149" d="M8 1362v12q10 41 24.5 75t30.5 67q0 8 11.5 15t19.5 7v-22q10 -47 11 -91.5t1 -93.5v-88v-53q0 -49 -6 -98.5t-6 -98.5v-227q0 -35 6 -68.5t6 -74.5q0 -8 -7 -15.5t-15 -7.5q-16 0 -18.5 7t-2.5 16v239v240v131v197h-12q0 -16 -1 -27.5t-9 -28.5q-2 -4 -6 -6 q-6 -6 -15 -6q0 -10 -6 -4q-4 2 -6 4z" />
<glyph unicode="&#xba;" horiz-adv-x="405" d="M8 1198q14 80 48 143.5t114 88.5q53 14 92 4.5t66 -74.5q27 -53 28.5 -115.5t-10.5 -116.5q-12 -27 -34.5 -51t-51.5 -39.5t-61.5 -16.5t-65.5 19q-29 12 -51.5 27.5t-36.5 42.5q-14 29 -25.5 46t-11.5 42zM78 1235q-10 -41 4 -78t70 -63q14 0 18 -2t16 -17q27 0 42.5 4 t29.5 31q12 29 25.5 56.5t27.5 68.5q-14 29 -27.5 56.5t-25.5 68.5q-14 29 -29.5 31t-42.5 -13q-41 -14 -67.5 -52t-40.5 -91z" />
<glyph unicode="&#xbb;" horiz-adv-x="514" d="M12 697.5q8 9.5 19 9.5q25 25 56.5 41t55.5 38q10 0 24.5 10.5t39.5 22.5q-37 23 -64.5 38t-62.5 40l-23.5 23.5t-25.5 23.5v17q0 10 8 14q4 2 10 2q10 0 20.5 -2t10.5 -14q47 -25 92 -56t80 -55q14 0 18 -10.5t15 -20.5q-35 -25 -71 -48t-71 -48q-25 -12 -41 -23.5 t-39 -23.5q-10 0 -28.5 -5t-18.5 5q-12 12 -4 21.5zM207 612q0 12 2 23.5t12 26.5q37 23 72 54.5t72 53.5q10 12 22.5 24.5t22.5 24.5q-47 35 -86 78t-86 80q-12 10 -16.5 14t-14.5 17v32q10 0 20.5 5.5t10.5 -5.5q35 -25 70.5 -58.5t70.5 -68.5q23 -23 45 -40t35 -39 q23 -23 0 -48q-47 -35 -103.5 -72.5t-103.5 -84.5h-14q-12 0 -21.5 -2t-9.5 -15z" />
<glyph unicode="&#xbc;" horiz-adv-x="997" d="M8 1251v19q14 68 38 123t52 108q0 14 18.5 25.5t33.5 11.5v-37q14 -78 16 -149.5t2 -151.5v-143v-88q0 -82 -9 -161t-9 -161v-373q0 -55 9 -111.5t9 -121.5q0 -12 -11.5 -23.5t-25.5 -11.5q-25 0 -29 11.5t-4 23.5v393v391v213v322h-18q0 -27 -2 -44.5t-17 -45.5 q-4 -6 -10 -10q-12 -8 -24 -9q0 -12 -11 -6q-4 2 -8 6zM215 8v33q0 35 2 61.5t14 49.5q0 35 2 71.5t15 73.5q0 72 10 133.5t20 120.5q12 72 24.5 153.5t25.5 167.5q10 47 22 95.5t25 95.5q12 47 16 88t14 88q14 72 25.5 136.5t24.5 135.5q0 10 10 19.5t22 -4.5 q12 0 14.5 -9.5t2.5 -21.5q0 -25 -8.5 -48.5t-8.5 -47.5q-12 -72 -24 -143.5t-25 -143.5q-10 -37 -21.5 -72.5t-11.5 -70.5q-10 -61 -22 -129t-25 -129q-12 -96 -31.5 -190.5t-31.5 -190.5q0 -37 -2 -74t-15 -72q0 -37 -9 -72.5t-21 -70.5q0 -12 -10.5 -16.5t-22.5 -16.5z M541 754q14 55 18.5 100t16.5 98q14 55 18 118t19 116q14 84 24.5 152.5t10.5 138.5q16 27 31.5 38t41.5 -4v-16q-14 -84 -26.5 -164t-26.5 -162q-16 -94 -28.5 -180t-26.5 -180q68 -12 133 -14t119 -2v196v307q0 41 -11.5 83t-23.5 98q0 8 2 16q2 6 5 12t9 6h39 q12 0 14.5 -2t2.5 -14q29 -123 32.5 -256t3.5 -268v-162q14 -96 9.5 -178t9.5 -164v-252q12 -41 14 -91t2 -91q0 -27 -10 -31t-25 -4q-14 0 -25 2t-11 16q0 27 -2.5 53.5t-14.5 55.5v305v236v53q-96 12 -180 23.5t-164 11.5z" />
<glyph unicode="&#xbd;" horiz-adv-x="1103" d="M8 1251v19q14 68 38 123t52 108q0 14 18.5 25.5t33.5 11.5v-37q14 -78 16 -149.5t2 -151.5v-143v-88q0 -82 -9 -161t-9 -161v-373q0 -55 9 -111.5t9 -121.5q0 -12 -11.5 -23.5t-25.5 -11.5q-25 0 -29 11.5t-4 23.5v393v391v213v322h-18q0 -27 -2 -44.5t-17 -45.5 q-4 -6 -10 -10q-12 -8 -24 -9q0 -12 -11 -6q-4 2 -8 6zM215 8v33q0 35 2 61.5t14 49.5q0 35 2 71.5t15 73.5q0 72 10 133.5t20 120.5q12 72 24.5 153.5t25.5 167.5q10 47 22 95.5t25 95.5q12 47 16 88t14 88q14 72 25.5 136.5t24.5 135.5q0 10 10 19.5t22 -4.5 q12 0 14.5 -9.5t2.5 -21.5q0 -25 -8.5 -48.5t-8.5 -47.5q-12 -72 -24 -143.5t-25 -143.5q-10 -37 -21.5 -72.5t-11.5 -70.5q-10 -61 -22 -129t-25 -129q-12 -96 -31.5 -190.5t-31.5 -190.5q0 -37 -2 -74t-15 -72q0 -37 -9 -72.5t-21 -70.5q0 -12 -10.5 -16.5t-22.5 -16.5z M553 35q0 90 32 159.5t73 147.5q39 53 74.5 95t60.5 93q41 66 75 142t46 168t31.5 172t19.5 170q14 53 14 93t-14 79q-12 51 -53 83.5t-119 18.5q-51 -12 -81 -46t-54 -73q-27 -27 -40 -62.5t-13 -74.5q0 -14 2 -26.5t16 -24.5q0 -14 -2 -24.5t-16 -10.5q-12 -14 -24.5 -12 t-27.5 28q-12 78 2.5 141.5t67.5 117.5q27 39 53.5 64.5t65.5 37.5q33 12 69.5 18.5t72.5 1t66.5 -21.5t49.5 -49q12 -14 23.5 -35t11.5 -35q0 -90 -2 -177t-17 -165q-12 -27 -14 -51.5t-2 -50.5q-12 -53 -18.5 -103.5t-32.5 -103.5q0 -39 -21.5 -75t-48.5 -62 q-25 -51 -50.5 -93.5t-51.5 -95.5q-39 -51 -75 -106.5t-63 -132.5q0 -12 -8 -35.5t-8 -50.5h377h16q14 0 24.5 -2.5t10.5 -14.5t-10 -23.5t-25 -11.5h-153q-66 0 -129.5 -8t-128.5 -8q-25 0 -38.5 4t-13.5 31z" />
<glyph unicode="&#xbe;" horiz-adv-x="1357" d="M-4 166q0 29 13.5 35t39.5 18q16 0 18.5 -10t2.5 -25q0 -41 24.5 -74.5t65.5 -33.5q53 -29 104 -17.5t80 54.5q41 41 58.5 83t29.5 97q29 70 40 139.5t-3 151.5q0 43 -11.5 94t-25.5 106q-12 55 -68.5 93t-111.5 53h-39q-10 0 -14 10q-2 4 -2 10q0 12 2 16.5t14 18.5h39 q41 0 70.5 15.5t56.5 56.5q41 57 47 114.5t6 122.5q0 41 -6 80t-47 68q-55 41 -110.5 42t-108.5 -28q-29 -10 -43.5 -44t-28.5 -62q-14 -14 -18 -25.5t-21 -11.5h-35v37q14 41 39 70.5t53 56.5q0 14 19.5 26.5t34.5 12.5q53 10 110.5 17t126.5 -17q53 -29 81 -80.5 t28 -104.5v-125q0 -55 -13.5 -90t-41.5 -76q-14 -16 -36 -37.5t-36 -35.5q29 -29 52.5 -57.5t37.5 -71.5q29 -12 35 -37t20 -53q14 -80 23.5 -153t-4.5 -157q-14 -80 -35 -169t-76 -156q-41 -55 -93 -77t-108 -34q-41 0 -80.5 4t-80.5 33q-29 29 -44.5 57.5t-29.5 69.5z M575 8v33q0 35 2 61.5t14 49.5q0 35 2 71.5t15 73.5q0 72 10 133.5t20 120.5q12 72 24.5 153.5t25.5 167.5q10 47 22 95.5t25 95.5q12 47 16 88t14 88q14 72 25.5 136.5t24.5 135.5q0 10 10 19.5t22 -4.5q12 0 14.5 -9.5t2.5 -21.5q0 -25 -8.5 -48.5t-8.5 -47.5 q-12 -72 -24 -143.5t-25 -143.5q-10 -37 -21.5 -72.5t-11.5 -70.5q-10 -61 -22 -129t-25 -129q-12 -96 -31.5 -190.5t-31.5 -190.5q0 -37 -2 -74t-15 -72q0 -37 -9 -72.5t-21 -70.5q0 -12 -10.5 -16.5t-22.5 -16.5zM901 754q14 55 18.5 100t16.5 98q14 55 18 118t19 116 q14 84 24.5 152.5t10.5 138.5q16 27 31.5 38t41.5 -4v-16q-14 -84 -26.5 -164t-26.5 -162q-16 -94 -28.5 -180t-26.5 -180q68 -12 133 -14t119 -2v196v307q0 41 -11.5 83t-23.5 98q0 8 2 16q2 6 5 12t9 6h39q12 0 14.5 -2t2.5 -14q29 -123 32.5 -256t3.5 -268v-162 q14 -96 9.5 -178t9.5 -164v-252q12 -41 14 -91t2 -91q0 -27 -10 -31t-25 -4q-14 0 -25 2t-11 16q0 27 -2.5 53.5t-14.5 55.5v305v236v53q-96 12 -180 23.5t-164 11.5z" />
<glyph unicode="&#xbf;" horiz-adv-x="399" d="M16 119q0 66 2 132t13 132q0 23 18.5 52.5t40.5 51.5q10 23 30.5 26t43.5 3h31q0 45 -2.5 96.5t-14.5 94.5v135q12 10 16.5 19t16.5 9q10 0 19.5 -3t9.5 -25q0 -47 2 -91t12 -87v-148q0 -23 -18.5 -40t-40.5 -17q-47 10 -63.5 5t-27.5 -52q-23 -45 -25.5 -96.5 t-2.5 -94.5q-23 -92 0 -162q0 -57 7 -112.5t7 -110.5q10 -33 14.5 -56.5t14.5 -45.5q10 -47 23.5 -88t35.5 -76q47 -33 78 -23.5t43 54.5q10 23 14 51.5t15 52.5v29q20 20 43 0q10 0 12 -9.5t2 -19.5q-10 -25 -14 -55.5t-15 -65.5q-10 -23 -31.5 -49.5t-56.5 -38.5 q-43 0 -77.5 13.5t-57.5 46.5q-33 45 -54.5 97t-33.5 95q-10 90 -24.5 184.5t-4.5 186.5zM164 958q0 23 11 41.5t36 18.5q23 0 40 -16.5t17 -26.5q0 -23 -19 -34t-54 -11q-12 10 -21.5 14t-9.5 14z" />
<glyph unicode="&#xc0;" d="M-4 276q10 63 12 129t2 132v98q0 66 -7 131t-7 131q0 53 2 114.5t12 114.5q0 55 3 107.5t26 97.5q23 41 39 82t49 76q20 43 84 43h59q43 -10 66.5 -39t34.5 -63q35 -53 47 -108.5t12 -121.5q0 -121 7 -246t7 -245q0 -86 -7 -164t-7 -154v-260v-102q0 -23 -2 -28t-12 -15 q-23 0 -28 9t-17 19v103v260q0 76 8 151.5t8 149.5v18q-78 10 -163 11.5t-171 1.5v-86v-189q-10 -43 -5 -94t5 -92q0 -35 -7 -74t-7 -72v-88q0 -10 -3 -17t-26 3v131q0 33 -7 66.5t-7 78.5zM53 752q86 0 166 -2.5t168 -12.5v15v303v86q-12 55 -23.5 116.5t-21.5 114.5 q0 33 -12.5 56.5t-44.5 46.5q-10 10 -25.5 15t-31 5t-28 -5t-18.5 -15q-41 -35 -64.5 -82t-33.5 -90q-12 -45 -21.5 -95.5t-9.5 -95.5v-215v-145zM155 1833q0 10 1 12.5t12 12.5h12q10 0 13 -1t13 -11q29 -39 56.5 -82t56.5 -80v-27q-4 -4 -8 -6q-11 -6 -19 -6 q-10 10 -17 12t-7 13q-18 29 -43 62.5t-45 61.5q0 10 -7.5 19.5t-17.5 19.5z" />
<glyph unicode="&#xc1;" d="M-4 276q10 63 12 129t2 132v98q0 66 -7 131t-7 131q0 53 2 114.5t12 114.5q0 55 3 107.5t26 97.5q23 41 39 82t49 76q20 43 84 43h59q43 -10 66.5 -39t34.5 -63q35 -53 47 -108.5t12 -121.5q0 -121 7 -246t7 -245q0 -86 -7 -164t-7 -154v-260v-102q0 -23 -2 -28t-12 -15 q-23 0 -28 9t-17 19v103v260q0 76 8 151.5t8 149.5v18q-78 10 -163 11.5t-171 1.5v-86v-189q-10 -43 -5 -94t5 -92q0 -35 -7 -74t-7 -72v-88q0 -10 -3 -17t-26 3v131q0 33 -7 66.5t-7 78.5zM53 752q86 0 166 -2.5t168 -12.5v15v303v86q-12 55 -23.5 116.5t-21.5 114.5 q0 33 -12.5 56.5t-44.5 46.5q-10 10 -25.5 15t-31 5t-28 -5t-18.5 -15q-41 -35 -64.5 -82t-33.5 -90q-12 -45 -21.5 -95.5t-9.5 -95.5v-215v-145zM180 1651q0 8 10 19q10 31 20.5 67.5t20.5 67.5q10 23 23.5 30.5t44.5 -2.5q-8 -8 -12 -20q-2 -6 -3 -8q-10 -41 -26.5 -80 t-26.5 -70q-20 -37 -41 -12q-10 0 -10 8z" />
<glyph unicode="&#xc2;" d="M-4 276q10 63 12 129t2 132v98q0 66 -7 131t-7 131q0 53 2 114.5t12 114.5q0 55 3 107.5t26 97.5q23 41 39 82t49 76q20 43 84 43h59q43 -10 66.5 -39t34.5 -63q35 -53 47 -108.5t12 -121.5q0 -121 7 -246t7 -245q0 -86 -7 -164t-7 -154v-260v-102q0 -23 -2 -28t-12 -15 q-23 0 -28 9t-17 19v103v260q0 76 8 151.5t8 149.5v18q-78 10 -163 11.5t-171 1.5v-86v-189q-10 -43 -5 -94t5 -92q0 -35 -7 -74t-7 -72v-88q0 -10 -3 -17t-26 3v131q0 33 -7 66.5t-7 78.5zM53 752q86 0 166 -2.5t168 -12.5v15v303v86q-12 55 -23.5 116.5t-21.5 114.5 q0 33 -12.5 56.5t-44.5 46.5q-10 10 -25.5 15t-31 5t-28 -5t-18.5 -15q-41 -35 -64.5 -82t-33.5 -90q-12 -45 -21.5 -95.5t-9.5 -95.5v-215v-145zM132.5 1693q-5.5 1 2.5 9q0 16 7.5 30.5t15.5 23.5q15 32 33 65q16 8 26 -2t27 -20q25 -16 49.5 -39t48.5 -47q4 -6 8 -15 q2 -4 2 -6q-25 -16 -37 -11t-28 21l-76 76q-8 -25 -21.5 -42t-21.5 -34q0 -10 -20 -10q-10 0 -15.5 1z" />
<glyph unicode="&#xc3;" d="M-4 276q10 63 12 129t2 132v98q0 66 -7 131t-7 131q0 53 2 114.5t12 114.5q0 55 3 107.5t26 97.5q23 41 39 82t49 76q20 43 84 43h59q43 -10 66.5 -39t34.5 -63q35 -53 47 -108.5t12 -121.5q0 -121 7 -246t7 -245q0 -86 -7 -164t-7 -154v-260v-102q0 -23 -2 -28t-12 -15 q-23 0 -28 9t-17 19v103v260q0 76 8 151.5t8 149.5v18q-78 10 -163 11.5t-171 1.5v-86v-189q-10 -43 -5 -94t5 -92q0 -35 -7 -74t-7 -72v-88q0 -10 -3 -17t-26 3v131q0 33 -7 66.5t-7 78.5zM26 1612q0 47 14.5 88t61.5 63q23 10 53.5 8.5t53.5 -24.5q10 -10 29.5 -21.5 t29.5 -23.5q23 -23 44 -27t38.5 4.5t28 26.5t10.5 41q0 12 9 23.5t22 23.5q10 0 20 -4t10 -27t-11 -47t-29.5 -44.5t-43 -33t-53.5 -12.5q-23 -10 -38 -3t-38 20l-59 59q-23 23 -51.5 21.5t-38.5 -35.5q0 -8 -8 -21q-4 -6 -9 -10q0 -45 -45 -45zM53 752q86 0 166 -2.5 t168 -12.5v15v303v86q-12 55 -23.5 116.5t-21.5 114.5q0 33 -12.5 56.5t-44.5 46.5q-10 10 -25.5 15t-31 5t-28 -5t-18.5 -15q-41 -35 -64.5 -82t-33.5 -90q-12 -45 -21.5 -95.5t-9.5 -95.5v-215v-145z" />
<glyph unicode="&#xc4;" d="M-4 276q10 63 12 129t2 132v98q0 66 -7 131t-7 131q0 53 2 114.5t12 114.5q0 55 3 107.5t26 97.5q23 41 39 82t49 76q20 43 84 43h59q43 -10 66.5 -39t34.5 -63q35 -53 47 -108.5t12 -121.5q0 -121 7 -246t7 -245q0 -86 -7 -164t-7 -154v-260v-102q0 -23 -2 -28t-12 -15 q-23 0 -28 9t-17 19v103v260q0 76 8 151.5t8 149.5v18q-78 10 -163 11.5t-171 1.5v-86v-189q-10 -43 -5 -94t5 -92q0 -35 -7 -74t-7 -72v-88q0 -10 -3 -17t-26 3v131q0 33 -7 66.5t-7 78.5zM26 1683q0 41 19.5 74t58.5 33q41 0 60.5 -33t19.5 -74q0 -78 -80 -77 q-78 0 -78 77zM53 752q86 0 166 -2.5t168 -12.5v15v303v86q-12 55 -23.5 116.5t-21.5 114.5q0 33 -12.5 56.5t-44.5 46.5q-10 10 -25.5 15t-31 5t-28 -5t-18.5 -15q-41 -35 -64.5 -82t-33.5 -90q-12 -45 -21.5 -95.5t-9.5 -95.5v-215v-145zM293 1683q0 41 19 74t58 33 q41 0 60.5 -33t19.5 -74q0 -78 -80 -77q-78 0 -77 77z" />
<glyph unicode="&#xc5;" d="M-4 276q10 63 12 129t2 132v98q0 66 -7 131t-7 131q0 53 2 114.5t12 114.5q0 55 3 107.5t26 97.5q23 41 39 82t49 76q20 43 84 43h59q43 -10 66.5 -39t34.5 -63q35 -53 47 -108.5t12 -121.5q0 -121 7 -246t7 -245q0 -86 -7 -164t-7 -154v-260v-102q0 -23 -2 -28t-12 -15 q-23 0 -28 9t-17 19v103v260q0 76 8 151.5t8 149.5v18q-78 10 -163 11.5t-171 1.5v-86v-189q-10 -43 -5 -94t5 -92q0 -35 -7 -74t-7 -72v-88q0 -10 -3 -17t-26 3v131q0 33 -7 66.5t-7 78.5zM53 752q86 0 166 -2.5t168 -12.5v15v303v86q-12 55 -23.5 116.5t-21.5 114.5 q0 33 -12.5 56.5t-44.5 46.5q-10 10 -25.5 15t-31 5t-28 -5t-18.5 -15q-41 -35 -64.5 -82t-33.5 -90q-12 -45 -21.5 -95.5t-9.5 -95.5v-215v-145zM119 1690q10 53 32.5 96t76.5 60q35 10 62.5 4t43.5 -51q18 -35 20.5 -78t-7.5 -78q-8 -18 -23.5 -34.5t-35 -27t-41 -11.5 t-44.5 14q-18 8 -33.5 18t-25.5 29q-10 18 -17.5 30.5t-7.5 28.5zM166 1715q-8 -29 2.5 -53.5t46.5 -43.5q10 0 12.5 -1t12.5 -11q16 0 26.5 3t20.5 22q10 18 18.5 36.5t18.5 47.5q-10 18 -18.5 36.5t-18.5 47.5q-10 18 -20.5 20t-26.5 -8q-29 -10 -46 -36t-28 -60z" />
<glyph unicode="&#xc6;" horiz-adv-x="880" d="M-4 276q10 63 12 129t2 132v98q0 66 -7 131t-7 131q0 53 2 114.5t12 114.5q0 55 3 107.5t26 97.5q23 41 39 82t49 76q20 43 84 43h59q43 -10 66.5 -39t34.5 -63q35 -53 47 -108.5t12 -121.5q0 -121 7 -246t7 -245q0 -86 -7 -164t-7 -154v-260v-102q0 -23 -2 -28t-12 -15 q-23 0 -28 9t-17 19v103v260q0 76 8 151.5t8 149.5v18q-78 10 -163 11.5t-171 1.5v-86v-189q-10 -43 -5 -94t5 -92q0 -35 -7 -74t-7 -72v-88q0 -10 -3 -17t-26 3v131q0 33 -7 66.5t-7 78.5zM53 752q86 0 166 -2.5t168 -12.5v15v303v86q-12 55 -23.5 116.5t-21.5 114.5 q0 33 -12.5 56.5t-44.5 46.5q-10 10 -25.5 15t-31 5t-28 -5t-18.5 -15q-41 -35 -64.5 -82t-33.5 -90q-12 -45 -21.5 -95.5t-9.5 -95.5v-215v-145zM467 799q0 88 2 172t12 162v319q12 10 6 20.5t-6 20.5q0 12 9.5 21.5t19.5 9.5q23 0 44 -2t42 -13q35 0 74 -2t71 -14l15 -14 q0 -10 -3 -18.5t-24 -8.5q-45 10 -96 13.5t-94 13.5q0 -174 -7.5 -344t-7.5 -336h103q10 0 18 -3t8 -26q0 -10 -8 -12t-18 -2q-23 0 -45.5 -7.5t-57.5 -7.5q10 -176 22.5 -342t22.5 -340q43 10 93.5 5t93.5 -5q23 -10 42 -12t31 -2q10 0 19.5 -8t9.5 -21q-10 -10 -21.5 -12 t-23.5 -2q-20 0 -41.5 2t-42.5 12q-45 12 -88 4t-86 -18q-35 0 -40 10.5t-5 32.5q-10 78 -11 153.5t-1 149.5q-12 90 -14.5 183.5t-2.5 181.5q0 23 -7 43t-7 43z" />
<glyph unicode="&#xc7;" horiz-adv-x="442" d="M0 696q0 76 7 150t7 149q10 76 14.5 143.5t14.5 143.5q0 33 9 64.5t20 64.5q6 27 23.5 48.5t41 34.5t52 18.5t55.5 -1.5q33 0 53 -19t31 -52q0 -33 8 -62.5t8 -52.5q0 -10 -2 -19.5t-14 -9.5l-15 15q-10 33 -18 55.5t-8 44.5q-10 33 -39 50.5t-62 6.5q-33 -10 -54 -33.5 t-32 -66.5q0 -66 -9 -122t-19 -122q0 -53 -2 -98t-13 -86q0 -98 -5 -186t5 -187q10 -45 14.5 -96t14.5 -104q10 -66 29.5 -122.5t42.5 -121.5q23 -33 45 -52.5t55 -19.5q23 0 33 3t10 26q20 23 31.5 45t11.5 55q0 10 6 21q4 6 8 8q10 10 19.5 10t9.5 -10q10 -23 12 -35 t2 -22q-23 -33 -37 -57.5t-36 -57.5q-20 -31 -50 -35t-63 6q-43 23 -67.5 47.5t-47.5 67.5q-23 66 -36 121t-35 108q-10 43 -12.5 77t-2.5 67q0 53 -7 104t-7 96zM78 -326q14 12 26.5 14.5t26.5 2.5q41 -12 69 -12.5t56 12.5q27 14 38 35.5t-3 35.5q0 53 -15.5 93.5 t-56.5 66.5q-12 14 -27.5 14.5t-41.5 -14.5h-37q-12 14 -12 24.5t12 10.5q53 29 95 27t83 -43t56.5 -94.5t15.5 -118.5q0 -14 -11.5 -27.5t-25.5 -26.5q-53 -41 -106.5 -52t-106.5 16q-12 0 -23.5 11t-11.5 25z" />
<glyph unicode="&#xc8;" horiz-adv-x="413" d="M-2 799q0 88 2 172t12 162v319q12 10 6 20.5t-6 20.5q0 12 9.5 21.5t19.5 9.5q23 0 44 -2t42 -13q35 0 74 -2t71 -14l15 -14q0 -10 -3 -18.5t-24 -8.5q-45 10 -96 13.5t-94 13.5q0 -174 -7.5 -344t-7.5 -336h103q10 0 18 -3t8 -26q0 -10 -8 -12t-18 -2q-23 0 -45.5 -7.5 t-57.5 -7.5q10 -176 22.5 -342t22.5 -340q43 10 93.5 5t93.5 -5q23 -10 42 -12t31 -2q10 0 19.5 -8t9.5 -21q-10 -10 -21.5 -12t-23.5 -2q-20 0 -41.5 2t-42.5 12q-45 12 -88 4t-86 -18q-35 0 -40 10.5t-5 32.5q-10 78 -11 153.5t-1 149.5q-12 90 -14.5 183.5t-2.5 181.5 q0 23 -7 43t-7 43zM125 1833q0 10 1 12.5t12 12.5h12q10 0 13 -1t13 -11q29 -39 56.5 -82t56.5 -80v-27q-4 -4 -8 -6q-11 -6 -19 -6q-10 10 -17 12t-7 13q-18 29 -43 62.5t-45 61.5q0 10 -7.5 19.5t-17.5 19.5z" />
<glyph unicode="&#xc9;" horiz-adv-x="413" d="M-2 799q0 88 2 172t12 162v319q12 10 6 20.5t-6 20.5q0 12 9.5 21.5t19.5 9.5q23 0 44 -2t42 -13q35 0 74 -2t71 -14l15 -14q0 -10 -3 -18.5t-24 -8.5q-45 10 -96 13.5t-94 13.5q0 -174 -7.5 -344t-7.5 -336h103q10 0 18 -3t8 -26q0 -10 -8 -12t-18 -2q-23 0 -45.5 -7.5 t-57.5 -7.5q10 -176 22.5 -342t22.5 -340q43 10 93.5 5t93.5 -5q23 -10 42 -12t31 -2q10 0 19.5 -8t9.5 -21q-10 -10 -21.5 -12t-23.5 -2q-20 0 -41.5 2t-42.5 12q-45 12 -88 4t-86 -18q-35 0 -40 10.5t-5 32.5q-10 78 -11 153.5t-1 149.5q-12 90 -14.5 183.5t-2.5 181.5 q0 23 -7 43t-7 43zM149 1651q0 8 10 19q10 31 20.5 67.5t20.5 67.5q10 23 23.5 30.5t44.5 -2.5q-8 -8 -12 -20q-2 -6 -3 -8q-10 -41 -26.5 -80t-26.5 -70q-20 -37 -41 -12q-10 0 -10 8z" />
<glyph unicode="&#xca;" horiz-adv-x="413" d="M-2 799q0 88 2 172t12 162v319q12 10 6 20.5t-6 20.5q0 12 9.5 21.5t19.5 9.5q23 0 44 -2t42 -13q35 0 74 -2t71 -14l15 -14q0 -10 -3 -18.5t-24 -8.5q-45 10 -96 13.5t-94 13.5q0 -174 -7.5 -344t-7.5 -336h103q10 0 18 -3t8 -26q0 -10 -8 -12t-18 -2q-23 0 -45.5 -7.5 t-57.5 -7.5q10 -176 22.5 -342t22.5 -340q43 10 93.5 5t93.5 -5q23 -10 42 -12t31 -2q10 0 19.5 -8t9.5 -21q-10 -10 -21.5 -12t-23.5 -2q-20 0 -41.5 2t-42.5 12q-45 12 -88 4t-86 -18q-35 0 -40 10.5t-5 32.5q-10 78 -11 153.5t-1 149.5q-12 90 -14.5 183.5t-2.5 181.5 q0 23 -7 43t-7 43zM99.5 1693q-5.5 1 2.5 9q0 16 7.5 30.5t15.5 23.5q15 32 33 65q16 8 26 -2t27 -20q25 -16 49.5 -39t48.5 -47q4 -6 8 -15q2 -4 2 -6q-25 -16 -37 -11t-28 21l-76 76q-8 -25 -21.5 -42t-21.5 -34q0 -10 -20 -10q-10 0 -15.5 1z" />
<glyph unicode="&#xcb;" horiz-adv-x="413" d="M-4 1724q0 41 19.5 74t58.5 33q41 0 60.5 -33t19.5 -74q0 -78 -80 -77q-78 0 -78 77zM-2 799q0 88 2 172t12 162v319q12 10 6 20.5t-6 20.5q0 12 9.5 21.5t19.5 9.5q23 0 44 -2t42 -13q35 0 74 -2t71 -14l15 -14q0 -10 -3 -18.5t-24 -8.5q-45 10 -96 13.5t-94 13.5 q0 -174 -7.5 -344t-7.5 -336h103q10 0 18 -3t8 -26q0 -10 -8 -12t-18 -2q-23 0 -45.5 -7.5t-57.5 -7.5q10 -176 22.5 -342t22.5 -340q43 10 93.5 5t93.5 -5q23 -10 42 -12t31 -2q10 0 19.5 -8t9.5 -21q-10 -10 -21.5 -12t-23.5 -2q-20 0 -41.5 2t-42.5 12q-45 12 -88 4 t-86 -18q-35 0 -40 10.5t-5 32.5q-10 78 -11 153.5t-1 149.5q-12 90 -14.5 183.5t-2.5 181.5q0 23 -7 43t-7 43zM263 1724q0 41 19 74t58 33q41 0 60.5 -33t19.5 -74q0 -78 -80 -77q-78 0 -77 77z" />
<glyph unicode="&#xcc;" horiz-adv-x="315" d="M2 1507q12 10 15 14.5t14 14.5h100h72q12 0 15 -7t13 -7q-10 -10 -13 -19.5t-15 -9.5h-72q12 -66 14 -122t2 -122q10 -53 6.5 -107.5t6.5 -107.5q0 -86 2 -172t14 -172v-258q0 -76 8.5 -150.5t18.5 -150.5v-43q0 -23 2 -26t14 -3q23 0 41.5 4.5t28.5 -18.5 q-10 -23 -28.5 -26t-41.5 -3q-33 0 -65.5 -7t-65.5 -7h-57q-10 23 -2 28t30 15q23 0 44.5 2t43.5 12q0 33 -2 65t-14 64q0 76 -6 151t-6 150q0 86 -8.5 172.5t-8.5 172.5v215q-10 76 -12 157.5t-2 157.5q0 33 -6 64.5t-6 64.5h-45q-10 0 -13.5 7t-15.5 7zM76 1833 q0 10 1 12.5t12 12.5h12q10 0 13 -1t13 -11q29 -39 56.5 -82t56.5 -80v-27q-4 -4 -8 -6q-11 -6 -19 -6q-10 10 -17 12t-7 13q-18 29 -43 62.5t-45 61.5q0 10 -7.5 19.5t-17.5 19.5z" />
<glyph unicode="&#xcd;" horiz-adv-x="315" d="M2 1507q12 10 15 14.5t14 14.5h100h72q12 0 15 -7t13 -7q-10 -10 -13 -19.5t-15 -9.5h-72q12 -66 14 -122t2 -122q10 -53 6.5 -107.5t6.5 -107.5q0 -86 2 -172t14 -172v-258q0 -76 8.5 -150.5t18.5 -150.5v-43q0 -23 2 -26t14 -3q23 0 41.5 4.5t28.5 -18.5 q-10 -23 -28.5 -26t-41.5 -3q-33 0 -65.5 -7t-65.5 -7h-57q-10 23 -2 28t30 15q23 0 44.5 2t43.5 12q0 33 -2 65t-14 64q0 76 -6 151t-6 150q0 86 -8.5 172.5t-8.5 172.5v215q-10 76 -12 157.5t-2 157.5q0 33 -6 64.5t-6 64.5h-45q-10 0 -13.5 7t-15.5 7zM100 1651 q0 8 10 19q10 31 20.5 67.5t20.5 67.5q10 23 23.5 30.5t44.5 -2.5q-8 -8 -12 -20q-2 -6 -3 -8q-10 -41 -26.5 -80t-26.5 -70q-20 -37 -41 -12q-10 0 -10 8z" />
<glyph unicode="&#xce;" horiz-adv-x="315" d="M2 1507q12 10 15 14.5t14 14.5h100h72q12 0 15 -7t13 -7q-10 -10 -13 -19.5t-15 -9.5h-72q12 -66 14 -122t2 -122q10 -53 6.5 -107.5t6.5 -107.5q0 -86 2 -172t14 -172v-258q0 -76 8.5 -150.5t18.5 -150.5v-43q0 -23 2 -26t14 -3q23 0 41.5 4.5t28.5 -18.5 q-10 -23 -28.5 -26t-41.5 -3q-33 0 -65.5 -7t-65.5 -7h-57q-10 23 -2 28t30 15q23 0 44.5 2t43.5 12q0 33 -2 65t-14 64q0 76 -6 151t-6 150q0 86 -8.5 172.5t-8.5 172.5v215q-10 76 -12 157.5t-2 157.5q0 33 -6 64.5t-6 64.5h-45q-10 0 -13.5 7t-15.5 7zM50.5 1693 q-5.5 1 2.5 9q0 16 7.5 30.5t15.5 23.5q15 32 33 65q16 8 26 -2t27 -20q25 -16 49.5 -39t48.5 -47q4 -6 8 -15q2 -4 2 -6q-25 -16 -37 -11t-28 21l-76 76q-8 -25 -21.5 -42t-21.5 -34q0 -10 -20 -10q-10 0 -15.5 1z" />
<glyph unicode="&#xcf;" horiz-adv-x="315" d="M-54 1724q0 41 19.5 74t58.5 33q41 0 60.5 -33t19.5 -74q0 -78 -80 -77q-78 0 -78 77zM2 1507q12 10 15 14.5t14 14.5h100h72q12 0 15 -7t13 -7q-10 -10 -13 -19.5t-15 -9.5h-72q12 -66 14 -122t2 -122q10 -53 6.5 -107.5t6.5 -107.5q0 -86 2 -172t14 -172v-258 q0 -76 8.5 -150.5t18.5 -150.5v-43q0 -23 2 -26t14 -3q23 0 41.5 4.5t28.5 -18.5q-10 -23 -28.5 -26t-41.5 -3q-33 0 -65.5 -7t-65.5 -7h-57q-10 23 -2 28t30 15q23 0 44.5 2t43.5 12q0 33 -2 65t-14 64q0 76 -6 151t-6 150q0 86 -8.5 172.5t-8.5 172.5v215 q-10 76 -12 157.5t-2 157.5q0 33 -6 64.5t-6 64.5h-45q-10 0 -13.5 7t-15.5 7zM213 1724q0 41 19 74t58 33q41 0 60.5 -33t19.5 -74q0 -78 -80 -77q-78 0 -77 77z" />
<glyph unicode="&#xd0;" horiz-adv-x="780" d="M-2 748q0 10 9 18t20 8h143h143q63 0 126 7t116 7h55q23 0 27 -3t4 -23q0 -10 -9 -19.5t-22 -9.5h-127q-86 0 -180 -7t-190 -7h-86q-10 0 -19.5 3t-9.5 26zM240 1489q0 10 17 20.5t28 10.5q23 0 42 -2t42 -15q100 0 186 -43q41 -10 65.5 -45t34.5 -67q10 -66 21.5 -129.5 t21.5 -128.5q10 -33 12.5 -56.5t2.5 -56.5q0 -35 6 -67.5t6 -75.5v-402q0 -23 -6 -42t-6 -42q0 -43 -16.5 -80t-26.5 -78q-23 -23 -37.5 -42t-36.5 -42q-10 -10 -20.5 -20t-20.5 -10q-23 -10 -45.5 -28.5t-52.5 -29.5q-35 -20 -67 -22t-62 8q-23 0 -26 16.5t-3 26.5 q0 55 -2 108.5t-12 108.5q0 31 5 62.5t-5 62.5v158q0 55 -2 109.5t-13 117.5q0 88 -2 173t-14 171v230q0 33 -2 70.5t-12 70.5zM299 1460q10 -41 12 -91t2 -93q0 -66 2 -122t13 -120q0 -66 -5.5 -130t5.5 -130v-139q0 -45 6 -94t6 -92q0 -76 2 -152t12 -150v-114 q23 10 36 12t36 2q76 35 121 93.5t80 123.5q23 31 25.5 62.5t2.5 62.5q23 98 19 187.5t-4 185.5q-10 86 -14.5 164t-14.5 164q-10 43 -16.5 93t-28.5 93q-10 53 -35.5 99t-89.5 57q-10 10 -29.5 12t-29.5 2q-23 10 -52.5 12t-60.5 2z" />
<glyph unicode="&#xd1;" horiz-adv-x="456" d="M8 1004v397v88v43q23 0 35 -10.5t23 -32.5q47 -111 90 -214.5t88 -213.5q23 -66 51.5 -132.5t52.5 -131.5q0 -4 2 -9q2 -6 12 -6v45q-10 66 -12 139.5t-2 139.5v235q0 35 -8 67t-8 67q0 10 2 19t14 9q23 0 33 -3t10 -25q0 -113 7.5 -222.5t7.5 -220.5v-250 q10 -66 12 -132t2 -134q10 -53 12 -108.5t2 -110.5v-250q4 -4 6 -8q4 -8 -6 -8v-29q-10 -10 -26.5 -9t-16.5 23q0 35 -7 59.5t-7 59.5v88q0 10 6 21q4 6 8 8q0 10 -7 14t-7 15v221q0 35 -2 60.5t-13 58.5q0 10 -9 22t-21 35t-23.5 54.5t-21.5 64.5q-10 45 -29.5 90 t-42.5 102q-35 88 -75 176t-74 176v-176v-397v-190q0 -57 2 -120t14 -116v-281v-30q10 -10 3 -19.5t-19 -9.5q-10 0 -19.5 9t-9.5 20v45q-10 111 -12 212t-2 199q-10 133 -12.5 258t-2.5 259zM16 1612q0 47 14.5 88t61.5 63q23 10 53.5 8.5t53.5 -24.5q10 -10 29.5 -21.5 t29.5 -23.5q23 -23 44 -27t38.5 4.5t28 26.5t10.5 41q0 12 9 23.5t22 23.5q10 0 20 -4t10 -27t-11 -47t-29.5 -44.5t-43 -33t-53.5 -12.5q-23 -10 -38 -3t-38 20l-59 59q-23 23 -51.5 21.5t-38.5 -35.5q0 -8 -8 -21q-4 -6 -9 -10q0 -45 -45 -45z" />
<glyph unicode="&#xd2;" d="M-10 549q0 33 7 65.5t7 63.5v258q0 55 -7 117.5t-7 126.5q10 53 14 108t14 109q20 104 129 129q43 0 77 -4t67 -27q63 -18 86 -84q10 -43 26.5 -87t16.5 -87q10 -63 14 -135t15 -137q0 -43 -7.5 -84t-7.5 -74v-186q0 -53 7.5 -115t7.5 -115q0 -33 -7.5 -62.5t-7.5 -52.5 q-10 -33 -20.5 -64.5t-22.5 -64.5q-10 -66 -65.5 -95t-120.5 -19q-76 23 -120 76t-67 139q0 33 -7 74t-7 84t-2 76.5t-12 66.5zM47 520q0 -33 7 -57.5t7 -56.5v-99q10 -55 27.5 -105t58.5 -83q55 -43 100.5 -41t86.5 55q33 53 45 115.5t12 128.5q0 45 -7 87t-7 85 q0 98 7 201.5t7 201.5q0 63 -9 135t-20 138q0 53 -17 104t-40 94q-20 35 -51 47.5t-64 12.5q-33 -10 -54 -20.5t-36.5 -26t-23.5 -38t-15 -59.5v-57q0 -35 -7 -65.5t-7 -63.5q0 -53 7 -115.5t7 -115.5v-201v-201h-14zM155 1833q0 10 1 12.5t12 12.5h12q10 0 13 -1t13 -11 q29 -39 56.5 -82t56.5 -80v-27q-4 -4 -8 -6q-11 -6 -19 -6q-10 10 -17 12t-7 13q-18 29 -43 62.5t-45 61.5q0 10 -7.5 19.5t-17.5 19.5z" />
<glyph unicode="&#xd3;" d="M-10 549q0 33 7 65.5t7 63.5v258q0 55 -7 117.5t-7 126.5q10 53 14 108t14 109q20 104 129 129q43 0 77 -4t67 -27q63 -18 86 -84q10 -43 26.5 -87t16.5 -87q10 -63 14 -135t15 -137q0 -43 -7.5 -84t-7.5 -74v-186q0 -53 7.5 -115t7.5 -115q0 -33 -7.5 -62.5t-7.5 -52.5 q-10 -33 -20.5 -64.5t-22.5 -64.5q-10 -66 -65.5 -95t-120.5 -19q-76 23 -120 76t-67 139q0 33 -7 74t-7 84t-2 76.5t-12 66.5zM47 520q0 -33 7 -57.5t7 -56.5v-99q10 -55 27.5 -105t58.5 -83q55 -43 100.5 -41t86.5 55q33 53 45 115.5t12 128.5q0 45 -7 87t-7 85 q0 98 7 201.5t7 201.5q0 63 -9 135t-20 138q0 53 -17 104t-40 94q-20 35 -51 47.5t-64 12.5q-33 -10 -54 -20.5t-36.5 -26t-23.5 -38t-15 -59.5v-57q0 -35 -7 -65.5t-7 -63.5q0 -53 7 -115.5t7 -115.5v-201v-201h-14zM180 1651q0 8 10 19q10 31 20.5 67.5t20.5 67.5 q10 23 23.5 30.5t44.5 -2.5q-8 -8 -12 -20q-2 -6 -3 -8q-10 -41 -26.5 -80t-26.5 -70q-20 -37 -41 -12q-10 0 -10 8z" />
<glyph unicode="&#xd4;" d="M-10 549q0 33 7 65.5t7 63.5v258q0 55 -7 117.5t-7 126.5q10 53 14 108t14 109q20 104 129 129q43 0 77 -4t67 -27q63 -18 86 -84q10 -43 26.5 -87t16.5 -87q10 -63 14 -135t15 -137q0 -43 -7.5 -84t-7.5 -74v-186q0 -53 7.5 -115t7.5 -115q0 -33 -7.5 -62.5t-7.5 -52.5 q-10 -33 -20.5 -64.5t-22.5 -64.5q-10 -66 -65.5 -95t-120.5 -19q-76 23 -120 76t-67 139q0 33 -7 74t-7 84t-2 76.5t-12 66.5zM47 520q0 -33 7 -57.5t7 -56.5v-99q10 -55 27.5 -105t58.5 -83q55 -43 100.5 -41t86.5 55q33 53 45 115.5t12 128.5q0 45 -7 87t-7 85 q0 98 7 201.5t7 201.5q0 63 -9 135t-20 138q0 53 -17 104t-40 94q-20 35 -51 47.5t-64 12.5q-33 -10 -54 -20.5t-36.5 -26t-23.5 -38t-15 -59.5v-57q0 -35 -7 -65.5t-7 -63.5q0 -53 7 -115.5t7 -115.5v-201v-201h-14zM132.5 1693q-5.5 1 2.5 9q0 16 7.5 30.5t15.5 23.5 q15 32 33 65q16 8 26 -2t27 -20q25 -16 49.5 -39t48.5 -47q4 -6 8 -15q2 -4 2 -6q-25 -16 -37 -11t-28 21l-76 76q-8 -25 -21.5 -42t-21.5 -34q0 -10 -20 -10q-10 0 -15.5 1z" />
<glyph unicode="&#xd5;" d="M-10 549q0 33 7 65.5t7 63.5v258q0 55 -7 117.5t-7 126.5q10 53 14 108t14 109q20 104 129 129q43 0 77 -4t67 -27q63 -18 86 -84q10 -43 26.5 -87t16.5 -87q10 -63 14 -135t15 -137q0 -43 -7.5 -84t-7.5 -74v-186q0 -53 7.5 -115t7.5 -115q0 -33 -7.5 -62.5t-7.5 -52.5 q-10 -33 -20.5 -64.5t-22.5 -64.5q-10 -66 -65.5 -95t-120.5 -19q-76 23 -120 76t-67 139q0 33 -7 74t-7 84t-2 76.5t-12 66.5zM26 1571q0 47 14.5 88t61.5 63q23 10 53.5 8.5t53.5 -24.5q10 -10 29.5 -21.5t29.5 -23.5q23 -23 44 -27t38.5 4.5t28 26.5t10.5 41q0 12 9 23.5 t22 23.5q10 0 20 -4t10 -27t-11 -47t-29.5 -44.5t-43 -33t-53.5 -12.5q-23 -10 -38 -3t-38 20l-59 59q-23 23 -51.5 21.5t-38.5 -35.5q0 -8 -8 -21q-4 -6 -9 -10q0 -45 -45 -45zM47 520q0 -33 7 -57.5t7 -56.5v-99q10 -55 27.5 -105t58.5 -83q55 -43 100.5 -41t86.5 55 q33 53 45 115.5t12 128.5q0 45 -7 87t-7 85q0 98 7 201.5t7 201.5q0 63 -9 135t-20 138q0 53 -17 104t-40 94q-20 35 -51 47.5t-64 12.5q-33 -10 -54 -20.5t-36.5 -26t-23.5 -38t-15 -59.5v-57q0 -35 -7 -65.5t-7 -63.5q0 -53 7 -115.5t7 -115.5v-201v-201h-14z" />
<glyph unicode="&#xd6;" d="M-10 549q0 33 7 65.5t7 63.5v258q0 55 -7 117.5t-7 126.5q10 53 14 108t14 109q20 104 129 129q43 0 77 -4t67 -27q63 -18 86 -84q10 -43 26.5 -87t16.5 -87q10 -63 14 -135t15 -137q0 -43 -7.5 -84t-7.5 -74v-186q0 -53 7.5 -115t7.5 -115q0 -33 -7.5 -62.5t-7.5 -52.5 q-10 -33 -20.5 -64.5t-22.5 -64.5q-10 -66 -65.5 -95t-120.5 -19q-76 23 -120 76t-67 139q0 33 -7 74t-7 84t-2 76.5t-12 66.5zM26 1724q0 41 19.5 74t58.5 33q41 0 60.5 -33t19.5 -74q0 -78 -80 -77q-78 0 -78 77zM47 520q0 -33 7 -57.5t7 -56.5v-99q10 -55 27.5 -105 t58.5 -83q55 -43 100.5 -41t86.5 55q33 53 45 115.5t12 128.5q0 45 -7 87t-7 85q0 98 7 201.5t7 201.5q0 63 -9 135t-20 138q0 53 -17 104t-40 94q-20 35 -51 47.5t-64 12.5q-33 -10 -54 -20.5t-36.5 -26t-23.5 -38t-15 -59.5v-57q0 -35 -7 -65.5t-7 -63.5q0 -53 7 -115.5 t7 -115.5v-201v-201h-14zM293 1724q0 41 19 74t58 33q41 0 60.5 -33t19.5 -74q0 -78 -80 -77q-78 0 -77 77z" />
<glyph unicode="&#xd7;" horiz-adv-x="688" d="M6 8v33q12 12 16.5 26.5t16.5 43.5q25 25 39 49t31 49q12 37 34.5 75t46.5 76q25 49 53.5 99.5t80.5 99.5q14 41 36.5 69.5t47.5 65.5q27 25 41 59.5t26 59.5q37 37 63.5 82t51.5 84q0 14 14 16t39 2q12 -14 14 -18t2 -16q-12 -12 -30.5 -25.5t-18.5 -26.5 q-29 -49 -55.5 -98t-62.5 -102q-12 -25 -33 -47.5t-35 -34.5q-37 -41 -55.5 -80t-44.5 -88q-51 -63 -84 -126t-82 -126q-12 -25 -16.5 -47.5t-16.5 -34.5q-12 -29 -26.5 -53.5t-26.5 -48.5q-25 0 -39.5 -2.5t-26.5 -14.5zM88 911v35v17q16 0 28.5 -2.5t24.5 -14.5 q12 -14 30.5 -28.5t18.5 -38.5q25 -61 51.5 -123t65.5 -111q12 -53 33.5 -102t34.5 -99q25 -27 37 -49t12 -35q14 -27 16 -41t2 -26q12 -39 24.5 -67.5t25.5 -65.5q25 -37 39 -65.5t26 -53.5q12 -12 10 -16.5t-26 -16.5q-10 0 -31 8l-18 9q-25 37 -39.5 84t-28.5 84 q-12 25 -32.5 66.5t-33.5 66.5q0 27 -10 51t-24 49q0 14 -8.5 26.5t-8.5 24.5q-25 37 -48 82t-36 86q-12 25 -22.5 49t-10.5 49q-37 41 -55 86t-47 82z" />
<glyph unicode="&#xd8;" d="M-10 549q0 33 7 65.5t7 63.5v258q0 55 -7 117.5t-7 126.5q10 53 14 108t14 109q20 104 129 129q43 0 77 -4t67 -27q63 -18 86 -84q10 -43 26.5 -87t16.5 -87q10 -63 14 -135t15 -137q0 -43 -7.5 -84t-7.5 -74v-186q0 -53 7.5 -115t7.5 -115q0 -33 -7.5 -62.5t-7.5 -52.5 q-10 -33 -20.5 -64.5t-22.5 -64.5q-10 -66 -65.5 -95t-120.5 -19q-76 23 -120 76t-67 139q0 33 -7 74t-7 84t-2 76.5t-12 66.5zM47 520q0 -33 7 -57.5t7 -56.5v-99q10 -55 27.5 -105t58.5 -83q55 -43 100.5 -41t86.5 55q33 53 45 115.5t12 128.5q0 45 -7 87t-7 85 q0 98 7 201.5t7 201.5q0 63 -9 135t-20 138q0 53 -17 104t-40 94q-20 35 -51 47.5t-64 12.5q-33 -10 -54 -20.5t-36.5 -26t-23.5 -38t-15 -59.5v-57q0 -35 -7 -65.5t-7 -63.5q0 -53 7 -115.5t7 -115.5v-201v-201h-14zM94 8v33q0 35 2 61.5t14 49.5q0 35 2 71.5t15 73.5 q0 72 10 133.5t20 120.5q12 72 24.5 153.5t25.5 167.5q10 47 22 95.5t25 95.5q12 47 16 88t14 88q14 72 25.5 136.5t24.5 135.5q0 10 10 19.5t22 -4.5q12 0 14.5 -9.5t2.5 -21.5q0 -25 -8.5 -48.5t-8.5 -47.5q-12 -72 -24 -143.5t-25 -143.5q-10 -37 -21.5 -72.5 t-11.5 -70.5q-10 -61 -22 -129t-25 -129q-12 -96 -31.5 -190.5t-31.5 -190.5q0 -37 -2 -74t-15 -72q0 -37 -9 -72.5t-21 -70.5q0 -12 -10.5 -16.5t-22.5 -16.5z" />
<glyph unicode="&#xd9;" horiz-adv-x="456" d="M0 997v185v213q0 23 2 54.5t14 66.5q-4 6 -4 14q0 6 3 11t16 5q12 0 21 -9t9 -21v-76q0 -68 -2 -139.5t-12 -151.5q0 -68 7 -136.5t7 -138.5v-167v-121q0 -80 2.5 -150.5t12.5 -140.5q0 -35 9 -77t21 -77q12 -23 34 -43t44 -32q16 -12 40 -12.5t45.5 10t37 30t15.5 47.5 q10 82 19 162t9 160q0 127 -8 249t-8 238v428q0 35 -6 69t-6 69q2 6 8 14q8 16 20 16t21.5 -4t9.5 -26q12 -23 14 -53.5t2 -53.5v-350q0 -59 2 -113.5t13 -101.5v-275q0 -92 6 -183t-6 -183q0 -47 -21.5 -90t-56.5 -78q-45 -23 -83 -25t-83 10q-29 6 -50.5 19.5t-36.5 33 t-26.5 45t-23.5 54.5q-10 72 -12.5 147.5t-2.5 143.5v168q-12 92 -14 183t-2 183zM102 1833q0 10 1 12.5t12 12.5h12q10 0 13 -1t13 -11q29 -39 56.5 -82t56.5 -80v-27q-4 -4 -8 -6q-11 -6 -19 -6q-10 10 -17 12t-7 13q-18 29 -43 62.5t-45 61.5q0 10 -7.5 19.5t-17.5 19.5z " />
<glyph unicode="&#xda;" horiz-adv-x="456" d="M0 997v185v213q0 23 2 54.5t14 66.5q-4 6 -4 14q0 6 3 11t16 5q12 0 21 -9t9 -21v-76q0 -68 -2 -139.5t-12 -151.5q0 -68 7 -136.5t7 -138.5v-167v-121q0 -80 2.5 -150.5t12.5 -140.5q0 -35 9 -77t21 -77q12 -23 34 -43t44 -32q16 -12 40 -12.5t45.5 10t37 30t15.5 47.5 q10 82 19 162t9 160q0 127 -8 249t-8 238v428q0 35 -6 69t-6 69q2 6 8 14q8 16 20 16t21.5 -4t9.5 -26q12 -23 14 -53.5t2 -53.5v-350q0 -59 2 -113.5t13 -101.5v-275q0 -92 6 -183t-6 -183q0 -47 -21.5 -90t-56.5 -78q-45 -23 -83 -25t-83 10q-29 6 -50.5 19.5t-36.5 33 t-26.5 45t-23.5 54.5q-10 72 -12.5 147.5t-2.5 143.5v168q-12 92 -14 183t-2 183zM170 1651q0 8 10 19q10 31 20.5 67.5t20.5 67.5q10 23 23.5 30.5t44.5 -2.5q-8 -8 -12 -20q-2 -6 -3 -8q-10 -41 -26.5 -80t-26.5 -70q-20 -37 -41 -12q-10 0 -10 8z" />
<glyph unicode="&#xdb;" horiz-adv-x="456" d="M0 997v185v213q0 23 2 54.5t14 66.5q-4 6 -4 14q0 6 3 11t16 5q12 0 21 -9t9 -21v-76q0 -68 -2 -139.5t-12 -151.5q0 -68 7 -136.5t7 -138.5v-167v-121q0 -80 2.5 -150.5t12.5 -140.5q0 -35 9 -77t21 -77q12 -23 34 -43t44 -32q16 -12 40 -12.5t45.5 10t37 30t15.5 47.5 q10 82 19 162t9 160q0 127 -8 249t-8 238v428q0 35 -6 69t-6 69q2 6 8 14q8 16 20 16t21.5 -4t9.5 -26q12 -23 14 -53.5t2 -53.5v-350q0 -59 2 -113.5t13 -101.5v-275q0 -92 6 -183t-6 -183q0 -47 -21.5 -90t-56.5 -78q-45 -23 -83 -25t-83 10q-29 6 -50.5 19.5t-36.5 33 t-26.5 45t-23.5 54.5q-10 72 -12.5 147.5t-2.5 143.5v168q-12 92 -14 183t-2 183zM122.5 1693q-5.5 1 2.5 9q0 16 7.5 30.5t15.5 23.5q15 32 33 65q16 8 26 -2t27 -20q25 -16 49.5 -39t48.5 -47q4 -6 8 -15q2 -4 2 -6q-25 -16 -37 -11t-28 21l-76 76q-8 -25 -21.5 -42 t-21.5 -34q0 -10 -20 -10q-10 0 -15.5 1z" />
<glyph unicode="&#xdc;" horiz-adv-x="456" d="M0 997v185v213q0 23 2 54.5t14 66.5q-4 6 -4 14q0 6 3 11t16 5q12 0 21 -9t9 -21v-76q0 -68 -2 -139.5t-12 -151.5q0 -68 7 -136.5t7 -138.5v-167v-121q0 -80 2.5 -150.5t12.5 -140.5q0 -35 9 -77t21 -77q12 -23 34 -43t44 -32q16 -12 40 -12.5t45.5 10t37 30t15.5 47.5 q10 82 19 162t9 160q0 127 -8 249t-8 238v428q0 35 -6 69t-6 69q2 6 8 14q8 16 20 16t21.5 -4t9.5 -26q12 -23 14 -53.5t2 -53.5v-350q0 -59 2 -113.5t13 -101.5v-275q0 -92 6 -183t-6 -183q0 -47 -21.5 -90t-56.5 -78q-45 -23 -83 -25t-83 10q-29 6 -50.5 19.5t-36.5 33 t-26.5 45t-23.5 54.5q-10 72 -12.5 147.5t-2.5 143.5v168q-12 92 -14 183t-2 183zM16 1724q0 41 19.5 74t58.5 33q41 0 60.5 -33t19.5 -74q0 -78 -80 -77q-78 0 -78 77zM283 1724q0 41 19 74t58 33q41 0 60.5 -33t19.5 -74q0 -78 -80 -77q-78 0 -77 77z" />
<glyph unicode="&#xdd;" horiz-adv-x="464" d="M6 1499q0 12 7 16.5t7 14.5q8 0 21 -8q6 -4 10 -6q10 -35 14.5 -58.5t14.5 -46.5q23 -78 52.5 -156.5t51.5 -169.5q10 -45 21.5 -89t21.5 -87q0 -10 2.5 -12t12.5 -2q10 53 22 109.5t23 111.5q23 78 37 164t36 176q0 10 4.5 26.5t26.5 16.5q23 0 26 -9t3 -20 q-23 -78 -37 -156.5t-37 -168.5q-10 -66 -29.5 -139.5t-29.5 -139.5q0 -23 -7.5 -54.5t-7.5 -63.5q-12 0 -14 -11.5t-2 -34.5q12 -68 21.5 -126t9.5 -123q0 -78 7 -147.5t7 -135.5q0 -43 7 -78t7 -69q0 -10 -2 -19.5t-12 -9.5t-21.5 3t-23.5 26q0 23 -2 54.5t-12 61.5 q0 90 -2 178.5t-13 178.5q-10 78 -13 153.5t-15 141.5q-10 57 -21.5 109t-21.5 97q-35 100 -66 199.5t-53 200.5q-12 23 -16.5 51.5t-14.5 50.5zM174 1651q0 8 10 19q10 31 20.5 67.5t20.5 67.5q10 23 23.5 30.5t44.5 -2.5q-8 -8 -12 -20q-2 -6 -3 -8q-10 -41 -26.5 -80 t-26.5 -70q-20 -37 -41 -12q-10 0 -10 8z" />
<glyph unicode="&#xde;" horiz-adv-x="436" d="M18 371l17 14q6 -8 20 -12q6 -2 11 -2q8 -12 12 -23q2 -6 2 -8q12 -12 39.5 -21.5t48.5 -9.5q47 -10 71.5 -3t39.5 18q10 12 18 31.5t8 29.5q10 12 20.5 30.5t10.5 30.5q10 23 18 47.5t-4 55.5v61q-23 23 -37 46.5t-34 45.5q-14 10 -39 19.5t-72 9.5q-18 25 -43 0 q-16 0 -33 -8l-12 -6q0 -10 -9.5 -12.5t-21.5 -2.5q-4 0 -8 3q-6 2 -6 12q-12 0 -12 7t12 7q10 0 24.5 8.5t36.5 8.5q23 10 53.5 5t67.5 -5q47 -12 71.5 -31t47.5 -31q10 -23 29.5 -38t31.5 -38q10 -10 12.5 -21t2.5 -22v-59q0 -23 -9.5 -46.5t-21.5 -45.5 q-10 -23 -22.5 -38.5t-22.5 -37.5q0 -12 -10.5 -21.5t-20.5 -9.5q-6 -12 -24.5 -17t-44 -7t-55 1t-56.5 9q-70 23 -90 45q0 10 -2 14t-15 17zM18 748v178q12 37 10.5 64.5t20.5 27.5q23 0 27 -20.5t4 -53.5v-334v-362q12 -135 16 -277.5t15 -277.5v-123q0 -47 -11.5 -59.5 t-33.5 -2.5q-4 8 -9 17q-8 20 -8 31q0 66 -2 144.5t-12 156.5q0 229 -2 446t-15 445z" />
<glyph unicode="&#xdf;" horiz-adv-x="540" d="M8 717v178q6 16 7 32.5t2 30t5.5 21.5t14.5 8q23 0 27 -20.5t4 -55.5v-329v-355q12 -135 15 -277.5t13 -277.5v-116q0 -45 -10 -58.5t-33 -1.5l-8 17q-8 16 -8 26q0 68 -1 144.5t-11 154.5q0 223 -2.5 439.5t-14.5 439.5zM53 807v29q0 35 18.5 58.5t41.5 45.5 q0 12 11 21.5t34 9.5q45 23 89 31t91 -15q53 -23 79.5 -58.5t37.5 -92.5v-105q12 -35 -2.5 -65.5t-26.5 -53.5t-30.5 -43t-28.5 -30q23 -23 44 -45.5t44 -44.5q12 -23 23 -44.5t22 -44.5q10 -57 26.5 -120.5t3.5 -116.5q0 -78 -13 -148.5t-46 -136.5q-35 -35 -72 -57.5 t-94 -32.5q-33 0 -63.5 -4t-53.5 18q-35 23 -49 46.5t-26 58.5q0 10 9 20.5t19 10.5q12 12 21.5 4t9.5 -21q0 -63 90 -88q33 -12 72 -1t61 46q35 33 47.5 74t12.5 74q12 68 19 126t-3 115q-12 43 -22.5 85t-22.5 77q-12 45 -57 75t-93 30q-10 0 -21 2t-22 12q-4 0 -8 2 q-8 4 -8 14l16 15h29q33 10 57.5 25.5t47.5 47.5q33 47 30.5 98.5t-2.5 96.5t-12 70.5t-45 48.5q-92 68 -180 0q-10 -6 -16.5 -16.5t-12.5 -25t-13 -30.5t-20 -33q0 -4 -2 -8q-4 -6 -10 -6q-10 -10 -23 -6q-6 2 -8 6z" />
<glyph unicode="&#xe0;" horiz-adv-x="452" d="M2 889q-6 6 4 6q8 27 18.5 56.5t28.5 45.5q16 27 40 37t50 10q35 0 68 -9t59 -25q18 -16 27.5 -27.5t19.5 -30.5q16 -35 18.5 -68.5t2.5 -68.5q0 -29 1 -54.5t11 -49.5q8 -53 -2 -99.5t-10 -97.5q-8 -18 -9 -34.5t-1 -33.5v-198q0 -33 6 -68t16 -69q0 -18 13.5 -29 t21.5 -29q0 -8 5 -16t-5 -19q-8 0 -21.5 1t-13.5 12q-16 27 -27.5 51t-27.5 51q-39 -76 -107 -90q-53 -39 -92 0q-16 27 -30.5 47.5t-24.5 54.5q0 27 -7 53.5t-18 61.5q-16 74 0 162q0 27 7.5 46t17.5 46q10 35 31.5 48t48.5 22q45 10 88 2t96 -25v127q0 35 -1 66.5t-9 60.5 q0 35 -1 61.5t-11 53.5q-10 35 -28.5 52t-53.5 28q-25 0 -45.5 5t-46.5 -5q-10 -10 -17.5 -19.5t-17.5 -25.5t-18.5 -41t-26.5 -41q-4 -2 -6 -4q-6 -4 -7 4q-8 0 -14 6zM50.5 409.5q-7.5 -51.5 2.5 -102.5q0 -35 11.5 -71.5t21.5 -77.5q0 -18 8 -41t27 -39 q10 -10 19.5 -16.5t27.5 4.5q16 10 36.5 19t31.5 38q10 8 17 16t7 19q8 16 16.5 26.5t18.5 20.5q0 6 -6 20.5t-6 22.5q0 63 6 121.5t6 109.5q0 16 1 37t-26 21q-27 10 -52 17t-50 7q-27 0 -52.5 -16.5t-41.5 -42.5q-16 -41 -23.5 -92.5zM143 1423q0 10 1 12.5t12 12.5h12 q10 0 13 -1t13 -11q29 -39 56.5 -82t56.5 -80v-27q-4 -4 -8 -6q-11 -6 -19 -6q-10 10 -17 12t-7 13q-18 29 -43 62.5t-45 61.5q0 10 -7.5 19.5t-17.5 19.5z" />
<glyph unicode="&#xe1;" horiz-adv-x="452" d="M2 889q-6 6 4 6q8 27 18.5 56.5t28.5 45.5q16 27 40 37t50 10q35 0 68 -9t59 -25q18 -16 27.5 -27.5t19.5 -30.5q16 -35 18.5 -68.5t2.5 -68.5q0 -29 1 -54.5t11 -49.5q8 -53 -2 -99.5t-10 -97.5q-8 -18 -9 -34.5t-1 -33.5v-198q0 -33 6 -68t16 -69q0 -18 13.5 -29 t21.5 -29q0 -8 5 -16t-5 -19q-8 0 -21.5 1t-13.5 12q-16 27 -27.5 51t-27.5 51q-39 -76 -107 -90q-53 -39 -92 0q-16 27 -30.5 47.5t-24.5 54.5q0 27 -7 53.5t-18 61.5q-16 74 0 162q0 27 7.5 46t17.5 46q10 35 31.5 48t48.5 22q45 10 88 2t96 -25v127q0 35 -1 66.5t-9 60.5 q0 35 -1 61.5t-11 53.5q-10 35 -28.5 52t-53.5 28q-25 0 -45.5 5t-46.5 -5q-10 -10 -17.5 -19.5t-17.5 -25.5t-18.5 -41t-26.5 -41q-4 -2 -6 -4q-6 -4 -7 4q-8 0 -14 6zM50.5 409.5q-7.5 -51.5 2.5 -102.5q0 -35 11.5 -71.5t21.5 -77.5q0 -18 8 -41t27 -39 q10 -10 19.5 -16.5t27.5 4.5q16 10 36.5 19t31.5 38q10 8 17 16t7 19q8 16 16.5 26.5t18.5 20.5q0 6 -6 20.5t-6 22.5q0 63 6 121.5t6 109.5q0 16 1 37t-26 21q-27 10 -52 17t-50 7q-27 0 -52.5 -16.5t-41.5 -42.5q-16 -41 -23.5 -92.5zM168 1241q0 8 10 19q10 31 20.5 67.5 t20.5 67.5q10 23 23.5 30.5t44.5 -2.5q-8 -8 -12 -20q-2 -6 -3 -8q-10 -41 -26.5 -80t-26.5 -70q-20 -37 -41 -12q-10 0 -10 8z" />
<glyph unicode="&#xe2;" horiz-adv-x="452" d="M2 889q-6 6 4 6q8 27 18.5 56.5t28.5 45.5q16 27 40 37t50 10q35 0 68 -9t59 -25q18 -16 27.5 -27.5t19.5 -30.5q16 -35 18.5 -68.5t2.5 -68.5q0 -29 1 -54.5t11 -49.5q8 -53 -2 -99.5t-10 -97.5q-8 -18 -9 -34.5t-1 -33.5v-198q0 -33 6 -68t16 -69q0 -18 13.5 -29 t21.5 -29q0 -8 5 -16t-5 -19q-8 0 -21.5 1t-13.5 12q-16 27 -27.5 51t-27.5 51q-39 -76 -107 -90q-53 -39 -92 0q-16 27 -30.5 47.5t-24.5 54.5q0 27 -7 53.5t-18 61.5q-16 74 0 162q0 27 7.5 46t17.5 46q10 35 31.5 48t48.5 22q45 10 88 2t96 -25v127q0 35 -1 66.5t-9 60.5 q0 35 -1 61.5t-11 53.5q-10 35 -28.5 52t-53.5 28q-25 0 -45.5 5t-46.5 -5q-10 -10 -17.5 -19.5t-17.5 -25.5t-18.5 -41t-26.5 -41q-4 -2 -6 -4q-6 -4 -7 4q-8 0 -14 6zM50.5 409.5q-7.5 -51.5 2.5 -102.5q0 -35 11.5 -71.5t21.5 -77.5q0 -18 8 -41t27 -39 q10 -10 19.5 -16.5t27.5 4.5q16 10 36.5 19t31.5 38q10 8 17 16t7 19q8 16 16.5 26.5t18.5 20.5q0 6 -6 20.5t-6 22.5q0 63 6 121.5t6 109.5q0 16 1 37t-26 21q-27 10 -52 17t-50 7q-27 0 -52.5 -16.5t-41.5 -42.5q-16 -41 -23.5 -92.5zM120.5 1283q-5.5 1 2.5 9 q0 16 7.5 30.5t15.5 23.5q15 32 33 65q16 8 26 -2t27 -20q25 -16 49.5 -39t48.5 -47q4 -6 8 -15q2 -4 2 -6q-25 -16 -37 -11t-28 21l-76 76q-8 -25 -21.5 -42t-21.5 -34q0 -10 -20 -10q-10 0 -15.5 1z" />
<glyph unicode="&#xe3;" horiz-adv-x="452" d="M2 889q-6 6 4 6q8 27 18.5 56.5t28.5 45.5q16 27 40 37t50 10q35 0 68 -9t59 -25q18 -16 27.5 -27.5t19.5 -30.5q16 -35 18.5 -68.5t2.5 -68.5q0 -29 1 -54.5t11 -49.5q8 -53 -2 -99.5t-10 -97.5q-8 -18 -9 -34.5t-1 -33.5v-198q0 -33 6 -68t16 -69q0 -18 13.5 -29 t21.5 -29q0 -8 5 -16t-5 -19q-8 0 -21.5 1t-13.5 12q-16 27 -27.5 51t-27.5 51q-39 -76 -107 -90q-53 -39 -92 0q-16 27 -30.5 47.5t-24.5 54.5q0 27 -7 53.5t-18 61.5q-16 74 0 162q0 27 7.5 46t17.5 46q10 35 31.5 48t48.5 22q45 10 88 2t96 -25v127q0 35 -1 66.5t-9 60.5 q0 35 -1 61.5t-11 53.5q-10 35 -28.5 52t-53.5 28q-25 0 -45.5 5t-46.5 -5q-10 -10 -17.5 -19.5t-17.5 -25.5t-18.5 -41t-26.5 -41q-4 -2 -6 -4q-6 -4 -7 4q-8 0 -14 6zM14 1120q0 47 14.5 88t61.5 63q23 10 53.5 8.5t53.5 -24.5q10 -10 29.5 -21.5t29.5 -23.5 q23 -23 44 -27t38.5 4.5t28 26.5t10.5 41q0 12 9 23.5t22 23.5q10 0 20 -4t10 -27t-11 -47t-29.5 -44.5t-43 -33t-53.5 -12.5q-23 -10 -38 -3t-38 20l-59 59q-23 23 -51.5 21.5t-38.5 -35.5q0 -8 -8 -21q-4 -6 -9 -10q0 -45 -45 -45zM50.5 409.5q-7.5 -51.5 2.5 -102.5 q0 -35 11.5 -71.5t21.5 -77.5q0 -18 8 -41t27 -39q10 -10 19.5 -16.5t27.5 4.5q16 10 36.5 19t31.5 38q10 8 17 16t7 19q8 16 16.5 26.5t18.5 20.5q0 6 -6 20.5t-6 22.5q0 63 6 121.5t6 109.5q0 16 1 37t-26 21q-27 10 -52 17t-50 7q-27 0 -52.5 -16.5t-41.5 -42.5 q-16 -41 -23.5 -92.5z" />
<glyph unicode="&#xe4;" horiz-adv-x="452" d="M2 889q-6 6 4 6q8 27 18.5 56.5t28.5 45.5q16 27 40 37t50 10q35 0 68 -9t59 -25q18 -16 27.5 -27.5t19.5 -30.5q16 -35 18.5 -68.5t2.5 -68.5q0 -29 1 -54.5t11 -49.5q8 -53 -2 -99.5t-10 -97.5q-8 -18 -9 -34.5t-1 -33.5v-198q0 -33 6 -68t16 -69q0 -18 13.5 -29 t21.5 -29q0 -8 5 -16t-5 -19q-8 0 -21.5 1t-13.5 12q-16 27 -27.5 51t-27.5 51q-39 -76 -107 -90q-53 -39 -92 0q-16 27 -30.5 47.5t-24.5 54.5q0 27 -7 53.5t-18 61.5q-16 74 0 162q0 27 7.5 46t17.5 46q10 35 31.5 48t48.5 22q45 10 88 2t96 -25v127q0 35 -1 66.5t-9 60.5 q0 35 -1 61.5t-11 53.5q-10 35 -28.5 52t-53.5 28q-25 0 -45.5 5t-46.5 -5q-10 -10 -17.5 -19.5t-17.5 -25.5t-18.5 -41t-26.5 -41q-4 -2 -6 -4q-6 -4 -7 4q-8 0 -14 6zM14 1273q0 41 19.5 74t58.5 33q41 0 60.5 -33t19.5 -74q0 -78 -80 -77q-78 0 -78 77zM50.5 409.5 q-7.5 -51.5 2.5 -102.5q0 -35 11.5 -71.5t21.5 -77.5q0 -18 8 -41t27 -39q10 -10 19.5 -16.5t27.5 4.5q16 10 36.5 19t31.5 38q10 8 17 16t7 19q8 16 16.5 26.5t18.5 20.5q0 6 -6 20.5t-6 22.5q0 63 6 121.5t6 109.5q0 16 1 37t-26 21q-27 10 -52 17t-50 7 q-27 0 -52.5 -16.5t-41.5 -42.5q-16 -41 -23.5 -92.5zM281 1273q0 41 19 74t58 33q41 0 60.5 -33t19.5 -74q0 -78 -80 -77q-78 0 -77 77z" />
<glyph unicode="&#xe5;" horiz-adv-x="452" d="M2 889q-6 6 4 6q8 27 18.5 56.5t28.5 45.5q16 27 40 37t50 10q35 0 68 -9t59 -25q18 -16 27.5 -27.5t19.5 -30.5q16 -35 18.5 -68.5t2.5 -68.5q0 -29 1 -54.5t11 -49.5q8 -53 -2 -99.5t-10 -97.5q-8 -18 -9 -34.5t-1 -33.5v-198q0 -33 6 -68t16 -69q0 -18 13.5 -29 t21.5 -29q0 -8 5 -16t-5 -19q-8 0 -21.5 1t-13.5 12q-16 27 -27.5 51t-27.5 51q-39 -76 -107 -90q-53 -39 -92 0q-16 27 -30.5 47.5t-24.5 54.5q0 27 -7 53.5t-18 61.5q-16 74 0 162q0 27 7.5 46t17.5 46q10 35 31.5 48t48.5 22q45 10 88 2t96 -25v127q0 35 -1 66.5t-9 60.5 q0 35 -1 61.5t-11 53.5q-10 35 -28.5 52t-53.5 28q-25 0 -45.5 5t-46.5 -5q-10 -10 -17.5 -19.5t-17.5 -25.5t-18.5 -41t-26.5 -41q-4 -2 -6 -4q-6 -4 -7 4q-8 0 -14 6zM50.5 409.5q-7.5 -51.5 2.5 -102.5q0 -35 11.5 -71.5t21.5 -77.5q0 -18 8 -41t27 -39 q10 -10 19.5 -16.5t27.5 4.5q16 10 36.5 19t31.5 38q10 8 17 16t7 19q8 16 16.5 26.5t18.5 20.5q0 6 -6 20.5t-6 22.5q0 63 6 121.5t6 109.5q0 16 1 37t-26 21q-27 10 -52 17t-50 7q-27 0 -52.5 -16.5t-41.5 -42.5q-16 -41 -23.5 -92.5zM106 1280q10 53 32.5 96t76.5 60 q35 10 62.5 4t43.5 -51q18 -35 20.5 -78t-7.5 -78q-8 -18 -23.5 -34.5t-35 -27t-41 -11.5t-44.5 14q-18 8 -33.5 18t-25.5 29q-10 18 -17.5 30.5t-7.5 28.5zM153 1305q-8 -29 2.5 -53.5t46.5 -43.5q10 0 12.5 -1t12.5 -11q16 0 26.5 3t20.5 22q10 18 18.5 36.5t18.5 47.5 q-10 18 -18.5 36.5t-18.5 47.5q-10 18 -20.5 20t-26.5 -8q-29 -10 -46 -36t-28 -60z" />
<glyph unicode="&#xe6;" horiz-adv-x="761" d="M2 889q-6 6 4 6q8 27 18.5 56.5t28.5 45.5q16 27 40 37t50 10q35 0 68 -9t59 -25q18 -16 27.5 -27.5t19.5 -30.5q16 -35 18.5 -68.5t2.5 -68.5q0 -29 1 -54.5t11 -49.5q8 -53 -2 -99.5t-10 -97.5q-8 -18 -9 -34.5t-1 -33.5v-198q0 -33 6 -68t16 -69q0 -18 13.5 -29 t21.5 -29q0 -8 5 -16t-5 -19q-8 0 -21.5 1t-13.5 12q-16 27 -27.5 51t-27.5 51q-39 -76 -107 -90q-53 -39 -92 0q-16 27 -30.5 47.5t-24.5 54.5q0 27 -7 53.5t-18 61.5q-16 74 0 162q0 27 7.5 46t17.5 46q10 35 31.5 48t48.5 22q45 10 88 2t96 -25v127q0 35 -1 66.5t-9 60.5 q0 35 -1 61.5t-11 53.5q-10 35 -28.5 52t-53.5 28q-25 0 -45.5 5t-46.5 -5q-10 -10 -17.5 -19.5t-17.5 -25.5t-18.5 -41t-26.5 -41q-4 -2 -6 -4q-6 -4 -7 4q-8 0 -14 6zM50.5 409.5q-7.5 -51.5 2.5 -102.5q0 -35 11.5 -71.5t21.5 -77.5q0 -18 8 -41t27 -39 q10 -10 19.5 -16.5t27.5 4.5q16 10 36.5 19t31.5 38q10 8 17 16t7 19q8 16 16.5 26.5t18.5 20.5q0 6 -6 20.5t-6 22.5q0 63 6 121.5t6 109.5q0 16 1 37t-26 21q-27 10 -52 17t-50 7q-27 0 -52.5 -16.5t-41.5 -42.5q-16 -41 -23.5 -92.5zM366 289q-18 133 0 248q0 47 6.5 86 t6.5 75q10 37 12 81t12 81q0 18 1 43t12 43q10 39 31.5 71t68.5 42q37 10 81 7t81 -32q18 -18 28.5 -45.5t20.5 -66.5q10 -29 16 -51.5t-4 -59.5q0 -10 -7 -19.5t-17 -19.5h-74q-39 10 -82 13.5t-80 13.5q-10 0 -20.5 -7.5t-30.5 -7.5q0 -47 -6 -93t-6 -93 q-10 -37 -11.5 -71.5t-1.5 -63.5q0 -57 1 -104.5t12 -94.5q0 -90 38 -162q10 -29 34 -47t53 -28q29 0 53 15t35 36q18 10 28 26.5t21 34.5v49q0 18 15.5 26.5t33.5 -1.5q0 -37 -15.5 -74t-33.5 -75q-18 -23 -47 -38.5t-61 -21.5t-62.5 -1t-53.5 24q-29 18 -41 44.5t-22 55.5 q-10 37 -12 80t-13 82zM440 823h113q29 0 58.5 -1t66.5 -11q10 0 17 3t7 22q-10 18 -12 42.5t-12 43.5q-18 113 -150 112q-10 0 -17 -1t-7 -11q-10 -18 -18.5 -30.5t-18.5 -32.5q-20 -37 -23.5 -68t-3.5 -68z" />
<glyph unicode="&#xe7;" horiz-adv-x="335" d="M0 197q0 51 1 101t9 99q0 51 1 108.5t12 117.5q0 59 9 116.5t36 108.5q8 16 16 38.5t16 39.5q35 72 113 57q35 0 52.5 -22.5t27.5 -57.5q0 -16 -3.5 -19t-19.5 -3q-10 35 -27.5 51t-52.5 16q-39 20 -55 -33q-16 -51 -37.5 -103t-29.5 -112q-10 -25 -11.5 -50t-1.5 -60 q-8 -35 -9 -76t-1 -82q0 -59 -5 -117.5t5 -117.5q0 -43 9 -77t36 -59q12 -12 31.5 -16t40 -1t38 13.5t25.5 26.5q8 35 9.5 55.5t1.5 44.5q0 16 1 25.5t11 9.5q8 8 15 3t7 -15q0 -35 -3 -73t-19 -73q-10 -8 -17.5 -16t-17.5 -16q-25 -16 -51.5 -19.5t-61.5 -3.5 q-16 8 -25 18.5t-20 26.5q-25 33 -40 68t-15 78zM24 -326q14 12 26.5 14.5t26.5 2.5q41 -12 69 -12.5t56 12.5q27 14 38 35.5t-3 35.5q0 53 -15.5 93.5t-56.5 66.5q-12 14 -27.5 14.5t-41.5 -14.5h-37q-12 14 -12 24.5t12 10.5q53 29 95 27t83 -43t56.5 -94.5t15.5 -118.5 q0 -14 -11.5 -27.5t-25.5 -26.5q-53 -41 -106.5 -52t-106.5 16q-12 0 -23.5 11t-11.5 25z" />
<glyph unicode="&#xe8;" horiz-adv-x="448" d="M18 291q-18 133 0 248q0 47 6.5 86t6.5 75q10 37 12 81t12 81q0 18 1 43t12 43q10 39 31.5 71t68.5 42q37 10 81 7t81 -32q18 -18 28.5 -45.5t20.5 -66.5q10 -29 16 -51.5t-4 -59.5q0 -10 -7 -19.5t-17 -19.5h-74q-39 10 -82 13.5t-80 13.5q-10 0 -20.5 -7.5t-30.5 -7.5 q0 -47 -6 -93t-6 -93q-10 -37 -11.5 -71.5t-1.5 -63.5q0 -57 1 -104.5t12 -94.5q0 -90 38 -162q10 -29 34 -47t53 -28q29 0 53 15t35 36q18 10 28 26.5t21 34.5v49q0 18 15.5 26.5t33.5 -1.5q0 -37 -15.5 -74t-33.5 -75q-18 -23 -47 -38.5t-61 -21.5t-62.5 -1t-53.5 24 q-29 18 -41 44.5t-22 55.5q-10 37 -12 80t-13 82zM92 825h113q29 0 58.5 -1t66.5 -11q10 0 17 3t7 22q-10 18 -12 42.5t-12 43.5q-18 113 -150 112q-10 0 -17 -1t-7 -11q-10 -18 -18.5 -30.5t-18.5 -32.5q-20 -37 -23.5 -68t-3.5 -68zM141 1423q0 10 1 12.5t12 12.5h12 q10 0 13 -1t13 -11q29 -39 56.5 -82t56.5 -80v-27q-4 -4 -8 -6q-11 -6 -19 -6q-10 10 -17 12t-7 13q-18 29 -43 62.5t-45 61.5q0 10 -7.5 19.5t-17.5 19.5z" />
<glyph unicode="&#xe9;" horiz-adv-x="448" d="M18 291q-18 133 0 248q0 47 6.5 86t6.5 75q10 37 12 81t12 81q0 18 1 43t12 43q10 39 31.5 71t68.5 42q37 10 81 7t81 -32q18 -18 28.5 -45.5t20.5 -66.5q10 -29 16 -51.5t-4 -59.5q0 -10 -7 -19.5t-17 -19.5h-74q-39 10 -82 13.5t-80 13.5q-10 0 -20.5 -7.5t-30.5 -7.5 q0 -47 -6 -93t-6 -93q-10 -37 -11.5 -71.5t-1.5 -63.5q0 -57 1 -104.5t12 -94.5q0 -90 38 -162q10 -29 34 -47t53 -28q29 0 53 15t35 36q18 10 28 26.5t21 34.5v49q0 18 15.5 26.5t33.5 -1.5q0 -37 -15.5 -74t-33.5 -75q-18 -23 -47 -38.5t-61 -21.5t-62.5 -1t-53.5 24 q-29 18 -41 44.5t-22 55.5q-10 37 -12 80t-13 82zM92 825h113q29 0 58.5 -1t66.5 -11q10 0 17 3t7 22q-10 18 -12 42.5t-12 43.5q-18 113 -150 112q-10 0 -17 -1t-7 -11q-10 -18 -18.5 -30.5t-18.5 -32.5q-20 -37 -23.5 -68t-3.5 -68zM166 1241q0 8 10 19q10 31 20.5 67.5 t20.5 67.5q10 23 23.5 30.5t44.5 -2.5q-8 -8 -12 -20q-2 -6 -3 -8q-10 -41 -26.5 -80t-26.5 -70q-20 -37 -41 -12q-10 0 -10 8z" />
<glyph unicode="&#xea;" horiz-adv-x="448" d="M18 291q-18 133 0 248q0 47 6.5 86t6.5 75q10 37 12 81t12 81q0 18 1 43t12 43q10 39 31.5 71t68.5 42q37 10 81 7t81 -32q18 -18 28.5 -45.5t20.5 -66.5q10 -29 16 -51.5t-4 -59.5q0 -10 -7 -19.5t-17 -19.5h-74q-39 10 -82 13.5t-80 13.5q-10 0 -20.5 -7.5t-30.5 -7.5 q0 -47 -6 -93t-6 -93q-10 -37 -11.5 -71.5t-1.5 -63.5q0 -57 1 -104.5t12 -94.5q0 -90 38 -162q10 -29 34 -47t53 -28q29 0 53 15t35 36q18 10 28 26.5t21 34.5v49q0 18 15.5 26.5t33.5 -1.5q0 -37 -15.5 -74t-33.5 -75q-18 -23 -47 -38.5t-61 -21.5t-62.5 -1t-53.5 24 q-29 18 -41 44.5t-22 55.5q-10 37 -12 80t-13 82zM92 825h113q29 0 58.5 -1t66.5 -11q10 0 17 3t7 22q-10 18 -12 42.5t-12 43.5q-18 113 -150 112q-10 0 -17 -1t-7 -11q-10 -18 -18.5 -30.5t-18.5 -32.5q-20 -37 -23.5 -68t-3.5 -68zM118.5 1283q-5.5 1 2.5 9 q0 16 7.5 30.5t15.5 23.5q15 32 33 65q16 8 26 -2t27 -20q25 -16 49.5 -39t48.5 -47q4 -6 8 -15q2 -4 2 -6q-25 -16 -37 -11t-28 21l-76 76q-8 -25 -21.5 -42t-21.5 -34q0 -10 -20 -10q-10 0 -15.5 1z" />
<glyph unicode="&#xeb;" horiz-adv-x="448" d="M12 1294q0 41 19.5 74t58.5 33q41 0 60.5 -33t19.5 -74q0 -78 -80 -77q-78 0 -78 77zM18 291q-18 133 0 248q0 47 6.5 86t6.5 75q10 37 12 81t12 81q0 18 1 43t12 43q10 39 31.5 71t68.5 42q37 10 81 7t81 -32q18 -18 28.5 -45.5t20.5 -66.5q10 -29 16 -51.5t-4 -59.5 q0 -10 -7 -19.5t-17 -19.5h-74q-39 10 -82 13.5t-80 13.5q-10 0 -20.5 -7.5t-30.5 -7.5q0 -47 -6 -93t-6 -93q-10 -37 -11.5 -71.5t-1.5 -63.5q0 -57 1 -104.5t12 -94.5q0 -90 38 -162q10 -29 34 -47t53 -28q29 0 53 15t35 36q18 10 28 26.5t21 34.5v49q0 18 15.5 26.5 t33.5 -1.5q0 -37 -15.5 -74t-33.5 -75q-18 -23 -47 -38.5t-61 -21.5t-62.5 -1t-53.5 24q-29 18 -41 44.5t-22 55.5q-10 37 -12 80t-13 82zM92 825h113q29 0 58.5 -1t66.5 -11q10 0 17 3t7 22q-10 18 -12 42.5t-12 43.5q-18 113 -150 112q-10 0 -17 -1t-7 -11 q-10 -18 -18.5 -30.5t-18.5 -32.5q-20 -37 -23.5 -68t-3.5 -68zM279 1294q0 41 19 74t58 33q41 0 60.5 -33t19.5 -74q0 -78 -80 -77q-78 0 -77 77z" />
<glyph unicode="&#xec;" horiz-adv-x="167" d="M0 1094v24q0 20 16.5 35.5t36.5 5.5q10 0 12.5 -2t12.5 -12q20 -20 20 -32.5t-20 -33.5q-18 -10 -43 -8t-35 23zM2 1423q0 10 1 12.5t12 12.5h12q10 0 13 -1t13 -11q29 -39 56.5 -82t56.5 -80v-27q-4 -4 -8 -6q-11 -6 -19 -6q-10 10 -17 12t-7 13q-18 29 -43 62.5 t-45 61.5q0 10 -7.5 19.5t-17.5 19.5zM39 963q0 39 6 43.5t47 -5.5v-104q10 -59 11 -118.5t1 -119.5q0 -88 7.5 -169.5t7.5 -170.5v-223q0 -20 1 -32.5t11 -32.5q0 -20 -14.5 -28.5t-24.5 1.5q-10 0 -12 6q-2 4 -2 8v156q-10 49 -11 98.5t-1 98.5v118q0 78 -6.5 158 t-6.5 158q0 39 -2 78t-12 80z" />
<glyph unicode="&#xed;" horiz-adv-x="167" d="M0 1094v24q0 20 16.5 35.5t36.5 5.5q10 0 12.5 -2t12.5 -12q20 -20 20 -32.5t-20 -33.5q-18 -10 -43 -8t-35 23zM27 1241q0 8 10 19q10 31 20.5 67.5t20.5 67.5q10 23 23.5 30.5t44.5 -2.5q-8 -8 -12 -20q-2 -6 -3 -8q-10 -41 -26.5 -80t-26.5 -70q-20 -37 -41 -12 q-10 0 -10 8zM39 963q0 39 6 43.5t47 -5.5v-104q10 -59 11 -118.5t1 -119.5q0 -88 7.5 -169.5t7.5 -170.5v-223q0 -20 1 -32.5t11 -32.5q0 -20 -14.5 -28.5t-24.5 1.5q-10 0 -12 6q-2 4 -2 8v156q-10 49 -11 98.5t-1 98.5v118q0 78 -6.5 158t-6.5 158q0 39 -2 78t-12 80z " />
<glyph unicode="&#xee;" horiz-adv-x="167" d="M-21.5 1283q-5.5 1 2.5 9q0 16 7.5 30.5t15.5 23.5q15 32 33 65q16 8 26 -2t27 -20q25 -16 49.5 -39t48.5 -47q4 -6 8 -15q2 -4 2 -6q-25 -16 -37 -11t-28 21l-76 76q-8 -25 -21.5 -42t-21.5 -34q0 -10 -20 -10q-10 0 -15.5 1zM0 1094v24q0 20 16.5 35.5t36.5 5.5 q10 0 12.5 -2t12.5 -12q20 -20 20 -32.5t-20 -33.5q-18 -10 -43 -8t-35 23zM39 963q0 39 6 43.5t47 -5.5v-104q10 -59 11 -118.5t1 -119.5q0 -88 7.5 -169.5t7.5 -170.5v-223q0 -20 1 -32.5t11 -32.5q0 -20 -14.5 -28.5t-24.5 1.5q-10 0 -12 6q-2 4 -2 8v156 q-10 49 -11 98.5t-1 98.5v118q0 78 -6.5 158t-6.5 158q0 39 -2 78t-12 80z" />
<glyph unicode="&#xef;" horiz-adv-x="167" d="M-4 1128q0 16 9.5 31t25.5 15t24 -14.5t8 -31.5q0 -35 -32 -34q-35 0 -35 34zM39 963q0 39 6 43.5t47 -5.5v-104q10 -59 11 -118.5t1 -119.5q0 -88 7.5 -169.5t7.5 -170.5v-223q0 -20 1 -32.5t11 -32.5q0 -20 -14.5 -28.5t-24.5 1.5q-10 0 -12 6q-2 4 -2 8v156 q-10 49 -11 98.5t-1 98.5v118q0 78 -6.5 158t-6.5 158q0 39 -2 78t-12 80zM113 1128q0 16 8 31t24 15t25.5 -14.5t9.5 -31.5q0 -35 -35 -34q-33 0 -32 34z" />
<glyph unicode="&#xf0;" horiz-adv-x="419" d="M37 412q0 25 6 43t6 41v188q0 49 -6 91t-6 91q0 39 7 78t13 80q18 76 97 94q31 0 56.5 -1t49.5 -11q23 -16 33 -30.5t18 -31.5q16 -33 24.5 -69.5t18.5 -67.5q8 -49 9.5 -101t1.5 -99v-117v-137v-168v-84q-8 -25 -16.5 -48.5t-16.5 -48.5q-16 -47 -52 -68.5t-85 -4.5 q-55 10 -88 51t-50 98q-6 31 -7 61.5t-1 63.5q0 25 -6 49.5t-6 57.5zM78 295q10 -16 11 -36.5t1 -37.5q8 -41 19.5 -76.5t44.5 -60.5q41 -31 72.5 -30t62.5 40q25 47 30 89t13 91q0 31 -5 63t-5 62v297q0 55 -1.5 103.5t-9.5 95.5q0 41 -13 80t-30 78q-16 18 -38.5 30.5 t-45.5 1.5q-47 -6 -66.5 -28.5t-27.5 -75.5v-43q-10 -23 -11 -47.5t-1 -48.5v-166v-150v-147v-84zM121 1192v10q0 8 1 10t9 11q0 10 1 16t11 16q8 6 10.5 15.5t10.5 25.5t15 33t16 33q10 6 16 14t16 17q0 8 4.5 15t4.5 15q10 16 18 25.5t14 26.5q2 2 6 4q6 6 7 -4h8 q-6 -6 -7 -8.5t-1 -12.5q-10 -16 -16.5 -29.5t-16.5 -21.5t-12.5 -15.5t-8.5 -17.5q-10 -6 -16 -19.5t-16 -21.5q-8 -25 -15.5 -41t-15.5 -33q-8 -10 -10 -16t-11 -16q0 -8 -6 -10.5t-6 -10.5zM131 1466l12 9q2 -2 4 -2q2 -2 4.5 -2.5t2.5 -4.5l4 -8q2 -4 4 -6t2 -6 q8 -16 15 -31.5t16 -32.5q0 -16 7 -32.5t13 -32.5q0 -6 6 -8t6 -13q0 -6 1 -13t8 -7q0 -10 1 -22.5t11 -18.5q0 -10 7 -17.5t13 -15.5q-2 -4 -2 -6q-4 -4 -6 -4q-10 0 -11 1t-1 9q-10 8 -15.5 21.5t-5.5 19.5q-10 10 -11 22.5t-1 22.5q-6 6 -8 14.5t-12 14.5v12 q-8 16 -10.5 26.5t-10.5 26.5q0 8 -5 15.5t-5 15.5q-8 8 -10 21.5t-11 19.5z" />
<glyph unicode="&#xf1;" horiz-adv-x="423" d="M0 1161q0 47 14.5 88t61.5 63q23 10 53.5 8.5t53.5 -24.5q10 -10 29.5 -21.5t29.5 -23.5q23 -23 44 -27t38.5 4.5t28 26.5t10.5 41q0 12 9 23.5t22 23.5q10 0 20 -4t10 -27t-11 -47t-29.5 -44.5t-43 -33t-53.5 -12.5q-23 -10 -38 -3t-38 20l-59 59q-23 23 -51.5 21.5 t-38.5 -35.5q0 -8 -8 -21q-4 -6 -9 -10q0 -45 -45 -45zM8 1008v10q-23 18 0 37q18 0 27.5 -3t9.5 -22q8 -29 11.5 -56t13.5 -56q10 10 18 19t18 19q29 29 60 52.5t80 33.5q35 0 63.5 -16t46.5 -45q10 -29 17.5 -58.5t7.5 -66.5q0 -47 6 -93t6 -93q0 -66 -6 -125.5t-6 -124.5 q0 -47 -5 -95.5t-5 -103.5v-174v-39h-39l-13 12q0 37 6.5 67t6.5 58v189q0 55 1 110.5t11 112.5v113v135q0 29 -6 63.5t-6 61.5q-4 2 -6 8q-6 6 -7 18q-20 39 -53 46.5t-71 -21.5q-37 -29 -67 -63.5t-58 -73.5v-13v-286v-262q-10 -57 -5 -112.5t5 -113.5v-49 q-10 -10 -18.5 -11t-18.5 -1t-11.5 7t-1.5 17v263v198q10 66 5 130.5t-5 119.5v88q0 47 -6 94.5t-6 94.5z" />
<glyph unicode="&#xf2;" horiz-adv-x="405" d="M10 744.5q4 80.5 39 158.5q18 41 47 67.5t82 37.5q16 8 40 9t42 1q8 0 16.5 -5t18.5 -5q25 -45 36 -97.5t19 -111.5q0 -53 6 -104.5t6 -104.5v-70h13v-266q-10 -43 -12.5 -79t-12.5 -71q-16 -43 -42.5 -64.5t-71.5 -39.5q-84 -14 -152 35q-16 18 -26.5 35.5t-18.5 44.5 q-18 72 -19.5 139.5t9.5 126.5q0 53 -7.5 103.5t-7.5 93.5q-8 86 -4 166.5zM49 682q0 -43 7 -92t7 -92v-219q0 -35 1.5 -69t9.5 -60q8 -53 33.5 -79t70.5 -36q18 -4 40 0t42.5 15t35.5 27.5t19 37.5q0 45 6.5 81.5t6.5 82.5v231v68q-10 72 -16.5 139t-6.5 139 q-8 27 -17 52.5t-18 49.5q-8 10 -17 12.5t-17 2.5q-35 29 -70 0h-10q-29 -18 -45.5 -36.5t-26.5 -45.5q-16 -53 -25.5 -104.5t-9.5 -104.5zM121 1423q0 10 1 12.5t12 12.5h12q10 0 13 -1t13 -11q29 -39 56.5 -82t56.5 -80v-27q-4 -4 -8 -6q-11 -6 -19 -6q-10 10 -17 12 t-7 13q-18 29 -43 62.5t-45 61.5q0 10 -7.5 19.5t-17.5 19.5z" />
<glyph unicode="&#xf3;" horiz-adv-x="405" d="M10 744.5q4 80.5 39 158.5q18 41 47 67.5t82 37.5q16 8 40 9t42 1q8 0 16.5 -5t18.5 -5q25 -45 36 -97.5t19 -111.5q0 -53 6 -104.5t6 -104.5v-70h13v-266q-10 -43 -12.5 -79t-12.5 -71q-16 -43 -42.5 -64.5t-71.5 -39.5q-84 -14 -152 35q-16 18 -26.5 35.5t-18.5 44.5 q-18 72 -19.5 139.5t9.5 126.5q0 53 -7.5 103.5t-7.5 93.5q-8 86 -4 166.5zM49 682q0 -43 7 -92t7 -92v-219q0 -35 1.5 -69t9.5 -60q8 -53 33.5 -79t70.5 -36q18 -4 40 0t42.5 15t35.5 27.5t19 37.5q0 45 6.5 81.5t6.5 82.5v231v68q-10 72 -16.5 139t-6.5 139 q-8 27 -17 52.5t-18 49.5q-8 10 -17 12.5t-17 2.5q-35 29 -70 0h-10q-29 -18 -45.5 -36.5t-26.5 -45.5q-16 -53 -25.5 -104.5t-9.5 -104.5zM145 1241q0 8 10 19q10 31 20.5 67.5t20.5 67.5q10 23 23.5 30.5t44.5 -2.5q-8 -8 -12 -20q-2 -6 -3 -8q-10 -41 -26.5 -80 t-26.5 -70q-20 -37 -41 -12q-10 0 -10 8z" />
<glyph unicode="&#xf4;" horiz-adv-x="405" d="M10 744.5q4 80.5 39 158.5q18 41 47 67.5t82 37.5q16 8 40 9t42 1q8 0 16.5 -5t18.5 -5q25 -45 36 -97.5t19 -111.5q0 -53 6 -104.5t6 -104.5v-70h13v-266q-10 -43 -12.5 -79t-12.5 -71q-16 -43 -42.5 -64.5t-71.5 -39.5q-84 -14 -152 35q-16 18 -26.5 35.5t-18.5 44.5 q-18 72 -19.5 139.5t9.5 126.5q0 53 -7.5 103.5t-7.5 93.5q-8 86 -4 166.5zM49 682q0 -43 7 -92t7 -92v-219q0 -35 1.5 -69t9.5 -60q8 -53 33.5 -79t70.5 -36q18 -4 40 0t42.5 15t35.5 27.5t19 37.5q0 45 6.5 81.5t6.5 82.5v231v68q-10 72 -16.5 139t-6.5 139 q-8 27 -17 52.5t-18 49.5q-8 10 -17 12.5t-17 2.5q-35 29 -70 0h-10q-29 -18 -45.5 -36.5t-26.5 -45.5q-16 -53 -25.5 -104.5t-9.5 -104.5zM95.5 1283q-5.5 1 2.5 9q0 16 7.5 30.5t15.5 23.5q15 32 33 65q16 8 26 -2t27 -20q25 -16 49.5 -39t48.5 -47q4 -6 8 -15q2 -4 2 -6 q-25 -16 -37 -11t-28 21l-76 76q-8 -25 -21.5 -42t-21.5 -34q0 -10 -20 -10q-10 0 -15.5 1z" />
<glyph unicode="&#xf5;" horiz-adv-x="405" d="M-8 1100q0 47 14.5 88t61.5 63q23 10 53.5 8.5t53.5 -24.5q10 -10 29.5 -21.5t29.5 -23.5q23 -23 44 -27t38.5 4.5t28 26.5t10.5 41q0 12 9 23.5t22 23.5q10 0 20 -4t10 -27t-11 -47t-29.5 -44.5t-43 -33t-53.5 -12.5q-23 -10 -38 -3t-38 20l-59 59q-23 23 -51.5 21.5 t-38.5 -35.5q0 -8 -8 -21q-4 -6 -9 -10q0 -45 -45 -45zM10 744.5q4 80.5 39 158.5q18 41 47 67.5t82 37.5q16 8 40 9t42 1q8 0 16.5 -5t18.5 -5q25 -45 36 -97.5t19 -111.5q0 -53 6 -104.5t6 -104.5v-70h13v-266q-10 -43 -12.5 -79t-12.5 -71q-16 -43 -42.5 -64.5 t-71.5 -39.5q-84 -14 -152 35q-16 18 -26.5 35.5t-18.5 44.5q-18 72 -19.5 139.5t9.5 126.5q0 53 -7.5 103.5t-7.5 93.5q-8 86 -4 166.5zM49 682q0 -43 7 -92t7 -92v-219q0 -35 1.5 -69t9.5 -60q8 -53 33.5 -79t70.5 -36q18 -4 40 0t42.5 15t35.5 27.5t19 37.5 q0 45 6.5 81.5t6.5 82.5v231v68q-10 72 -16.5 139t-6.5 139q-8 27 -17 52.5t-18 49.5q-8 10 -17 12.5t-17 2.5q-35 29 -70 0h-10q-29 -18 -45.5 -36.5t-26.5 -45.5q-16 -53 -25.5 -104.5t-9.5 -104.5z" />
<glyph unicode="&#xf6;" horiz-adv-x="405" d="M-9 1191q0 41 19.5 74t58.5 33q41 0 60.5 -33t19.5 -74q0 -78 -80 -77q-78 0 -78 77zM10 744.5q4 80.5 39 158.5q18 41 47 67.5t82 37.5q16 8 40 9t42 1q8 0 16.5 -5t18.5 -5q25 -45 36 -97.5t19 -111.5q0 -53 6 -104.5t6 -104.5v-70h13v-266q-10 -43 -12.5 -79 t-12.5 -71q-16 -43 -42.5 -64.5t-71.5 -39.5q-84 -14 -152 35q-16 18 -26.5 35.5t-18.5 44.5q-18 72 -19.5 139.5t9.5 126.5q0 53 -7.5 103.5t-7.5 93.5q-8 86 -4 166.5zM49 682q0 -43 7 -92t7 -92v-219q0 -35 1.5 -69t9.5 -60q8 -53 33.5 -79t70.5 -36q18 -4 40 0t42.5 15 t35.5 27.5t19 37.5q0 45 6.5 81.5t6.5 82.5v231v68q-10 72 -16.5 139t-6.5 139q-8 27 -17 52.5t-18 49.5q-8 10 -17 12.5t-17 2.5q-35 29 -70 0h-10q-29 -18 -45.5 -36.5t-26.5 -45.5q-16 -53 -25.5 -104.5t-9.5 -104.5zM258 1191q0 41 19 74t58 33q41 0 60.5 -33t19.5 -74 q0 -78 -80 -77q-78 0 -77 77z" />
<glyph unicode="&#xf7;" horiz-adv-x="770" d="M14 788q0 4 8.5 10.5t24.5 6.5h152h168q66 0 127 5t129 5h51q27 0 31 -2t4 -18q-8 -4 -13.5 -10.5t-13.5 -6.5h-133q-104 0 -205.5 -3t-206.5 -3h-80q-12 0 -23 2t-20 14zM276 895q-10 25 0 49q8 29 27 46.5t45 17.5q18 0 35.5 -11.5t26.5 -31.5q0 -8 1 -15.5t9 -11.5 v-37q0 -25 -31 -41t-59 -12q-37 14 -54 47zM287 612q-14 25 0 54q8 25 26.5 42t42.5 17q20 0 38 -11.5t26 -31.5q0 -8 1 -13t5 -14v-32q0 -29 -30.5 -45.5t-55.5 -8.5q-20 4 -32.5 17.5t-20.5 25.5zM303 938q-8 -39 21 -53q18 -12 34.5 -8t24.5 24q8 16 3 29.5t-13 34.5 q0 4 -4.5 9t-12.5 -3q-12 8 -28.5 -6.5t-24.5 -26.5zM311 622.5q6 -12.5 19 -20.5q20 -12 37.5 -6t25.5 27q4 12 1 25.5t-11 33.5q0 8 -6 11t-10 -1q-14 4 -29.5 -10t-24.5 -27q-8 -20 -2 -32.5z" />
<glyph unicode="&#xf8;" horiz-adv-x="405" d="M10 744.5q4 80.5 39 158.5q18 41 47 67.5t82 37.5q16 8 40 9t42 1q8 0 16.5 -5t18.5 -5q25 -45 36 -97.5t19 -111.5q0 -53 6 -104.5t6 -104.5v-70h13v-266q-10 -43 -12.5 -79t-12.5 -71q-16 -43 -42.5 -64.5t-71.5 -39.5q-84 -14 -152 35q-16 18 -26.5 35.5t-18.5 44.5 q-18 72 -19.5 139.5t9.5 126.5q0 53 -7.5 103.5t-7.5 93.5q-8 86 -4 166.5zM49 682q0 -43 7 -92t7 -92v-219q0 -35 1.5 -69t9.5 -60q8 -53 33.5 -79t70.5 -36q18 -4 40 0t42.5 15t35.5 27.5t19 37.5q0 45 6.5 81.5t6.5 82.5v231v68q-10 72 -16.5 139t-6.5 139 q-8 27 -17 52.5t-18 49.5q-8 10 -17 12.5t-17 2.5q-35 29 -70 0h-10q-29 -18 -45.5 -36.5t-26.5 -45.5q-16 -53 -25.5 -104.5t-9.5 -104.5zM57 -229q0 35 2 61.5t14 49.5q0 35 2 71.5t15 73.5q0 72 10 133.5t20 120.5q12 72 24.5 153.5t25.5 167.5q10 47 22 95.5t25 95.5 q12 47 16 88t14 88q14 72 25.5 136.5t24.5 135.5q0 10 10 19.5t22 -4.5q12 0 14.5 -9.5t2.5 -21.5q0 -25 -8.5 -48.5t-8.5 -47.5q-12 -72 -24 -143.5t-25 -143.5q-10 -37 -21.5 -72.5t-11.5 -70.5q-10 -61 -22 -129t-25 -129q-12 -96 -31.5 -190.5t-31.5 -190.5 q0 -37 -2 -74t-15 -72q0 -37 -9 -72.5t-21 -70.5q0 -12 -10.5 -16.5t-22.5 -16.5v33z" />
<glyph unicode="&#xf9;" horiz-adv-x="393" d="M18 342v221q10 78 16.5 157t6.5 157q10 35 11 63.5t1 63.5q0 10 1 17t12 7q8 0 20 -7t12 -17q-10 -27 -11 -51.5t-1 -53.5q0 -86 -10 -166t-10 -158q0 -70 -5.5 -140t5.5 -140q0 -35 6 -71t14 -81q10 -16 14 -33.5t23 -35.5q16 -16 51 -24.5t53 1.5q51 33 80 80v59 q0 35 1 76t11 76v45v281q0 35 5.5 63.5t-5.5 63.5v174v47q27 10 31 7t4 -30q10 -72 11.5 -133t1.5 -123v-338v-57q-10 -45 -11.5 -87t-1.5 -87q-10 -35 -11 -72t-1 -80q10 -8 -1 -15t-22 -7q-4 4 -6 8q-6 6 -6 14q-8 8 -4 18.5t4 28.5q-16 -10 -33.5 -18t-33.5 -18 q-10 0 -18.5 -5.5t-18.5 -5.5q-25 0 -55.5 4.5t-49.5 30.5q-16 10 -25.5 25.5t-19.5 34.5q-16 59 -30.5 114.5t-4.5 116.5zM114 1423q0 10 1 12.5t12 12.5h12q10 0 13 -1t13 -11q29 -39 56.5 -82t56.5 -80v-27q-4 -4 -8 -6q-11 -6 -19 -6q-10 10 -17 12t-7 13 q-18 29 -43 62.5t-45 61.5q0 10 -7.5 19.5t-17.5 19.5z" />
<glyph unicode="&#xfa;" horiz-adv-x="393" d="M18 342v221q10 78 16.5 157t6.5 157q10 35 11 63.5t1 63.5q0 10 1 17t12 7q8 0 20 -7t12 -17q-10 -27 -11 -51.5t-1 -53.5q0 -86 -10 -166t-10 -158q0 -70 -5.5 -140t5.5 -140q0 -35 6 -71t14 -81q10 -16 14 -33.5t23 -35.5q16 -16 51 -24.5t53 1.5q51 33 80 80v59 q0 35 1 76t11 76v45v281q0 35 5.5 63.5t-5.5 63.5v174v47q27 10 31 7t4 -30q10 -72 11.5 -133t1.5 -123v-338v-57q-10 -45 -11.5 -87t-1.5 -87q-10 -35 -11 -72t-1 -80q10 -8 -1 -15t-22 -7q-4 4 -6 8q-6 6 -6 14q-8 8 -4 18.5t4 28.5q-16 -10 -33.5 -18t-33.5 -18 q-10 0 -18.5 -5.5t-18.5 -5.5q-25 0 -55.5 4.5t-49.5 30.5q-16 10 -25.5 25.5t-19.5 34.5q-16 59 -30.5 114.5t-4.5 116.5zM139 1241q0 8 10 19q10 31 20.5 67.5t20.5 67.5q10 23 23.5 30.5t44.5 -2.5q-8 -8 -12 -20q-2 -6 -3 -8q-10 -41 -26.5 -80t-26.5 -70 q-20 -37 -41 -12q-10 0 -10 8z" />
<glyph unicode="&#xfb;" horiz-adv-x="393" d="M18 342v221q10 78 16.5 157t6.5 157q10 35 11 63.5t1 63.5q0 10 1 17t12 7q8 0 20 -7t12 -17q-10 -27 -11 -51.5t-1 -53.5q0 -86 -10 -166t-10 -158q0 -70 -5.5 -140t5.5 -140q0 -35 6 -71t14 -81q10 -16 14 -33.5t23 -35.5q16 -16 51 -24.5t53 1.5q51 33 80 80v59 q0 35 1 76t11 76v45v281q0 35 5.5 63.5t-5.5 63.5v174v47q27 10 31 7t4 -30q10 -72 11.5 -133t1.5 -123v-338v-57q-10 -45 -11.5 -87t-1.5 -87q-10 -35 -11 -72t-1 -80q10 -8 -1 -15t-22 -7q-4 4 -6 8q-6 6 -6 14q-8 8 -4 18.5t4 28.5q-16 -10 -33.5 -18t-33.5 -18 q-10 0 -18.5 -5.5t-18.5 -5.5q-25 0 -55.5 4.5t-49.5 30.5q-16 10 -25.5 25.5t-19.5 34.5q-16 59 -30.5 114.5t-4.5 116.5zM89.5 1283q-5.5 1 2.5 9q0 16 7.5 30.5t15.5 23.5q15 32 33 65q16 8 26 -2t27 -20q25 -16 49.5 -39t48.5 -47q4 -6 8 -15q2 -4 2 -6q-25 -16 -37 -11 t-28 21l-76 76q-8 -25 -21.5 -42t-21.5 -34q0 -10 -20 -10q-10 0 -15.5 1z" />
<glyph unicode="&#xfc;" horiz-adv-x="393" d="M-15 1212q0 41 19.5 74t58.5 33q41 0 60.5 -33t19.5 -74q0 -78 -80 -77q-78 0 -78 77zM18 342v221q10 78 16.5 157t6.5 157q10 35 11 63.5t1 63.5q0 10 1 17t12 7q8 0 20 -7t12 -17q-10 -27 -11 -51.5t-1 -53.5q0 -86 -10 -166t-10 -158q0 -70 -5.5 -140t5.5 -140 q0 -35 6 -71t14 -81q10 -16 14 -33.5t23 -35.5q16 -16 51 -24.5t53 1.5q51 33 80 80v59q0 35 1 76t11 76v45v281q0 35 5.5 63.5t-5.5 63.5v174v47q27 10 31 7t4 -30q10 -72 11.5 -133t1.5 -123v-338v-57q-10 -45 -11.5 -87t-1.5 -87q-10 -35 -11 -72t-1 -80q10 -8 -1 -15 t-22 -7q-4 4 -6 8q-6 6 -6 14q-8 8 -4 18.5t4 28.5q-16 -10 -33.5 -18t-33.5 -18q-10 0 -18.5 -5.5t-18.5 -5.5q-25 0 -55.5 4.5t-49.5 30.5q-16 10 -25.5 25.5t-19.5 34.5q-16 59 -30.5 114.5t-4.5 116.5zM252 1212q0 41 19 74t58 33q41 0 60.5 -33t19.5 -74q0 -78 -80 -77 q-78 0 -77 77z" />
<glyph unicode="&#xfd;" horiz-adv-x="503" d="M0 -272q0 37 27 36q20 0 23 -14t3 -22q0 -41 7.5 -88.5t17.5 -88.5q20 -29 43.5 -37t64.5 13q39 10 69 43t50 63q41 47 54.5 105.5t13.5 118.5q8 41 16 80.5t8 80.5v211q10 41 11.5 81t1.5 79q-20 -8 -30.5 -9t-21.5 -1q-51 -12 -92 -3t-80 27q-23 20 -34 48t-21 57 q0 51 -8 101t-19 100v198v82q0 18 3.5 21.5t23.5 3.5q10 0 18.5 -2t8.5 -13v-170q0 -82 3 -168t25 -163q4 -20 20.5 -40t38 -34t47 -20.5t50.5 -0.5q12 10 28.5 5t26.5 -5v291q0 51 -7 101.5t-7 99.5q0 20 -1 39.5t-9 38.5q0 12 1 24.5t9 1.5q10 0 25.5 -1t15.5 -9 q0 -72 6 -140.5t6 -139.5q10 -70 12.5 -138.5t2.5 -128.5v-213q0 -78 -7.5 -148.5t-7.5 -141.5q-10 -61 -19 -121t-20 -121q0 -8 -8 -25.5t-16 -38.5q-31 -41 -65 -76.5t-85 -56.5q-39 -20 -76.5 -25t-68.5 25q-18 10 -23.5 20.5t-17.5 20.5q-18 47 -27.5 91t-9.5 96z M195 1241q0 8 10 19q10 31 20.5 67.5t20.5 67.5q10 23 23.5 30.5t44.5 -2.5q-8 -8 -12 -20q-2 -6 -3 -8q-10 -41 -26.5 -80t-26.5 -70q-20 -37 -41 -12q-10 0 -10 8z" />
<glyph unicode="&#xfe;" horiz-adv-x="468" d="M-2 745v181q10 35 9 63.5t22 28.5t26.5 -20.5t3.5 -55.5v-332v-358q10 -137 14.5 -280.5t14.5 -278.5v-119q0 -47 -11 -59.5t-34 -1.5l-8 16q-6 14 -6 31q0 66 -2 143.5t-15 155.5q0 227 -2 444t-12 442zM33 680q0 8 10 8q12 10 25.5 20.5t35.5 22.5q23 10 53.5 12 t65.5 2q47 -10 73 -28.5t46 -28.5q23 -35 39 -61.5t39 -61.5v-59q10 -23 12 -45t2 -45q0 -35 -9 -69t-22 -68q0 -33 -9 -65t-21 -54q-10 -23 -14.5 -36t-16.5 -26q-20 -23 -72.5 -34t-122.5 -11q-33 12 -48 23.5t-25 21.5q-10 12 -12.5 25.5t-2.5 36.5l15 16q0 -12 6 -14 q4 -2 8 -2q29 -25 29 -45q0 -12 10 -20.5t24.5 -12.5t30 -4t27.5 6q45 0 67.5 9t22.5 22q12 35 22.5 60.5t20.5 60.5q0 12 8 31.5t8 41.5q10 47 18.5 84t-3.5 84q0 23 -2 44.5t-13 43.5q-12 35 -31.5 61.5t-41.5 61.5q-12 10 -36 20.5t-71 22.5q-10 0 -22.5 -2t-22.5 -14 q-45 -23 -45 -43l-14 -15q-10 0 -20.5 2.5t-10.5 12.5q-10 0 -10 8z" />
<glyph unicode="&#xff;" horiz-adv-x="503" d="M0 -272q0 37 27 36q20 0 23 -14t3 -22q0 -41 7.5 -88.5t17.5 -88.5q20 -29 43.5 -37t64.5 13q39 10 69 43t50 63q41 47 54.5 105.5t13.5 118.5q8 41 16 80.5t8 80.5v211q10 41 11.5 81t1.5 79q-20 -8 -30.5 -9t-21.5 -1q-51 -12 -92 -3t-80 27q-23 20 -34 48t-21 57 q0 51 -8 101t-19 100v198v82q0 18 3.5 21.5t23.5 3.5q10 0 18.5 -2t8.5 -13v-170q0 -82 3 -168t25 -163q4 -20 20.5 -40t38 -34t47 -20.5t50.5 -0.5q12 10 28.5 5t26.5 -5v291q0 51 -7 101.5t-7 99.5q0 20 -1 39.5t-9 38.5q0 12 1 24.5t9 1.5q10 0 25.5 -1t15.5 -9 q0 -72 6 -140.5t6 -139.5q10 -70 12.5 -138.5t2.5 -128.5v-213q0 -78 -7.5 -148.5t-7.5 -141.5q-10 -61 -19 -121t-20 -121q0 -8 -8 -25.5t-16 -38.5q-31 -41 -65 -76.5t-85 -56.5q-39 -20 -76.5 -25t-68.5 25q-18 10 -23.5 20.5t-17.5 20.5q-18 47 -27.5 91t-9.5 96z M39 1212q0 41 19.5 74t58.5 33q41 0 60.5 -33t19.5 -74q0 -78 -80 -77q-78 0 -78 77zM306 1212q0 41 19 74t58 33q41 0 60.5 -33t19.5 -74q0 -78 -80 -77q-78 0 -77 77z" />
<glyph unicode="&#x152;" horiz-adv-x="899" d="M-10 549q0 33 7 65.5t7 63.5v258q0 55 -7 117.5t-7 126.5q10 53 14 108t14 109q20 104 129 129q43 0 77 -4t67 -27q63 -18 86 -84q10 -43 26.5 -87t16.5 -87q10 -63 14 -135t15 -137q0 -43 -7.5 -84t-7.5 -74v-186q0 -53 7.5 -115t7.5 -115q0 -33 -7.5 -62.5t-7.5 -52.5 q-10 -33 -20.5 -64.5t-22.5 -64.5q-10 -66 -65.5 -95t-120.5 -19q-76 23 -120 76t-67 139q0 33 -7 74t-7 84t-2 76.5t-12 66.5zM47 520q0 -33 7 -57.5t7 -56.5v-99q10 -55 27.5 -105t58.5 -83q55 -43 100.5 -41t86.5 55q33 53 45 115.5t12 128.5q0 45 -7 87t-7 85 q0 98 7 201.5t7 201.5q0 63 -9 135t-20 138q0 53 -17 104t-40 94q-20 35 -51 47.5t-64 12.5q-33 -10 -54 -20.5t-36.5 -26t-23.5 -38t-15 -59.5v-57q0 -35 -7 -65.5t-7 -63.5q0 -53 7 -115.5t7 -115.5v-201v-201h-14zM469 799q0 88 2 172t12 162v319q12 10 6 20.5t-6 20.5 q0 12 9.5 21.5t19.5 9.5q23 0 44 -2t42 -13q35 0 74 -2t71 -14l15 -14q0 -10 -3 -18.5t-24 -8.5q-45 10 -96 13.5t-94 13.5q0 -174 -7.5 -344t-7.5 -336h103q10 0 18 -3t8 -26q0 -10 -8 -12t-18 -2q-23 0 -45.5 -7.5t-57.5 -7.5q10 -176 22.5 -342t22.5 -340q43 10 93.5 5 t93.5 -5q23 -10 42 -12t31 -2q10 0 19.5 -8t9.5 -21q-10 -10 -21.5 -12t-23.5 -2q-20 0 -41.5 2t-42.5 12q-45 12 -88 4t-86 -18q-35 0 -40 10.5t-5 32.5q-10 78 -11 153.5t-1 149.5q-12 90 -14.5 183.5t-2.5 181.5q0 23 -7 43t-7 43z" />
<glyph unicode="&#x153;" horiz-adv-x="804" d="M10 744.5q4 80.5 39 158.5q18 41 47 67.5t82 37.5q16 8 40 9t42 1q8 0 16.5 -5t18.5 -5q25 -45 36 -97.5t19 -111.5q0 -53 6 -104.5t6 -104.5v-70h13v-266q-10 -43 -12.5 -79t-12.5 -71q-16 -43 -42.5 -64.5t-71.5 -39.5q-84 -14 -152 35q-16 18 -26.5 35.5t-18.5 44.5 q-18 72 -19.5 139.5t9.5 126.5q0 53 -7.5 103.5t-7.5 93.5q-8 86 -4 166.5zM49 682q0 -43 7 -92t7 -92v-219q0 -35 1.5 -69t9.5 -60q8 -53 33.5 -79t70.5 -36q18 -4 40 0t42.5 15t35.5 27.5t19 37.5q0 45 6.5 81.5t6.5 82.5v231v68q-10 72 -16.5 139t-6.5 139 q-8 27 -17 52.5t-18 49.5q-8 10 -17 12.5t-17 2.5q-35 29 -70 0h-10q-29 -18 -45.5 -36.5t-26.5 -45.5q-16 -53 -25.5 -104.5t-9.5 -104.5zM407 291q-18 133 0 248q0 47 6.5 86t6.5 75q10 37 12 81t12 81q0 18 1 43t12 43q10 39 31.5 71t68.5 42q37 10 81 7t81 -32 q18 -18 28.5 -45.5t20.5 -66.5q10 -29 16 -51.5t-4 -59.5q0 -10 -7 -19.5t-17 -19.5h-74q-39 10 -82 13.5t-80 13.5q-10 0 -20.5 -7.5t-30.5 -7.5q0 -47 -6 -93t-6 -93q-10 -37 -11.5 -71.5t-1.5 -63.5q0 -57 1 -104.5t12 -94.5q0 -90 38 -162q10 -29 34 -47t53 -28 q29 0 53 15t35 36q18 10 28 26.5t21 34.5v49q0 18 15.5 26.5t33.5 -1.5q0 -37 -15.5 -74t-33.5 -75q-18 -23 -47 -38.5t-61 -21.5t-62.5 -1t-53.5 24q-29 18 -41 44.5t-22 55.5q-10 37 -12 80t-13 82zM481 825h113q29 0 58.5 -1t66.5 -11q10 0 17 3t7 22q-10 18 -12 42.5 t-12 43.5q-18 113 -150 112q-10 0 -17 -1t-7 -11q-10 -18 -18.5 -30.5t-18.5 -32.5q-20 -37 -23.5 -68t-3.5 -68z" />
<glyph unicode="&#x178;" horiz-adv-x="464" d="M6 1499q0 12 7 16.5t7 14.5q8 0 21 -8q6 -4 10 -6q10 -35 14.5 -58.5t14.5 -46.5q23 -78 52.5 -156.5t51.5 -169.5q10 -45 21.5 -89t21.5 -87q0 -10 2.5 -12t12.5 -2q10 53 22 109.5t23 111.5q23 78 37 164t36 176q0 10 4.5 26.5t26.5 16.5q23 0 26 -9t3 -20 q-23 -78 -37 -156.5t-37 -168.5q-10 -66 -29.5 -139.5t-29.5 -139.5q0 -23 -7.5 -54.5t-7.5 -63.5q-12 0 -14 -11.5t-2 -34.5q12 -68 21.5 -126t9.5 -123q0 -78 7 -147.5t7 -135.5q0 -43 7 -78t7 -69q0 -10 -2 -19.5t-12 -9.5t-21.5 3t-23.5 26q0 23 -2 54.5t-12 61.5 q0 90 -2 178.5t-13 178.5q-10 78 -13 153.5t-15 141.5q-10 57 -21.5 109t-21.5 97q-35 100 -66 199.5t-53 200.5q-12 23 -16.5 51.5t-14.5 50.5zM20 1744q0 41 19.5 74t58.5 33q41 0 60.5 -33t19.5 -74q0 -78 -80 -77q-78 0 -78 77zM287 1744q0 41 19 74t58 33 q41 0 60.5 -33t19.5 -74q0 -78 -80 -77q-78 0 -77 77z" />
<glyph unicode="&#x2c6;" horiz-adv-x="253" d="M9.5 1283q-5.5 1 2.5 9q0 16 7.5 30.5t15.5 23.5q15 32 33 65q16 8 26 -2t27 -20q25 -16 49.5 -39t48.5 -47q4 -6 8 -15q2 -4 2 -6q-25 -16 -37 -11t-28 21l-76 76q-8 -25 -21.5 -42t-21.5 -34q0 -10 -20 -10q-10 0 -15.5 1z" />
<glyph unicode="&#x2dc;" horiz-adv-x="483" d="M12 1530q0 47 14.5 88t61.5 63q23 10 53.5 8.5t53.5 -24.5q10 -10 29.5 -21.5t29.5 -23.5q23 -23 44 -27t38.5 4.5t28 26.5t10.5 41q0 12 9 23.5t22 23.5q10 0 20 -4t10 -27t-11 -47t-29.5 -44.5t-43 -33t-53.5 -12.5q-23 -10 -38 -3t-38 20l-59 59q-23 23 -51.5 21.5 t-38.5 -35.5q0 -8 -8 -21q-4 -6 -9 -10q0 -45 -45 -45z" />
<glyph unicode="&#x2000;" horiz-adv-x="929" />
<glyph unicode="&#x2001;" horiz-adv-x="1858" />
<glyph unicode="&#x2002;" horiz-adv-x="929" />
<glyph unicode="&#x2003;" horiz-adv-x="1858" />
<glyph unicode="&#x2004;" horiz-adv-x="619" />
<glyph unicode="&#x2005;" horiz-adv-x="464" />
<glyph unicode="&#x2006;" horiz-adv-x="309" />
<glyph unicode="&#x2007;" horiz-adv-x="309" />
<glyph unicode="&#x2008;" horiz-adv-x="232" />
<glyph unicode="&#x2009;" horiz-adv-x="371" />
<glyph unicode="&#x200a;" horiz-adv-x="103" />
<glyph unicode="&#x2010;" horiz-adv-x="460" d="M6 639q0 4 4 12q2 4 4 6h80q61 6 121.5 7.5t122.5 1.5h45q6 0 16.5 -2t10.5 -17q0 -6 -5.5 -12t-13.5 -6h-90h-98q-35 0 -73 -4t-79 -4h-28q-12 0 -14.5 2t-2.5 16z" />
<glyph unicode="&#x2011;" horiz-adv-x="460" d="M6 639q0 4 4 12q2 4 4 6h80q61 6 121.5 7.5t122.5 1.5h45q6 0 16.5 -2t10.5 -17q0 -6 -5.5 -12t-13.5 -6h-90h-98q-35 0 -73 -4t-79 -4h-28q-12 0 -14.5 2t-2.5 16z" />
<glyph unicode="&#x2012;" horiz-adv-x="460" d="M6 639q0 4 4 12q2 4 4 6h80q61 6 121.5 7.5t122.5 1.5h45q6 0 16.5 -2t10.5 -17q0 -6 -5.5 -12t-13.5 -6h-90h-98q-35 0 -73 -4t-79 -4h-28q-12 0 -14.5 2t-2.5 16z" />
<glyph unicode="&#x2013;" horiz-adv-x="716" d="M6 651q0 8 6 19q2 6 6 10h132q98 10 196 12t197 2h73q10 0 26.5 -4t16.5 -26q0 -10 -9 -20.5t-21 -10.5h-146h-159q-53 0 -116 -6t-128 -6h-47q-20 0 -23.5 4t-3.5 26z" />
<glyph unicode="&#x2014;" horiz-adv-x="1179" d="M6 674q0 14 10 31q4 8 11 16h223q170 18 337 21t335 3h125q8 0 20 -1t24.5 -5t20.5 -15t8 -30q0 -16 -15 -34.5t-36 -18.5h-250h-272q-92 0 -198.5 -10t-217.5 -10h-80q-35 0 -40 6t-5 47z" />
<glyph unicode="&#x2018;" horiz-adv-x="221" d="M42 1621q5 42 46 73h10q12 -4 15 -15q16 4 19 3t7 -15v-10q0 -14 -12 -17q-12 -12 -18.5 -19t-8.5 -15.5t2.5 -20.5t10.5 -35l18 9q20 -10 34.5 -21.5t4.5 -30.5q4 -16 -6 -30.5t-45 -10.5l-21 -6q-16 -4 -21 7.5t-9 25.5q-20 10 -18.5 26.5t-2.5 30.5q-10 29 -5 71z" />
<glyph unicode="&#x2019;" horiz-adv-x="169" d="M8 1550q6 18 19.5 33.5t48.5 13.5l14 7q8 -14 18.5 -15.5t12.5 -15.5q23 -10 20.5 -26.5t1.5 -22.5q14 -45 8 -78t-45 -57l-16 -11q-20 10 -26.5 12.5t-22.5 12.5q12 4 15 8t14 23q29 8 28.5 23t-10.5 44l-25 10q-29 -12 -37 -0.5t-18 39.5z" />
<glyph unicode="&#x201a;" horiz-adv-x="176" d="M8 55q6 18 19.5 33.5t48.5 13.5l14 7q8 -14 18.5 -15.5t12.5 -15.5q23 -10 20.5 -26.5t1.5 -22.5q14 -45 8 -78t-45 -57l-16 -11q-20 10 -26.5 12.5t-22.5 12.5q12 4 15 8t14 23q29 8 28.5 23t-10.5 44l-25 10q-29 -12 -37 -0.5t-18 39.5z" />
<glyph unicode="&#x201c;" horiz-adv-x="389" d="M18 1604.5q7 35.5 48 64.5l18 4q12 6 20 -2q4 -4 7 -8q4 -16 3 -19.5t-16 -7.5q-27 -25 -25.5 -44t11.5 -48h10q10 0 17 -12q14 4 30.5 -2t20.5 -23q-4 -35 -20.5 -45t-45.5 -18l-20 -8q-6 14 -19 22q-8 6 -14 10q-18 10 -15 26.5t-3 31.5q-14 43 -7 78.5zM226 1621 q5 42 46 73h11q12 -4 14 -15q16 4 19 3t8 -15v-10q0 -14 -13 -17q-12 -12 -18 -19t-8 -15.5t2 -20.5t10 -35l18 9q20 -10 35 -21.5t4 -30.5q4 -16 -6 -30.5t-45 -10.5l-20 -6q-16 -4 -21.5 7.5t-9.5 25.5q-20 10 -18 26.5t-3 30.5q-10 29 -5 71z" />
<glyph unicode="&#x201d;" horiz-adv-x="391" d="M2 1526q2 33 15.5 42t41.5 19q2 -12 15 -12h10q14 4 20.5 -5t14.5 -26q6 2 8 -3t3 -14t2 -18.5t5 -15.5q10 -29 4 -65.5t-47 -51.5l-18 -4q-10 -6 -19 2q-4 4 -6 8v9q0 8 12 16q23 23 21 38t-8 42l-23 -4q-16 10 -31.5 19t-19.5 24zM193 1550q6 18 19 33.5t48 13.5l14 7 q8 -14 18.5 -15.5t12.5 -15.5q23 -10 21 -26.5t2 -22.5q14 -45 8 -78t-45 -57l-17 -11q-20 10 -26 12.5t-23 12.5q12 4 15.5 8t13.5 23q29 8 28.5 23t-10.5 44l-24 10q-29 -12 -37 -0.5t-18 39.5z" />
<glyph unicode="&#x201e;" horiz-adv-x="362" d="M2 72q2 33 15.5 42t41.5 19q2 -12 15 -12h10q14 4 20.5 -5.5t14.5 -25.5q6 2 8 -3t3 -14.5t2 -18.5t5 -15q10 -29 4 -65.5t-47 -51.5l-18 -4q-10 -6 -19 2q-4 4 -6 8v9q0 8 12 16q23 23 21 38t-8 42l-23 -4q-16 10 -31.5 19t-19.5 24zM193 96q6 18 19 33.5t48 13.5l14 7 q8 -14 18.5 -15.5t12.5 -15.5q23 -10 21 -26.5t2 -22.5q14 -45 8 -78t-45 -58l-17 -10q-20 10 -26 12.5t-23 12.5q12 4 15.5 8t13.5 23q29 8 28.5 23t-10.5 44l-24 10q-29 -12 -37 -0.5t-18 39.5z" />
<glyph unicode="&#x2022;" horiz-adv-x="387" d="M14 791q0 43 10.5 82.5t31 70.5t50 49.5t70.5 18.5t73 -18.5t52.5 -49.5t30.5 -70.5t10 -82.5q0 -162 -166 -162q-162 0 -162 162z" />
<glyph unicode="&#x2026;" horiz-adv-x="546" d="M14 86q0 41 19.5 74t58.5 33q41 0 60.5 -33t19.5 -74q0 -78 -80 -78q-78 0 -78 78zM197 86q0 41 19 74t58 33q41 0 60.5 -33t19.5 -74q0 -78 -80 -78q-78 0 -77 78zM379 86q0 41 19.5 74t58.5 33q41 0 60.5 -33t19.5 -74q0 -78 -80 -78q-78 0 -78 78z" />
<glyph unicode="&#x202f;" horiz-adv-x="371" />
<glyph unicode="&#x2039;" horiz-adv-x="356" d="M22 797.5q3 9.5 3 19.5q47 57 94 115.5t84 124.5q10 10 21.5 9t31.5 -22q-20 -29 -41.5 -64.5t-50.5 -64.5q-18 -29 -44 -62t-44 -62q18 -20 43.5 -46t44.5 -45q55 -35 115 -77q10 -8 12 -17.5t2 -19.5t-12.5 -10.5t-12.5 10.5q-39 29 -75.5 57.5t-65.5 56.5 q-29 18 -50.5 38t-37.5 40q-20 10 -17 19.5z" />
<glyph unicode="&#x203a;" horiz-adv-x="276" d="M8 618q2 4 6 7q49 33 91 69.5t83 69.5q10 10 14.5 18.5t14.5 16.5v12t2 12q-25 31 -49.5 61.5t-46.5 59.5q-16 20 -38 41t-38 41q0 10 -6 13t-4 12q10 0 12 1t12 9q10 -10 17.5 -18.5t17.5 -10.5q41 -51 84 -95t66 -91q10 -10 17 -20.5t16 -20.5q8 -10 4 -19q-2 -4 -7 -6 q-20 -8 -31.5 -17t-23.5 -26q-29 -25 -66.5 -55.5t-66.5 -65.5q-10 -8 -20.5 -15t-20.5 -15q-10 -10 -23.5 -2t-11.5 18q-8 8 -4 16z" />
<glyph unicode="&#x205f;" horiz-adv-x="464" />
<glyph unicode="&#x20ac;" horiz-adv-x="712" d="M16.5 709.5q8.5 9.5 30.5 9.5h143h144q66 0 122 7t122 7h43q23 0 30.5 -3t-2.5 -25q0 -8 -8 -13q-4 -2 -6 -2q-33 -10 -64.5 -12t-64.5 -2q-98 0 -193.5 -7t-193.5 -7h-72q-10 0 -19.5 3t-9.5 25q-10 10 -1.5 19.5zM18 819q0 10 9.5 20.5t19.5 10.5h143h158 q53 10 115.5 13t128.5 14h43q23 0 26 -10.5t3 -32.5q0 -8 -9 -13q-4 -2 -6 -2q-33 -10 -64.5 -12t-62.5 -2q-98 0 -194.5 -2t-194.5 -12h-74q-10 0 -25.5 3t-15.5 25zM262 690q10 86 12 163t2 153q10 66 19.5 138.5t9.5 147.5q10 33 14.5 62.5t14.5 52.5q23 66 72 95.5 t116 19.5q31 0 45.5 -19.5t24.5 -52.5t12 -64.5t2 -64.5q10 0 5 -8t-5 -21q-10 12 -19 15.5t-9 13.5q-10 23 -14.5 45.5t-14.5 54.5q0 16 -9.5 27.5t-22.5 18t-28.5 9.5t-25.5 3q-43 -10 -64.5 -39t-21.5 -62q-10 -66 -19.5 -129t-9.5 -129q-10 -43 -12 -87t-2 -97 q-10 -88 -16.5 -181t16.5 -180q0 -53 2 -105t12 -95q23 -66 43.5 -129.5t40.5 -128.5q12 -23 33.5 -40.5t56.5 -17.5q20 -10 32.5 -3t23.5 18q10 33 19 57.5t9 58.5q0 10 9.5 18.5t19.5 8.5q10 12 19.5 4t9.5 -18v-43q-10 -33 -29 -62.5t-29 -52.5q-23 -33 -52.5 -36 t-61.5 7q-45 10 -75 41t-40 74q-23 53 -43.5 114.5t-42.5 114.5q0 33 -2 72t-13 72q0 53 -2 103t-12 83z" />
<glyph unicode="&#x2122;" horiz-adv-x="657" d="M-6 1524q0 6 6 7t12 1q27 6 56.5 7t56.5 1q39 0 78 -1t78 -7v-8v-8h-25h-96q0 -41 4 -79t4 -79q6 -92 8 -178t8 -179q0 -27 -4 -58.5t-4 -63.5q0 -12 4 -25.5t4 -26.5v-69q8 -27 10.5 -47.5t8.5 -40.5q0 -6 -2 -11.5t-17 -5.5q-33 -10 -32 27q-8 39 -9.5 78t-1.5 86v78 v200q0 41 -1 79t-7 77q0 47 -1 88t-7 80v59q-33 8 -59.5 9.5t-53.5 1.5h-8q-4 0 -8 4q-2 2 -2 4zM309 1251q0 51 4 107.5t4 116.5q0 12 -4 24t-4 27l4 4q4 4 4 12q6 -8 13.5 -6t13.5 -10q6 -14 12 -31.5t13 -36.5q14 -35 22 -66.5t23 -64.5q12 -43 28.5 -88t28.5 -90 q0 4 2 10q2 4 3 8t5 9q4 25 15.5 54.5t17.5 55.5q14 45 26.5 89t24.5 89q6 20 8 33.5t9 28.5q0 4 6 9t12 -3h16v-6q-6 -33 -7 -64.5t-1 -64.5q0 -20 -4 -44t-4 -50v-162q0 -39 -4 -78t-4 -76q0 -47 4 -95t4 -93q0 -41 4 -73t4 -67q0 -4 -1 -10t-7 -6q-4 0 -12 4q-4 2 -6 6 q-6 12 -7.5 28.5t-1.5 29.5v88v43q-6 43 -7 84t-1 86v145v86q0 33 4 63.5t4 63.5q-12 -39 -25 -76t-26 -77q-6 -31 -16 -59t-19 -60q-6 0 -6 -19q0 -6 1 -11t-11 -5q-6 0 -11 2t-5 14q-6 8 -11.5 19.5t-5.5 23.5q0 20 -1 40t-7 38q-12 39 -26.5 77t-34.5 77 q-6 20 -12.5 38.5t-12.5 39.5v-52q-6 -72 -3 -136t3 -130q6 -33 7 -65.5t1 -71.5q0 -45 4 -95.5t4 -101.5v-86v-24q0 -8 -2 -12.5t-14 -4.5q-6 0 -12 2t-6 15v145q0 59 -4.5 115.5t-4.5 116.5q0 51 -4 101t-4 103z" />
<glyph unicode="&#x25fc;" horiz-adv-x="1024" d="M0 0v1024h1024v-1024h-1024z" />
<glyph unicode="&#xfb01;" horiz-adv-x="587" d="M10 609.5q0 54.5 10 113.5q0 41 8.5 79t18.5 66q10 41 45 69t76 38q39 6 65.5 -3t45 -26.5t33 -41t28.5 -48.5q10 -41 20.5 -80t20.5 -80v-41h-41q-4 2 -6 9q-6 6 -6 18q-10 59 -24.5 117.5t-55.5 109.5q-20 29 -55 29t-66 -29q-20 -20 -36.5 -41.5t-16.5 -52.5 q0 -49 -6.5 -107.5t-6.5 -119.5q0 -49 6.5 -99.5t6.5 -99.5q0 -31 2 -58.5t12 -47.5q41 0 80 -7.5t80 -7.5q0 -20 -8.5 -30.5t-18.5 -10.5h-41q-29 10 -50 12.5t-42 2.5q0 -80 1 -152t11 -141q0 -41 2 -89t13 -100q10 -49 19 -105t20 -108q0 -41 -39 -41q0 10 -2 27.5 t-13 28.5q-10 59 -13 112.5t-13 112.5q-20 92 -24.5 181t-14.5 179q0 92 -2 180.5t-13 168.5q-10 59 -10 113.5zM420 1094v24q0 20 16.5 35.5t36.5 5.5q10 0 12.5 -2t12.5 -12q20 -20 20 -32.5t-20 -33.5q-18 -10 -43 -8t-35 23zM459 963q0 39 6 43.5t47 -5.5v-104 q10 -59 11 -118.5t1 -119.5q0 -88 7.5 -169.5t7.5 -170.5v-223q0 -20 1 -32.5t11 -32.5q0 -20 -14.5 -28.5t-24.5 1.5q-10 0 -12 6q-2 4 -2 8v156q-10 49 -11 98.5t-1 98.5v118q0 78 -6.5 158t-6.5 158q0 39 -2 78t-12 80z" />
<glyph unicode="&#xfb02;" horiz-adv-x="546" d="M10 609.5q0 54.5 10 113.5q0 41 8.5 79t18.5 66q10 41 45 69t76 38q39 6 65.5 -3t45 -26.5t33 -41t28.5 -48.5q10 -41 20.5 -80t20.5 -80v-41h-41q-4 2 -6 9q-6 6 -6 18q-10 59 -24.5 117.5t-55.5 109.5q-20 29 -55 29t-66 -29q-20 -20 -36.5 -41.5t-16.5 -52.5 q0 -49 -6.5 -107.5t-6.5 -119.5q0 -49 6.5 -99.5t6.5 -99.5q0 -31 2 -58.5t12 -47.5q41 0 80 -7.5t80 -7.5q0 -20 -8.5 -30.5t-18.5 -10.5h-41q-29 10 -50 12.5t-42 2.5q0 -80 1 -152t11 -141q0 -41 2 -89t13 -100q10 -49 19 -105t20 -108q0 -41 -39 -41q0 10 -2 27.5 t-13 28.5q-10 59 -13 112.5t-13 112.5q-20 92 -24.5 181t-14.5 179q0 92 -2 180.5t-13 168.5q-10 59 -10 113.5zM414 1400.5q6 8.5 16 8.5q20 20 43 0v-82q10 -31 11.5 -68.5t1.5 -68.5q0 -53 7 -106.5t7 -116.5v-219v-209q0 -31 -2 -62t-12 -61q0 -94 -3.5 -185.5 t17.5 -175.5q0 -23 -8.5 -26.5t-18.5 -14.5q-43 0 -43 41v82v195q0 53 7.5 97t7.5 95v111v180q0 23 -2.5 49.5t-12.5 46.5h15q-10 94 -12.5 193.5t-2.5 195.5q0 20 -1 46t-11 36t-4 18.5z" />
</font>
</defs>
</svg>
